<svg xmlns="http://www.w3.org/2000/svg" viewBox="0 0 416.05 98.73" width="416.05" height="98.73">
  <path fill="#666" d="M14.44.87v48.02h23.49V60.9H0V.87zm53.85 0V60.9H53.85V.87zm60.9 18.53h-13.75c-.35-2.09-1.23-3.84-2.65-5.26q-2.13-2.13-5.7-2.13c-6.15 0-9.22 4.73-9.22 14.18v9.4c0 9.45 3.07 14.18 9.22 14.18 4.7 0 7.48-2.46 8.35-7.39h13.75c-1.04 6.67-3.38 11.57-7 14.7-3.63 3.13-8.66 4.7-15.09 4.7-7.13 0-12.86-2.2-17.18-6.61s-6.48-10.93-6.48-19.57v-9.4c0-8.7 2.15-15.24 6.44-19.62S99.91.01 107.11.01c6.09 0 11.05 1.62 14.88 4.87s6.23 8.09 7.22 14.53ZM154.69.87v22.97h18.44V.87h14.44V60.9h-14.44V35.84h-18.44V60.9h-14.44V.87zm44.1 0h45.76v12.01h-15.66V60.9h-14.44V12.88h-15.66zm71.08 0v22.97h18.44V.87h14.44V60.9h-14.44V35.84h-18.44V60.9h-14.44V.87zm92.57 34.71c0 8.64-2.16 15.17-6.48 19.57-4.32 4.41-10.05 6.61-17.18 6.61s-12.86-2.2-17.18-6.61-6.48-10.93-6.48-19.57v-9.4c0-8.7 2.15-15.24 6.44-19.62s10.03-6.57 17.23-6.57 12.93 2.19 17.23 6.57c4.29 4.38 6.44 10.92 6.44 19.62v9.4Zm-32.89-9.4v9.4c0 9.45 3.07 14.18 9.22 14.18s9.22-4.73 9.22-14.18v-9.4c0-9.45-3.08-14.18-9.22-14.18s-9.22 4.73-9.22 14.18M376.1.87h37.93v12.01h-23.49v12.35h20.88v12.01h-20.88V60.9H376.1zM253.69 76.65h16.83v4.42h-5.76v17.66h-5.31V81.07h-5.76zm30.01 0v8.45h6.78v-8.45h5.31v22.08h-5.31v-9.22h-6.78v9.22h-5.31V76.65zm21.57 0h13.95v4.42h-8.64v4.03h7.68v4.42h-7.68v4.8h8.64v4.42h-13.95V76.66Zm27.45 22.08h-5.66l7.36-22.08h5.42l7.7 22.08h-5.35l-1.32-3.78h-6.98zm4.58-14.72-2.05 6.53h4.06l-2.02-6.53Zm13.03-7.36h16.83v4.42h-5.76v17.66h-5.31V81.07h-5.76zm24.7 0h13.95v4.42h-8.64v4.03h7.68v4.42h-7.68v4.8h8.64v4.42h-13.95V76.66Zm41.02 22.08h-5.82l-3.68-8.35h-2.75v8.35h-5.31V76.65h8.32c2.6 0 4.64.59 6.13 1.78 1.48 1.18 2.22 2.91 2.22 5.17 0 2.84-1.17 4.79-3.52 5.86l4.42 9.28Zm-12.26-12.77h2.37c1.24 0 2.16-.16 2.77-.46.61-.31.91-.94.91-1.9s-.31-1.65-.94-2-1.54-.53-2.74-.53h-2.37v4.9Z"/>
</svg>
