<svg xmlns="http://www.w3.org/2000/svg" viewBox="0 0 240 72" width="240" height="72">
  <defs>
    <style>
      .cls-1 {
        fill: #666;
      }
    </style>
  </defs>
  <path class="cls-1" d="M72.18,48c4.16-.05,8.24-1.2,11.82-3.32,3.63,2.16,7.78,3.3,12,3.32-.02-4.23-1.17-8.37-3.33-12,2.16-3.63,3.31-7.77,3.33-12-4.22,.02-8.37,1.17-12,3.33-3.63-2.16-7.78-3.3-12-3.33-4.22,.02-8.37,1.17-12,3.33-3.63-2.16-7.78-3.3-12-3.33,.02,4.22,1.17,8.37,3.33,12-2.15,3.61-3.3,7.72-3.33,11.92-.04-4.2-1.18-8.31-3.32-11.92,2.15-3.63,3.3-7.78,3.32-12-4.22,.02-8.37,1.17-12,3.33-3.63-2.16-7.78-3.3-12-3.33C24,10.75,13.26,0,0,0,0,13.22,10.69,23.95,23.91,24c-4.19,.04-8.3,1.19-11.91,3.33-3.63-2.16-7.78-3.3-12-3.33,.02,4.22,1.17,8.37,3.33,12C1.17,39.63,.02,43.78,0,48c4.23-.02,8.37-1.17,12-3.33,3.63,2.16,7.77,3.31,12,3.33-.02-4.22-1.17-8.37-3.33-12,2.16-3.63,3.3-7.78,3.33-12,.03,4.22,1.18,8.37,3.33,12-2.16,3.63-3.3,7.78-3.33,12,4.22-.02,8.37-1.17,12-3.33,3.63,2.16,7.77,3.31,12,3.33,4.23-.02,8.37-1.17,12-3.33,3.63,2.16,7.78,3.31,12,3.33-.02-4.22-1.17-8.37-3.33-12,2.14-3.61,3.29-7.72,3.33-11.92,.04,4.2,1.19,8.31,3.33,11.92-2.16,3.63-3.31,7.78-3.33,12,0,13.26,10.75,24,24,24,0-13.19-10.64-23.9-23.82-24Zm60.58,0c-2.16,0-3-.86-3-2.65v-11.35c0-4.8-2.02-6.59-5.75-6.59-2.78,0-5.97,2.29-5.97,6.82v13.77h-1.16c-2.02,0-2.88-.86-2.88-2.65V15.71h1.2c1.84,0,2.92,.8,2.92,3.05v9.01c1.75-3.23,4.26-4.22,6.45-4.22,5.7,0,9.25,3.14,9.25,10.32v14.13h-1.06Zm39.72,0c-1.56,0-2.68-1.08-2.68-3.01v-10.58c0-5.02-1.88-7-5.16-7-3.95,0-5.61,2.02-5.61,6.86v13.73h-1.38c-1.98,0-2.74-1.08-2.74-3.01v-10.58c0-4.34-1.92-7-5.38-7s-5.38,2.1-5.38,7v13.59h-1.3c-1.7,0-2.83-.99-2.83-3.01v-11.12c0-5.52,3.5-10.32,9.78-10.32,3.55,0,5.96,1.58,7.44,4.35,1.58-2.66,4.44-4.31,7.53-4.35,5.97,0,9.15,3.6,9.15,10.72v13.73h-1.44Zm40.09,0c-1.56,0-2.68-1.08-2.68-3.01v-10.58c0-5.02-1.89-7-5.17-7-3.95,0-5.6,2.02-5.6,6.86v13.73h-1.39c-1.98,0-2.74-1.08-2.74-3.01v-10.58c0-4.34-1.93-7-5.39-7s-5.38,2.1-5.38,7v13.59h-1.3c-1.7,0-2.82-.99-2.82-3.01v-11.12c0-5.52,3.49-10.32,9.78-10.32,3.54,0,5.96,1.58,7.44,4.35,1.58-2.66,4.43-4.31,7.53-4.35,5.97,0,9.15,3.6,9.15,10.72v13.73h-1.43Zm26.36,0c-2.16,0-3-.86-3-2.65v-11.35c0-4.8-2.02-6.59-5.75-6.59-2.77,0-5.96,2.29-5.96,6.82v13.77h-1.17c-2.02,0-2.88-.86-2.88-2.65V15.71h1.22c1.83,0,2.91,.8,2.91,3.05v9.01c1.75-3.23,4.26-4.22,6.46-4.22,5.69,0,9.24,3.14,9.24,10.32v14.13h-1.07Z"/>
</svg>
