<svg xmlns="http://www.w3.org/2000/svg" viewBox="0 0 228 25.88" width="228" height="25.88">
  <defs>
    <style>
      .cls-1 {
        fill: #666;
      }
    </style>
  </defs>
  <path class="cls-1" d="M15.57,12.48c-1.34-1.05-2.91-1.76-4.58-2.06-1.6-.46-3.21-.8-4.35-1.26-1.26-.69-1.95-1.26-1.95-2.29,0-1.95,1.26-2.86,3.09-2.86,1.14,0,2.24,.4,3.09,1.14,.83,.84,1.35,1.92,1.49,3.09h3.89V.69h-4.01V1.95C10.95,.88,9.35,.24,7.67,.12,5.4,0,3.21,.99,1.77,2.75,.78,3.99,.2,5.51,.11,7.1c-.08,2.4,.98,4.69,2.86,6.18,1.2,.64,2.47,1.14,3.78,1.49,1.56,.24,3.09,.63,4.58,1.14,1.08,.47,1.73,1.58,1.6,2.75-.04,1.73-1.42,3.14-3.15,3.21-3.09,0-5.04-2.06-5.5-5.15H0v8.59H4.06v-1.49c1.6,1.26,3.57,1.95,5.61,1.95,2.06,.04,4.07-.69,5.61-2.06,1.53-1.46,2.36-3.5,2.29-5.61,.11-2.86-.69-4.46-1.95-5.61m23.53,4.12c-1.49,2.75-3.09,4.58-6.64,4.58-4.81,0-7.44-3.78-7.56-8.24s2.75-8.24,7.56-8.24c1.35-.01,2.66,.39,3.78,1.14,1.13,.7,1.95,1.81,2.29,3.09v.11h4.01V.69h-4.01V1.95C36.84,.76,34.79,.09,32.69,0c-3.07-.04-6.05,1.06-8.36,3.09-2.69,1.95-4.24,5.15-4.24,9.62-.09,3.47,1.18,6.84,3.55,9.39,2.32,2.45,5.56,3.82,8.93,3.78,5.38,0,9.5-2.86,10.99-8.7v-.34c-1.44-.19-2.9-.27-4.35-.23M184.78,.34v3.89h2.4V21.41h-2.4v3.89h18.66v-7.9h-4.12v4.01h-7.21v-7.1h6.64v-4.24h-6.64V4.24h7.21v2.98h4.12V.34s-18.66,0-18.66,0Zm-6.41,17.17v3.89h-5.27V4.24h2.63V.34h-10.19v3.89h2.75V21.41h-2.75v3.89h16.83v-7.79h-4.01Zm36.18-13.28h1.95c1.16-.06,2.31,.05,3.43,.34,1.04,.25,1.74,1.22,1.66,2.29,0,1.6-.46,2.29-1.26,2.75-.96,.48-2.02,.72-3.09,.69h-2.4l-.23-6.07h-.06Zm11.22,17.17v-5.15c.07-.83-.09-1.66-.46-2.4-.58-.76-1.38-1.32-2.29-1.6,2.17-.96,3.57-3.12,3.55-5.5v-.11c.02-1.24-.38-2.45-1.14-3.43-1.95-2.75-4.81-2.86-6.75-2.86h-11.33v3.89h2.63V21.18h-2.63v3.89h9.73v-3.55h-2.35v-7.1h2.29c.89-.06,1.79,.05,2.63,.34,.8,.24,1.33,1,1.26,1.83v8.7h7.1v-3.89h-2.23ZM68.46,4.24V.34h-9.62v3.89h2.18v5.84h-7.9V4.24h2.18V.34h-9.5v3.89h2.4V21.41h-2.4v3.89h9.5v-3.89h-2.18v-7.1h7.9v7.1h-2.18v3.89h9.62v-3.89h-2.4V4.24s2.4,0,2.4,0ZM142.88,.34v3.89h2.63V21.41h-2.63v3.89h10.07v-3.89h-2.63v-7.1h7.1v-4.24h-7.1V4.24h7.44v2.98h4.01V.34s-18.89,0-18.89,0Zm-62.28,12.94l2.63-8.24h.11l2.4,8.24h-5.15Zm12.25,8.13l-5.61-17.17h2.4V.34h-12.94v3.89h2.4l-5.84,16.94h-1.66v3.89h8.59v-3.89h-2.29l1.26-4.24h7.1l1.26,4.24h-1.95v3.89h8.93v-3.89c0,.23-1.66,.23-1.66,.23ZM98,.34v3.89h2.52V21.41h-2.52v3.89h18.66v-7.9h-4.01v4.01h-7.33v-7.1h6.64v-4.24h-6.64V4.24h7.33v2.98h4.01V.34s-18.66,0-18.66,0Zm23.01,0v3.89h2.63V21.41h-2.63v3.89h10.07v-3.89h-2.63v-7.1h7.33v-4.24h-7.33V4.24h7.44v2.98h4.12V.34s-19,0-19,0Z"/>
</svg>
