<svg xmlns="http://www.w3.org/2000/svg" viewBox="0 0 250 39.9" width="250" height="39.9">
  <defs>
    <style>
      .cls-1 {
        fill: #999;
      }

      .cls-2 {
        fill: #666;
      }
    </style>
  </defs>
  <path class="cls-2" d="M73.64,3.1c.52-1.4-.04-1.88-1.05-2.31-1.09-.44-2.83-.79-4.45-.79-4.85,0-9.74,2.79-9.74,9.08v.41h-1.79c-1.27,0-2.01,.7-2.01,2.01v1.49c0,1.27,.74,2.01,2.01,2.01h1.79v14.6c0,1.27,.7,2.01,1.96,2.01h3.62c1.27,0,1.96-.74,1.96-2.01V14.99h3.93c1.27,0,2.01-.74,2.01-2.01v-1.49c0-1.31-.74-2.01-2.01-2.01h-3.93v-.41c0-2.23,1.49-3.32,3.19-3.32,.52,0,1.09,.13,1.57,.3,1.22,.35,1.74,.04,2.18-1.05l.74-1.92h0Zm15.1,8.54c.35-1.27-.35-1.62-1.09-1.88-.81-.28-1.37-.39-2.74-.48-1.67-.11-2.64,.48-3.59,1.57-.16-.78-.85-1.37-1.68-1.37h-4.14c-.94,.01-1.69,.78-1.69,1.72V29.58c0,1.27,.7,2.01,1.96,2.01h3.62c1.27,0,1.96-.74,1.96-2.01v-9.82c0-2.57,.97-4.09,2.45-4.12,.74-.01,1.57,.22,2.27,.44,.74,.3,1.49,.04,1.83-1.18l.83-3.27h0Zm23.11,8.57c0-3.01-1.18-5.89-3.19-7.9-1.88-1.88-4.76-3.1-8.25-3.1-6.85,0-11.74,4.85-11.74,11.44s5.1,11.52,12.09,11.52c3.45,0,6.7-1.13,8.66-3.23,.52-.57,.87-1.31-.09-2.23l-1.57-1.7c-.83-.87-1.49-.57-2.27,.04-1.57,1.09-2.3,1.62-3.87,1.62-2.88,0-5.32-1.45-5.68-4.37h13.88c1.62,0,2.01-.57,2.01-2.09h0Zm-15.84-2.18c.35-2.34,2.03-3.63,4.23-3.63,1.27,0,2.59,.44,3.37,1.22,.61,.61,1.09,1.31,1.3,2.41h-8.91Zm81.28,11.55v-10.86c0-5.8-3.75-9.51-9.08-9.51-2.34,0-4.14,.78-5.5,2,0-.95-.77-1.72-1.72-1.72h-4.12c-.95,0-1.72,.77-1.72,1.72V29.59c0,1.27,.7,2.01,1.96,2.01h3.62c1.27,0,1.96-.74,1.96-2.01v-10.3c0-2.18,1.35-3.67,3.53-3.67s3.45,1.49,3.45,3.67v10.3c0,1.27,.74,2.01,2.01,2.01h3.58c1.27,0,2.01-.74,2.01-2.01h0Zm24.4-20.1h-4.11c-.82,0-1.49,.57-1.67,1.33-1.61-1.01-3.5-1.61-5.61-1.61-6.34,0-10.93,5.03-10.93,11.5s4.64,11.5,10.93,11.5c2.23,0,4.12-.68,5.65-1.79,.22,.69,.87,1.18,1.63,1.18h4.11c.95,0,1.72-.77,1.72-1.72V11.21c0-.95-.77-1.72-1.72-1.72h0Zm-10.17,16.24c-2.76,0-4.68-2.19-4.68-5.03s1.92-5.03,4.68-5.03,4.68,1.97,4.68,5.03-2.1,5.03-4.68,5.03Zm28.21-16.53c-2.09,0-3.98,.61-5.59,1.61-.18-.76-.86-1.33-1.67-1.33h-4.12c-.95,0-1.72,.77-1.72,1.72v26.67c0,1.27,.7,2.01,1.96,2.01h3.62c1.27,0,1.96-.74,1.96-2.01v-7.29c1.57,1,3.45,1.57,5.54,1.57,6.33,0,10.91-5.06,10.91-11.48s-4.63-11.48-10.91-11.48Zm-1.27,16.49c-2.62,0-4.67-1.96-4.67-5.02s2.05-5.02,4.67-5.02c2.79,0,4.72,2.18,4.72,5.02s-1.92,5.02-4.72,5.02ZM248.76,.79c-1.09-.44-2.84-.79-4.45-.79-4.85,0-9.73,2.79-9.73,9.08v.41h-1.79c-1.27,0-2.01,.7-2.01,2.01v1.49c0,1.27,.74,2.01,2.01,2.01h1.79v14.6c0,1.27,.7,2.01,1.96,2.01h3.62c1.27,0,1.96-.74,1.96-2.01V14.99h3.93c1.27,0,2.01-.74,2.01-2.01v-1.49c0-1.31-.74-2.01-2.01-2.01h-3.93v-.41c0-2.23,1.48-3.32,3.19-3.32,.53,0,1.09,.13,1.57,.3,1.22,.35,1.74,.04,2.18-1.05l.74-1.92c.52-1.4-.04-1.88-1.05-2.31h0ZM120.68,15.78c0-.7,.66-.99,1.8-.96,1.93,.05,2.82,.52,4.22,1.35,1.12,.66,2.08,.65,2.83-.31l1.01-1.28c1.05-1.31,.92-2.13-.08-3-1.53-1.31-4.92-2.4-8.16-2.4-5.46,0-8.88,2.66-8.88,6.89,0,4.63,3.91,5.9,8.18,7.21,1.41,.43,2.84,.96,2.75,2.01-.07,.79-.89,1.07-2.04,1.05-2.24-.04-3.69-.91-5.21-1.88-.98-.62-1.92-1-2.92,.22l-1.25,1.49c-1.05,1.18-.83,2.01,.17,2.92,1.74,1.62,5.32,3.14,9.16,3.14,5.46,0,9.43-2.57,9.43-6.98,0-3.8-2.52-5.49-6.46-7.07-2.72-1.09-4.54-1.29-4.54-2.38h0Zm20.97,0c0-.7,.66-.99,1.8-.96,1.93,.05,2.82,.52,4.22,1.35,1.12,.66,2.08,.65,2.83-.31l1-1.28c1.05-1.31,.92-2.13-.08-3-1.53-1.31-4.92-2.4-8.16-2.4-5.46,0-8.88,2.66-8.88,6.89,0,4.63,3.91,5.9,8.18,7.21,1.41,.43,2.84,.96,2.75,2.01-.07,.79-.89,1.07-2.05,1.05-2.24-.04-3.69-.91-5.21-1.88-.98-.62-1.92-1-2.92,.22l-1.25,1.49c-1.05,1.18-.83,2.01,.17,2.92,1.74,1.62,5.32,3.14,9.16,3.14,5.46,0,9.43-2.57,9.43-6.98,0-3.8-2.52-5.49-6.46-7.07-2.72-1.09-4.55-1.29-4.55-2.38h0ZM7.48,5.17c-.63-.25-1.28-.37-1.93-.37-1.22,0-2.48,.42-3.77,1.26C.16,7.12-.45,9.14,.35,10.88c.6,1.31,1.49,2.29,2.66,2.92,1.52,.81,3.49,1,5.82,.54,1.26-.25,2.3-1.11,2.79-2.31,.49-1.2,.34-2.55-.39-3.61-1.13-1.63-2.39-2.72-3.75-3.25h0Zm18.65,0c-.4,1.19-.17,2.5,.61,3.5,.65,.82,1.61,1.34,2.64,1.42,.2,.01,.41,.01,.61,0,2.32-.21,4.12-.91,5.33-2.09,.93-.91,1.5-2.07,1.71-3.47,.27-1.85-.84-3.59-2.65-4.14-.83-.25-1.6-.37-2.33-.37-1.24,0-2.34,.36-3.28,1.08-1.13,.87-2.02,2.24-2.65,4.08h0Z"/>
  <path class="cls-1" d="M29.27,31.95c-3.15,2.49-5.23,1.38-5.25,1.36,0,0-.14,.26-.16,.29-.28,.5-.58,.97-.92,1.41,1.02,1.28,3.33,2.67,6.08,2.78,1.78,.02,3.96-.06,4.57-1.52l.03-.07c1.22-3.04-.42-7.07-4.35-4.25h0Z"/>
  <path class="cls-2" d="M44.37,24.9c-.37-.71-1.13-1.16-1.82-1.51-.77-.38-1.75-.38-2.69,0-1.03,.42-1.82,1.22-2.13,2.13-.05,.13-1.26,3.11-4.67,4.01-1.97,.52-3.75-.26-5.44-2.37-.54-.67-1.01-1.45-1.4-2.34l-.05-.12s.47-.41,.63-.59c1.6-1.47,2.61-4.22,1.54-6.29-.71-1.37-2.06-1.62-3.15-1.69-1.48-.09-2.77,.1-4.08,.6l-.26,.08c-1.67,.43-3.27,.87-4.44,1.5h-.02c-.36,.15-.56,.29-.91,.58-.17,.12-.52,.48-.6,.56-.22,.25-.39,.48-.51,.72-.49,.79-.12,1.91,.06,2.35,.41,.98,.93,1.66,1.62,2.09l.02,.02c.3,.27,.64,.5,1,.69,.22,.13,.44,.24,.66,.33,.33,.16,.68,.3,1.03,.41l.13,.04v.14c-.06,.93-.21,1.81-.46,2.6-.89,2.85-1.78,3.51-3.56,3.98-3.52,.92-5.41-.86-6.32-1.71-.16-.15-.29-.27-.39-.34-.95-.7-1.98-1.36-2.96-1.36-.66,0-1.3,.3-1.88,1.08-.99,1.33-1.6,3.29-.35,4.77,.16,.19,3.94,4.63,9.94,4.63,.77,0,1.55-.08,2.33-.22,.12-.02,.23-.04,.35-.07,3.08-.67,5.59-2.24,7.35-4.59,.33-.44,.64-.91,.92-1.41,.02-.03,.16-.28,.16-.29,.02,.02,2.1,1.13,5.25-1.36,3.93-2.82,5.56,1.21,4.35,4.25,.19-.02,.81-.12,.92-.14,3-.57,5.64-2.19,7.61-4.7,1.46-1.85,2.09-3.56,2.2-3.88,.37-1.09,.38-1.91,.03-2.59h0Z"/>
</svg>
