<svg xmlns="http://www.w3.org/2000/svg" viewBox="0 0 200 53.61" width="200" height="53.61">
  <defs>
    <style>
      .cls-1{fill:#666}
    </style>
  </defs>
  <path d="M178.7 16.8h-11.23c-1.27.12-1.45.92-1.5 1.29v17.24c.05.37.28 1.35 1.55 1.47h11.17c1.27-.12 1.41-1.11 1.46-1.47V18.09c-.05-.37-.18-1.16-1.46-1.29Zm-37.88-.02h-11.96v6.47h11.94c1.28 0 1.46-.62 1.46-1.34v-3.59c0-.59.01-1.55-1.44-1.55Z" class="cls-1"/>
  <path d="M0 0v53.61h199.99V0H0Zm51.55 43.3H41.24V22.58L34.33 43.3h-6.75l-6.96-20.72V43.3H10.31V10.31h13.92l6.7 16.49 6.7-16.49h13.92V43.3Zm31.28 0H55.67V10.31h26.81v6.49H66.02v6.45h16.47v6.48H66.02v7.07h16.83v6.5Zm32.62-26.49h-9.8v26.5H95.34V16.8h-9.8v-6.5h29.9v6.5Zm36.08 7.63c0 3.59-3.21 5.78-6.42 6.04h-1.57l7.98 12.83h-11.86l-6.7-12.83h-4.1v12.83h-10.31V10.3h26.52c3.3.27 6.09 2.28 6.47 5.99v8.14Zm38.92 12.89c-.37 3.73-3.15 5.71-6.44 5.98H162.1c-3.29-.27-6.07-2.25-6.44-5.98V15.98c.37-3.73 3.15-5.4 6.44-5.67h21.91c3.29.27 6.07 1.94 6.44 5.67v21.34Z" class="cls-1"/>
</svg>
