<svg xmlns="http://www.w3.org/2000/svg" viewBox="0 0 177.57 59.18" width="177.57" height="59.18">
  <defs>
    <style>
      .cls-1 {
        fill: #999;
      }

      .cls-2 {
        fill: #666;
      }
    </style>
  </defs>
  <path class="cls-1" d="M147.25,11.1l11.09,19.22,19.22-11.1L166.47,0l-19.22,11.1h0Zm13.29,11.03l-5.11-8.85,8.85-5.11,5.11,8.85-8.85,5.11Z"/>
  <path class="cls-2" d="M23.23,49.89h-5.84v-2.45c-1.44,1.78-3.6,3.03-6.64,3.03-6.12,0-10.75-5.02-10.75-11.68s4.63-11.68,10.75-11.68c3.04,0,5.18,1.24,6.64,3.04l1.51-2.45h4.34v22.2h0ZM6.12,38.78c0,3.39,2.22,6.12,5.73,6.12s5.73-2.62,5.73-6.12-2.31-6.12-5.73-6.12-5.73,2.73-5.73,6.12M62.19,20.43c0,2.16-1.67,3.8-3.83,3.8s-3.8-1.65-3.8-3.8,1.65-3.85,3.8-3.85,3.83,1.7,3.83,3.85m-.8,29.47h-5.98V27.69h5.98v22.2Zm28.42-11.11c0,6.66-4.63,11.68-10.75,11.68-2.98,0-5.09-1.16-6.53-2.89v11.4h-5.96V27.69h4.33l1.51,2.45c1.44-1.81,3.58-3.04,6.62-3.04,6.14,0,10.77,5.02,10.77,11.68m-17.57,0c0,3.5,2.32,6.12,5.71,6.12s5.73-2.73,5.73-6.12-2.2-6.12-5.73-6.12-5.71,2.62-5.71,6.12m21.63-21.88h5.98V49.89h-5.98V16.9Zm33.21,32.99h-5.84v-2.45c-1.44,1.78-3.6,3.03-6.64,3.03-6.12,0-10.75-5.02-10.75-11.68s4.63-11.68,10.75-11.68c3.04,0,5.17,1.24,6.64,3.04l1.5-2.45h4.34v22.2h0Zm-17.11-11.11c0,3.39,2.22,6.12,5.73,6.12s5.73-2.62,5.73-6.12-2.31-6.12-5.73-6.12-5.73,2.73-5.73,6.12m43.27-3.03v14.14h-5.98v-12.21c0-3.21-1.6-4.97-4.33-4.97-2.57,0-4.7,1.67-4.7,5.02v12.17h-5.98V27.69h4.31l1.5,2.62c1.58-2.36,4.01-3.21,6.53-3.21,5.04,0,8.64,3.5,8.64,8.66M45.86,27.69l-1.5,2.47c-1.51-1.88-3.78-3.07-6.87-3.07-5.41,0-10.22,4.51-10.22,11.34s4.81,11.32,10.22,11.32c3.07,0,5.32-1.15,6.82-3v1.25c0,3.83-2.62,5.89-6.32,5.89-2.33,0-4.35-.53-6.35-1.67l-2.65,4.58c2.49,1.62,5.9,2.38,9.26,2.38,7.33,0,11.98-4.3,11.98-11.44V27.69h-4.37Zm-6.86,16.56c-3.42,0-5.59-2.62-5.59-5.82s2.18-5.84,5.59-5.84,5.56,2.52,5.56,5.84-2.24,5.82-5.56,5.82"/>
</svg>
