<svg xmlns="http://www.w3.org/2000/svg" viewBox="0 0 300 300" width="300" height="300">
  <defs>
    <style>
      .cls-2{fill:#666}
    </style>
  </defs>
  <path d="M92.28 134.39c4.76-.9 8.47-4.41 7.57-9.02-1.4-7.32-13.28-5.16-14.08-9.32-.4-1.95.2-3.66 1.35-3.86 1.55-.3 2.91 1.65 3.46 3.81.25 1 1.05 1.4 1.8 1.25 2.51-.5 3.91-2.86 3.56-4.61-.7-3.71-3.01-7.62-8.92-6.46-6.16 1.2-8.82 7.06-7.82 12.13 1.65 8.42 14.38 6.46 14.83 8.82.1.6-.15 1-1.2 1.2-3.16.6-7.77-1.7-9.47-1.35-1.15.2-1.85 2.61-1.35 5.11.3 1.75 4.21 3.51 10.27 2.3Zm7.37-23.4c.85-.15 1.8-.4 2.71-.6 1.3 7.57 3.56 17.79 4.16 19.49.35 1 2 1.1 3.91.75 0 .3 0 .65.05 1 .3 1.45 1.5 2.56 3.41 2.15 1.65-.3 2.51-1.75 2.1-3.86-.2-1.1-1.15-2.51-3.01-2.15-.15.05-.3.1-.5.15-.2-2.2-1.9-13.28-3.31-19.59.35-.1.75-.25 1.05-.35 2.81-1.1 3.56-1.7 3.41-2.66-.4-2-2.91-3.71-5.61-3.21-3.96.75-8.57 2.3-10.17 3.11-1.55.75-1.65 1.7-1.5 2.46.2.8 1.8 3.61 3.31 3.31Zm18.04 5.51c1.8 9.37 5.61 11.77 11.77 10.57 6.26-1.2 8.57-5.11 6.26-16.93-.7-3.71-1.8-8.32-2.61-10.67-.4-1.2-2.96-1.55-4.61-1.25-1.1.2-1.8.65-1.7 1.65.6 4.21 2.51 13.88 2.86 15.88.85 4.46 0 5.41-1.4 5.66s-2.51-.25-3.46-5.16c-.45-2.35-1.25-7.52-1.95-11.22-.3-1.65-.65-3.06-.9-3.71-.45-1.3-2.86-1.35-4.51-1-1.45.3-2.15.8-2 1.95.35 2.81 1.1 8.27 2.25 14.23Zm21.29-13.18c1.3 7.47 3.56 17.84 4.16 19.44.4 1.15 3.31 1 6.46.4 8.87-1.7 10.97-7.26 9.17-16.68-2.1-10.87-5.66-13.33-13.03-11.87-5.66 1.1-9.82 3.26-9.52 4.76.25 1.2 1.65 3.61 2.76 3.96Zm8.77-2.81c2-.4 3.41 1.55 4.46 7.11 1.25 6.41.5 10.07-3.16 10.77l-.15.05c-.6-4.26-1.95-12.43-3.06-17.34.65-.3 1.3-.5 1.9-.6Zm17.74 17.89c.4 1.1 2.25 1.1 4.36.7 1.6-.3 1.85-1.15 1.7-2.51-.2-2.4-3.01-20.59-4.56-24.2-.45-1.1-3.36-.95-4.71-.65-1.5.3-1.85 1-1.75 1.95.85 7.06 4.21 22.7 4.96 24.7Zm21.24-2.46c6.81-1.3 7.72-8.47 5.91-17.69-1.8-9.22-6.56-11.37-12.13-10.32-6.26 1.2-8.97 8.47-7.01 18.54 1.25 6.46 5.31 11.02 13.23 9.47Zm-5.16-21.79c1.55-.3 3.26.55 4.11 5.06 1.2 6.21.6 10.27-1.55 10.67-1.5.3-3.26-1.45-4.11-5.81-1.2-6.26-.2-9.57 1.55-9.92Zm-83.22 73.4c8.02-1.55 10.12-6.31 9.32-10.22-.45-2.4-2.25-4.16-5.26-4.61 2.2-2.2 3.56-5.36 2.86-8.82-.75-3.91-4.36-6.51-11.07-5.21-6.91 1.35-10.92 3.56-10.57 5.31.15.8 1.9 3.66 3.86 3.31.05 0 .1 0 .25-.05.95 7.11 3.06 16.48 3.61 18.64.5 1.45 3.61 2.3 7.01 1.65Zm2.86-8.77c.45 2.25-.6 4.06-3.16 4.56-.2.05-.6.05-1.05.1-.2-1.5-.55-3.56-.9-5.86.65-.15 1.2-.3 1.7-.4 2.35-.5 3.11.05 3.41 1.6Zm-5.56-13.73c2.4-.45 3.06.4 3.31 1.85.35 1.9.05 4.31-.5 5.91-.25.05-.45.1-.7.15-.75.15-1.55.35-2.4.6-.5-2.91-1.1-5.86-1.5-8.07.6-.2 1.25-.35 1.8-.45Zm19.79-8.07c-.45-1.3-2.86-1.35-4.51-1-1.45.3-2.15.8-2 1.95.4 2.86 1.15 8.32 2.3 14.28 1.8 9.32 5.61 11.77 11.77 10.57 6.26-1.2 8.57-5.11 6.26-16.93-.7-3.71-1.8-8.32-2.61-10.67-.4-1.2-2.96-1.55-4.61-1.25-1.1.2-1.8.65-1.7 1.65.6 4.21 2.51 13.88 2.86 15.88.85 4.46 0 5.41-1.4 5.66s-2.51-.25-3.46-5.16c-.45-2.35-1.25-7.52-1.95-11.22-.35-1.65-.65-3.06-.95-3.76Zm4.95-3.46c1.7-.35 2.66-1.75 2.25-3.81-.2-1.05-1.15-2.35-3.11-1.95-1.75.35-2.66 1.9-2.3 3.61.3 1.35 1.45 2.46 3.16 2.15Zm27.46 23.7c.4 1.1 2.25 1.1 4.36.7 1.6-.3 1.85-1.15 1.7-2.51-.2-2.4-3.01-20.59-4.56-24.2-.45-1.1-3.36-.95-4.71-.65-1.5.3-1.85 1-1.75 1.95.4 3.06 1.2 7.72 2.1 12.18-1.05.2-2.61.55-4.26.95-.9-5.16-2-10.42-2.71-12.18-.45-1.1-3.36-.95-4.71-.65-1.5.3-1.85 1-1.75 1.95.4 3.26 1.3 8.27 2.25 12.93-.35.15-.7.25-.95.4-.35.15-.45.55-.3 1.2.2 1.15 1.25 2.71 2.25 3.06.75 3.56 1.45 6.31 1.75 7.11.4 1.1 2.25 1.1 4.36.7 1.6-.3 1.85-1.15 1.7-2.51-.1-.85-.45-3.61-1-6.96 1.7-.55 3.31-1.05 4.41-1.45.75 3.86 1.5 7.11 1.8 7.97Zm24.35-4.61c1.3 1.1 3.61.7 4.61.5 1.05-.2 1.4-1.05 1.3-1.95-.2-2-1.8-12.98-3.11-19.84-.4-1.95-.7-3.56-1-4.56-.4-1.25-3.16-1.45-5.01-1.1-1.3.25-1.55 1.05-1.35 2 .35 1.7 1.95 7.72 4.21 15.53-3.31-5.51-8.72-12.88-10.77-14.58-1.15-.95-3.51-.75-4.71-.5-1.15.2-1.35 1.15-1.25 2.76.15 2.3 1.65 11.62 2.86 17.84.6 3.01 1.1 5.31 1.3 5.81.7 1.35 3.36 1.25 4.46 1.05 1.1-.2 1.6-.9 1.4-2.1-.25-1.2-2.4-9.72-4.01-15.78 3.06 5.86 8.07 12.43 11.07 14.93Zm24.5-9.72c-1.85.35-4.26 1.1-6.71 1.8-.2-1.45-.5-3.21-.75-5.06 2.76-.6 5.91-1.3 6.86-1.65.95-.3 1.2-.8.95-2.15-.25-1.3-2.15-2.61-3.41-2.4-1.05.2-3.11.75-5.21 1.55-.35-2.05-.75-4.06-1.15-5.81 2.2-.6 4.31-1.3 5.91-1.9 2.86-1.1 3.61-1.85 3.46-2.86-.35-1.9-2.91-3.51-5.66-2.96-4.21.8-9.17 2.3-10.82 3.16-1.55.75-1.65 1.7-1.5 2.46.1.55.8 2.05 1.55 2.96 1.15 7.52 3.41 18.29 3.91 19.34.65 1.35 3.81 1.75 5.31 1.45 5.41-1.05 9.37-2.3 10.42-2.66 2.51-.95-1.15-5.66-3.16-5.26Zm-87.38 51.41c-1.85.35-4.26 1.1-6.71 1.8-.2-1.45-.5-3.21-.75-5.06 2.76-.6 5.91-1.3 6.86-1.65.95-.3 1.2-.8.95-2.15-.25-1.3-2.15-2.61-3.41-2.4-1.05.2-3.11.75-5.21 1.55-.35-2.05-.75-4.06-1.15-5.81 2.2-.6 4.31-1.3 5.91-1.9 2.86-1.1 3.61-1.85 3.46-2.86-.35-1.9-2.91-3.51-5.66-2.96-4.21.8-9.17 2.3-10.82 3.16-1.55.75-1.65 1.7-1.5 2.46.1.55.8 2.05 1.55 2.96 1.15 7.52 3.41 18.29 3.91 19.34.65 1.35 3.81 1.75 5.31 1.45 5.41-1.05 9.37-2.3 10.42-2.66 2.51-.95-1.1-5.66-3.16-5.26Zm9.87-14.93c-.4-1.95.2-3.66 1.35-3.86 1.55-.3 2.91 1.65 3.46 3.81.25 1 1.05 1.4 1.8 1.25 2.51-.5 3.91-2.86 3.56-4.61-.7-3.71-3.01-7.62-8.92-6.46-6.16 1.2-8.82 7.06-7.82 12.13 1.65 8.42 14.38 6.46 14.83 8.82.1.6-.15 1-1.2 1.2-3.16.6-7.77-1.7-9.47-1.35-1.15.2-1.85 2.61-1.35 5.11.35 1.75 4.26 3.51 10.32 2.3 4.76-.9 8.47-4.41 7.57-9.02-1.45-7.32-13.28-5.21-14.13-9.32Zm20.99-4.11c-.4-1.95.2-3.66 1.35-3.86 1.55-.3 2.91 1.65 3.46 3.81.25 1 1.05 1.4 1.8 1.25 2.51-.5 3.91-2.86 3.56-4.61-.7-3.71-3.01-7.62-8.92-6.46-6.16 1.2-8.82 7.06-7.82 12.13 1.65 8.42 14.38 6.46 14.83 8.82.1.6-.15 1-1.2 1.2-3.16.6-7.77-1.7-9.47-1.35-1.15.2-1.85 2.61-1.35 5.11.35 1.75 4.26 3.51 10.32 2.3 4.76-.9 8.47-4.41 7.57-9.02-1.45-7.32-13.33-5.16-14.13-9.32Zm30.81 7.01c-1.85.35-4.26 1.1-6.71 1.8-.2-1.45-.5-3.21-.75-5.06 2.76-.6 5.91-1.3 6.86-1.65.9-.3 1.2-.8.95-2.15-.25-1.3-2.15-2.61-3.41-2.4-1.05.2-3.11.75-5.21 1.55-.35-2.05-.75-4.06-1.15-5.81 2.2-.6 4.31-1.3 5.91-1.9 2.86-1.1 3.61-1.85 3.46-2.86-.35-1.9-2.91-3.51-5.66-2.96-4.21.8-9.17 2.3-10.82 3.16-1.55.75-1.65 1.7-1.5 2.46.1.55.8 2.05 1.55 2.96 1.15 7.52 3.41 18.29 3.91 19.34.65 1.35 3.81 1.75 5.31 1.45 5.41-1.05 9.37-2.3 10.42-2.66 2.46-.9-1.15-5.61-3.16-5.26Zm22.1-20.04c-.4-1.95-.7-3.56-1-4.56-.4-1.25-3.16-1.45-5.01-1.1-1.3.25-1.55 1.05-1.35 2 .35 1.7 1.95 7.72 4.21 15.53-3.31-5.51-8.72-12.88-10.77-14.58-1.15-.95-3.51-.75-4.71-.5-1.15.2-1.35 1.15-1.25 2.76.15 2.3 1.65 11.62 2.86 17.84.6 3.01 1.1 5.31 1.3 5.81.7 1.35 3.36 1.25 4.46 1.05s1.6-.9 1.4-2.1c-.25-1.2-2.4-9.72-4.01-15.78 3.11 5.81 8.12 12.38 11.12 14.88 1.3 1.1 3.61.7 4.61.5 1.05-.2 1.4-1.05 1.3-1.95-.2-2-1.85-12.93-3.16-19.79Zm19.69 10.27c2.46.35 2.96-2.96 3.11-8.42.35-7.77 1.3-34.47 1.3-54.71 0-5.61-.15-10.72-.5-14.53-.35-4.61-4.61-6.11-6.61-6.11-2.15 0-2.96 2.46-3.11 6.11-.8 31.97.85 61.98 1.35 71.7.15 4.51 1.35 5.66 4.46 5.96Zm.35 10.87c-5.76 0-9.42 3.81-9.42 9.07 0 4.11 2.96 7.77 8.57 7.77 5.26 0 8.72-3.46 8.72-9.42.05-3.26-1.8-7.42-7.87-7.42Z" class="cls-2"/>
</svg>
