<svg xmlns="http://www.w3.org/2000/svg" viewBox="0 0 300 300" width="300" height="300">
  <defs>
    <style>
      .cls-2{fill:#666}
    </style>
  </defs>
  <path d="m180.3 154.86 8.47-23.56h-4l-5.48 16.82-6.65-16.82h-2.11l-6.62 16.82-5.48-16.82h-4l8.47 23.56h2.11l6.6-16.17 6.62 16.17h2.06Zm15.4 0H211v-3.44h-11.68v-6.74h7.91v-3.44h-7.91v-6.48h11.18v-3.46h-14.81v23.56Zm37.79-7.02c0 1-.31 1.84-.94 2.54-.62.69-1.73 1.04-3.32 1.04h-6.32v-6.74h6.32c1.53 0 2.62.28 3.28.84.65.56.98 1.33.98 2.32Zm-1.05-9.9c0 .78-.27 1.54-.8 2.27s-1.61 1.1-3.25 1.1h-5.48v-6.55h5.48c1.75 0 2.86.34 3.33 1.02.48.68.71 1.4.71 2.16Zm.05 4.7c1.08-.37 1.91-1.01 2.52-1.91s.9-1.98.9-3.24c0-.62-.1-1.29-.29-2.01s-.58-1.38-1.15-2c-.57-.62-1.37-1.13-2.4-1.53s-2.39-.61-4.07-.61h-8.73v23.56h9.2c1.59 0 2.93-.17 4.01-.52s1.96-.81 2.62-1.4 1.14-1.29 1.43-2.09c.29-.8.43-1.67.43-2.61 0-.72-.1-1.39-.3-2.02-.2-.63-.5-1.19-.88-1.68s-.85-.9-1.39-1.24-1.16-.57-1.85-.71l-.05.02Zm12.33 12.21h15.28v-3.44h-11.68v-6.74h7.91v-3.44h-7.91v-6.48h11.18v-3.46h-14.79v23.56Zm-164.07-9.01c.81-.28 1.55-.65 2.22-1.11.67-.46 1.25-.99 1.74-1.59.49-.6.87-1.26 1.14-1.98.27-.72.4-1.48.4-2.29 0-1.15-.23-2.2-.68-3.15s-1.09-1.75-1.92-2.43c-.83-.68-1.82-1.2-2.97-1.57-1.15-.37-2.44-.55-3.86-.55h-7.89v23.52h3.58v-8.1h3.53l6.69 8.14h4.49l-7.18-8.63c.2-.06.37-.12.5-.18l.2-.08Zm2.01-6.97c0 1.03-.23 1.84-.69 2.42-.46.58-1.01 1.03-1.64 1.32-.63.3-1.26.48-1.9.56-.63.08-1.11.12-1.44.12h-4.47v-8.8h4.47c2.12 0 3.6.47 4.42 1.4.83.94 1.24 1.93 1.24 2.97Zm-54.12 5.69h4.82v.68c0 .97-.21 1.84-.64 2.63s-.99 1.46-1.7 2.02c-.7.56-1.49.99-2.38 1.3-.88.3-1.77.46-2.66.46-1.01 0-2.05-.24-3.1-.71-1.05-.48-1.99-1.13-2.82-1.95-.8-.8-1.4-1.7-1.81-2.71-.41-1.01-.62-2.07-.62-3.16 0-1.22.22-2.36.67-3.42.44-1.06 1.05-1.99 1.83-2.78.77-.8 1.68-1.42 2.73-1.88s2.16-.69 3.35-.69c1.15 0 2.22.18 3.18.55.97.37 1.88.92 2.74 1.65l.07.07 2.15-2.6-.05-.02c-.56-.51-1.15-.96-1.78-1.35-.62-.38-1.27-.7-1.94-.96-.67-.26-1.37-.45-2.09-.58-.73-.13-1.48-.2-2.26-.2-1.7 0-3.3.32-4.8.95-1.5.63-2.81 1.5-3.93 2.6s-2.01 2.39-2.66 3.86c-.65 1.47-.97 3.05-.97 4.71s.33 3.19.98 4.64 1.54 2.74 2.64 3.84c1.11 1.1 2.4 1.97 3.88 2.62 1.48.65 3.05.97 4.7.97.83 0 1.65-.09 2.46-.26s1.59-.43 2.33-.77 1.44-.76 2.11-1.24 1.25-1.04 1.77-1.66c1.01-1.17 1.67-2.35 1.97-3.54s.45-2.32.47-3.38v-3.11h-8.63v3.44Zm104.19-13.38-6.36 11.11-6.36-11.11h-4.14l8.68 15.56v8h3.65v-8l8.68-15.56h-4.14Zm-87.25 0v23.56h15.3v-3.44H49.2v-6.74h7.93v-3.44H49.2v-6.53h11.18v-3.42H45.57Zm60.35 14.67c.81-.28 1.55-.65 2.22-1.11.67-.46 1.25-.99 1.74-1.59.49-.6.87-1.26 1.14-1.98.27-.72.4-1.48.4-2.29 0-1.15-.23-2.2-.68-3.15s-1.09-1.75-1.92-2.43c-.83-.68-1.82-1.2-2.97-1.57-1.15-.37-2.44-.55-3.86-.55h-7.89v23.52h3.58v-8.1h3.56l6.69 8.14h4.52l-7.18-8.63c.19-.06.34-.12.47-.18l.19-.08Zm2.01-6.97c0 1.03-.23 1.84-.69 2.42-.46.58-1.01 1.03-1.64 1.32-.63.3-1.26.48-1.9.56-.63.08-1.11.12-1.44.12H97.8v-8.8h4.47c2.12 0 3.6.47 4.42 1.4.83.94 1.24 1.93 1.24 2.97Zm171.58 6.97c.81-.28 1.56-.65 2.23-1.11s1.26-.99 1.74-1.59c.48-.6.86-1.26 1.14-1.98.27-.72.41-1.48.41-2.29 0-1.15-.23-2.2-.68-3.15s-1.09-1.75-1.92-2.43c-.83-.68-1.82-1.2-2.98-1.57-1.16-.37-2.45-.55-3.87-.55h-7.86v23.52h3.56v-8.1h3.58l6.69 8.1h4.49l-7.18-8.63c.17-.05.32-.09.46-.14l.2-.07Zm2.04-6.97c0 1.03-.23 1.84-.7 2.42-.47.58-1.01 1.03-1.64 1.32-.62.3-1.26.48-1.9.56-.64.08-1.12.12-1.45.12h-4.47v-8.8h4.47c1.06 0 1.95.13 2.67.39s1.3.6 1.74 1.02.77.89.97 1.42c.2.52.3 1.04.3 1.56Z" class="cls-2"/>
</svg>
