<svg xmlns="http://www.w3.org/2000/svg" viewBox="0 0 168 51.65" width="168" height="51.65">
  <defs>
    <style>
      .cls-1 {
        fill: #fff;
      }

      .cls-2 {
        fill: #999;
      }

      .cls-3 {
        fill: #666;
      }
    </style>
  </defs>
  <path class="cls-2" d="M75.02,0h92.98V51.65H75.02V0Z"/>
  <path class="cls-1" d="M100.5,11.6v5.28h-4.45v23.16h-5.63V16.88h-4.41v-5.28s14.49,0,14.49,0Zm13.49,0l6.83,28.44h-6l-1.05-4.79h-5.69l-1.05,4.79h-5.57l6.6-28.44s5.92,0,5.92,0Zm-2.49,11.62l-.64-4.31h-.07l-.61,4.31-1.21,7.58h3.96s-1.43-7.58-1.43-7.58Zm18.89-11.62v23.16h5.88v5.28h-11.5V11.6s5.62,0,5.62,0Zm15.57,0v12.72h.07l4.67-12.72h5.73l-5.24,13.14,5.92,15.31h-5.92l-5.17-14.48h-.07v14.48h-5.63V11.6s5.63,0,5.63,0Z"/>
  <path class="cls-3" d="M0,0H75.02V51.65H0V0Z"/>
  <path class="cls-1" d="M24.62,40.05h-2.82l-1.05-5.85h-6.05l-1.05,5.85h-2.83l5.59-28.44h2.5l5.72,28.44Zm-4.29-8.15l-1.89-10.9c-.34-1.92-.48-3.89-.71-5.81h-.15c-.27,1.92-.46,3.89-.76,5.81l-1.66,10.9s5.17,0,5.17,0Zm11.34,5.73h6.2v2.41h-8.83V11.6h2.64s0,26.03,0,26.03Zm10.59-26.03h2.89c5.44,0,8.98,.68,8.98,14.23,0,11.13-1.81,14.22-8.79,14.22h-3.08V11.6Zm2.65,26.03h.76c5.09,0,5.73-3.58,5.73-11.8,0-9.78-1.05-11.81-6.04-11.81h-.45v23.61Zm14.59-26.03h2.64v28.44h-2.64V11.6Z"/>
</svg>
