<svg xmlns="http://www.w3.org/2000/svg" viewBox="0 0 196 27.72" width="196" height="27.72">
  <path fill="#666" d="M0 22.1h26.51l-1.45 1.97H0zm0-3.66h29.2l-1.45 1.97H0zm0 7.32h23.82l-1.44 1.96H0zm196-1.69h-26.4l1.45-1.97h24.96v1.97Zm0 3.65h-29.09l1.44-1.96H196zm-22.26-9.28H196v1.97h-23.71zM25.67 27.72l12.58-17.09h15.61c1.73 0 1.7.65.86 1.8-.86 1.16-2.31 3.15-3.19 4.33-.44.6-1.24 1.69 1.41 1.69h20.91c-1.74 2.38-7.38 9.27-17.51 9.27zm72.04-9.28-6.82 9.27H72.9l6.82-9.27zm26.01 0-6.82 9.27H98.91l6.82-9.27zm5.85 0s-1.31 1.8-1.95 2.66c-2.26 3.05-.26 6.61 7.11 6.61h28.89l6.82-9.27z" class="cls-1"/>
  <path fill="#666" d="m34.47 0-6.26 8.51h34.13c1.72 0 1.7.65.86 1.8-.86 1.16-2.29 3.18-3.16 4.35-.44.6-1.24 1.69 1.41 1.69h13.96s2.25-3.06 4.14-5.62C82.1 7.24 79.76 0 70.58 0zm90.8 16.35H81.26L93.3 0h17.99l-6.9 9.37h8.03L119.31 0h17.98l-12.03 16.35ZM162.21 0l-12.03 16.35h-19.06S143.15 0 143.16 0z" class="cls-1"/>
</svg>
