<svg xmlns="http://www.w3.org/2000/svg" viewBox="0 0 200 53.61" width="200" height="53.61">
  <defs>
    <style>
      .cls-1 {
        fill: #666;
      }

      .cls-2 {
        fill: #fff;
      }
    </style>
  </defs>
  <path class="cls-1" d="M0,0H200V53.61H0V0Z"/>
  <path class="cls-2" d="M180.15,35.33c-.05,.37-.19,1.35-1.46,1.47h-11.17c-1.27-.12-1.5-1.11-1.55-1.47V18.09c.05-.37,.23-1.16,1.5-1.29h11.23c1.27,.12,1.41,.92,1.46,1.29v17.24h0Zm3.86-25.02h-21.91c-3.29,.27-6.07,1.94-6.44,5.67v21.34c.37,3.73,3.15,5.71,6.44,5.98h21.91c3.29-.27,6.07-2.25,6.44-5.98V15.98c-.37-3.73-3.15-5.4-6.44-5.67h0Zm-88.66,6.5h-9.8v-6.5h29.9v6.5h-9.8v26.5h-10.31V16.8h0Zm-12.89,0v-6.5h-26.81V43.29h27.16v-6.5s-16.82,0-16.82,0v-7.07h16.47v-6.48h-16.47v-6.45h16.46Zm59.79,5.12c0,.71-.18,1.34-1.46,1.34h-11.94v-6.47h11.96c1.46,0,1.44,.95,1.44,1.55v3.59h0Zm2.85,8.56c3.22-.26,6.43-2.45,6.43-6.04v-8.14c-.37-3.71-3.16-5.72-6.47-5.99h-26.52V43.3h10.31v-12.83h4.1l6.7,12.83h11.86l-7.98-12.83h1.57Zm-110.78,12.83l6.91-20.72v20.72h10.31V10.31h-13.92l-6.7,16.49-6.7-16.49H10.31V43.3h10.31V22.58l6.96,20.72h6.75Z"/>
</svg>
