<svg xmlns="http://www.w3.org/2000/svg" viewBox="0 0 300 300" width="300" height="300">
  <defs>
    <style>
      .cls-2{fill:#999}.cls-3{fill:#666}
    </style>
  </defs>
  <path d="m49.34 142.99 2.4-2.27h18.2v18.36l-2.65 2.68v-.19c0-10.05-7.98-18.24-17.95-18.57" class="cls-3"/>
  <path d="M64.98 161.47c0 1.12-.11 2.2-.33 3.25H45.5v-19.19c1.04-.21 2.11-.32 3.22-.32 8.98 0 16.26 7.28 16.26 16.26" class="cls-2"/>
  <path d="M188.17 144.5c.54-3 2.05-3.75 4.05-3.97 3.1-.34 11.42-.23 14.03.04 1.34.14 2.24.87 2.23 2.3-.01 1.21-.09 1.98-.31 3.48-.14.92-.75 1.37-1.46 1.43-.81.07-4.18-.03-4.18-.03s.07-.22.23-1.32c.06-.38.04-1.1-1.11-1.26-.81-.12-5.62-.19-6.85.1-.43.1-1.16.42-1.42 1.62-.55 2.52-1.41 10.27-1.69 11.79-.06 1.25.7 1.6 1.36 1.74 1.25.27 5.41.14 6.35.06 1.35-.11 1.41-1.24 1.47-1.51.38-1.86.6-3.55.6-3.55h-4.94l.42-3.39s.05-.39.29-.62c.42-.41.77-.35.77-.35s6.19.02 7.33.02c1.52 0 1.85 1.09 1.79 1.69-.05.6-.44 4.92-1.25 8.8-.49 2.33-2.1 3.18-4.89 3.31-2.23.11-8.58.22-11.34-.2-2.86-.43-3.89-2.37-3.68-4.23.39-3.42 1.54-12.2 2.21-15.94m-62.57 20.32c-1.51 0-3.68.04-3.68.04l3.03-22.69s.04-.32.25-.65c.08-.13.18-.25.32-.37.48-.4.99-.38.99-.38l4.16.02s-2.78 21.22-3.01 22.28-.55 1.75-2.06 1.75m49.17-18.39-4 8.53h5.08l-1.07-8.53Zm-14.6 18.38s9.98-21.36 10.67-22.69c.69-1.33 2.03-1.4 2.03-1.4l6.59.02 3.04 22.6s.15.58-.36 1.11c-.42.44-.97.4-.97.4l-3.99-.04-.69-5.09h-7.96l-1.77 3.74s-.24.52-.75.9c-.7.53-1.28.5-1.28.5l-4.55-.04m81.16-16.91c-.54-.27-.92-.65-.78-1.48.23-1.29 1.46-1.23 2.57-1.36 1.11-.13 3.57-.08 4.14-.03 1.69.16 2.07.59 1.9 1.58-.1.57-.3 1.59-.3 1.59l4.05.03c1.08-.11 1.24-1.28 1.24-1.28s.19-1.09.33-2.9c.16-2.12-1.92-3.31-3.8-3.42-1.67-.1-8.43-.34-10.86.06-3.23.53-3.71 1.81-4.09 3.43-.38 1.62-.6 2.7-.71 3.79-.17 1.69.29 2.36 2.4 3.55 2.15 1.22 7.59 4.42 8.68 5.09 1.64.99 1.01 2.74.32 3.4-.78.76-3.28.68-5.07.61-1.48-.05-2.33-.11-2.2-1.94.02-.31.41-2.72.41-2.72s-3.13-.21-3.61-.16-1.74 0-2.01 1.69c-.19 1.17-.27 1.9-.49 3.82-.19 1.63.97 3.2 3.26 3.42 4.4.42 12.01.69 13.91-.83 1.36-1.09 1.67-2.65 1.67-2.65s.34-1.37.61-3.32c.36-2.61-.07-3.76-2.47-5.11-3.5-1.96-9.11-4.85-9.11-4.85m-147.78-7.12H80.35s-.51-.02-.99.38c-.52.43-.55 1.04-.55 1.04L75.8 164.9l4.12.04s.58.03 1.11-.5c.38-.38.45-.9.45-.9l1.02-7.62h9.07c2.49 0 4.97-1.89 5.88-7.75.78-4.54-.62-7.16-3.88-7.37Zm-1.53 7.54c-.23 1.62-1.2 2.94-2.17 2.94h-6.74l.79-5.88h6.77c.97 0 1.57 1.32 1.35 2.94Zm28.11-1.59c.46-3.28-.62-5.96-3.38-5.95H102.7s-.51-.02-.99.38c-.52.43-.55 1.04-.55 1.04l-3.07 22.67 4.18.04s.58.03 1.11-.5c.38-.38.45-.9.45-.9l1.14-8.5h6.14c.11 0 .42.03.68.24.29.24.37.63.37.63l.45 8.98 5.65-.05-.56-9.8s-.05-.7-.72-1.52c-.32-.4-.99-.8-1.04-.83 1.91-.15 3.77-2.75 4.22-5.94Zm-6.21 1.36c-.23 1.5-1.25 2.71-2.25 2.71h-6.15l.73-5.42h6.28c1.01 0 1.64 1.21 1.4 2.71Zm39.66 16.82c1.13-.01 3.72-.04 3.72-.04l3.26-24.03-5.19-.02c-1.51.02-2.19.62-2.63 1.59-1.16 2.51-6.35 13.64-6.35 13.64l-3.98-15.28s-2.96.05-4.52.05c-.77 0-1.53.36-1.74 1.59-.21 1.23-3.16 22.44-3.16 22.44 0 .04 2.61 0 3.83 0 1.35 0 1.47-1.51 1.47-1.51l1.87-13.2s3.19 13.74 3.19 13.75c0 0 .06.37.31.62.35.35.73.35.76.35h2.05s.42 0 .91-.39c.36-.29.53-.69.53-.71l6.27-13.55-1.76 13.02s-.46 1.67 1.17 1.67m76.63-1.56-1.9-28.31-6.59-.02s-1.35.07-2.03 1.4c-.69 1.33-11.81 28.39-11.81 28.39l4.55.04s.57.03 1.28-.5c.51-.38.75-.9.75-.9l1.52-3.77h8.64l.27 5.12 3.99.04s.56.04.97-.4c.51-.53.36-1.11.36-1.11Zm-12.3-8.43 5.72-14.18.74 14.18h-6.46" class="cls-3"/>
</svg>
