<svg xmlns="http://www.w3.org/2000/svg" viewBox="0 0 300 300" width="300" height="300">
  <defs>
    <style>
      .cls-2{fill:#999}.cls-3{fill:#666}
    </style>
  </defs>
  <path d="M202.21 137.84c1.92 0 3.79.57 5.39 1.64 1.59 1.07 2.84 2.58 3.57 4.35.73 1.77.92 3.72.55 5.61-.38 1.88-1.3 3.61-2.66 4.97-1.36 1.36-3.09 2.28-4.97 2.66-1.88.38-3.83.19-5.61-.55-1.77-.73-3.29-1.98-4.35-3.57-1.07-1.59-1.64-3.47-1.64-5.39 0-2.57 1.03-5.04 2.84-6.86 1.83-1.81 4.29-2.84 6.87-2.84Zm0-7.13c-3.33 0-6.58.99-9.35 2.84-2.77 1.85-4.92 4.48-6.2 7.56-1.27 3.07-1.61 6.46-.96 9.73.65 3.26 2.25 6.26 4.61 8.62 2.35 2.35 5.35 3.96 8.62 4.61 3.26.65 6.65.31 9.73-.96 3.07-1.27 5.7-3.43 7.56-6.2 1.85-2.77 2.83-6.02 2.83-9.36 0-4.46-1.77-8.75-4.93-11.9-3.16-3.16-7.44-4.93-11.9-4.93Z" class="cls-3"/>
  <path d="M180.07 123.62h-7.08v7.08h7.08v-7.08Z" class="cls-2"/>
  <path d="M180.07 134.24h-7.08v28.31h7.08v-28.31Zm-12.38-10.62h-7.08v10.21c-2.83-2.02-6.25-3.13-9.77-3.13-3.33 0-6.58.99-9.35 2.84-2.77 1.85-4.92 4.48-6.2 7.56-1.27 3.07-1.61 6.46-.96 9.73.65 3.26 2.25 6.26 4.61 8.62 2.35 2.35 5.35 3.96 8.62 4.61 3.26.65 6.65.31 9.73-.96 3.07-1.27 5.7-3.43 7.56-6.2 1.69-2.53 2.66-5.48 2.81-8.51h.04v-24.77Zm-7.28 25.83c-.38 1.9-1.31 3.63-2.67 5-1.36 1.36-3.11 2.29-5 2.68-1.9.38-3.86.19-5.64-.55-1.79-.74-3.31-1.99-4.38-3.6-1.07-1.61-1.64-3.49-1.64-5.43 0-2.59 1.03-5.07 2.86-6.9 1.83-1.83 4.31-2.86 6.9-2.86 1.93 0 3.82.57 5.42 1.64 1.61 1.07 2.85 2.6 3.59 4.38.74 1.78.94 3.74.55 5.64ZM80.3 130.7c-4.5 0-8.45 2.4-10.62 6-2.17-3.59-6.11-6-10.62-6-6.83 0-12.38 5.54-12.38 12.38v19.46h7.08v-18.58c0-3.42 2.77-6.19 6.19-6.19s6.19 2.77 6.19 6.19v18.57h7.08v-18.57c0-3.42 2.77-6.19 6.19-6.19s6.19 2.77 6.19 6.19v18.57h7.08v-19.45c0-6.84-5.54-12.38-12.38-12.38Zm171.85 9.28c-1.14-2.75-3.07-5.09-5.54-6.75-2.47-1.65-5.37-2.53-8.34-2.53h-.01c-2.97 0-5.87.88-8.34 2.53-2.47 1.65-4.39 4-5.54 6.75-.05.11-.09.23-.14.34-.69 1.78-1.02 3.69-1.02 5.6v16.62h7.08V145.2c0-1.88.68-3.72 1.96-5.09.06-.07.12-.13.19-.19 1.54-1.54 3.63-2.07 5.81-2.08 2.18 0 4.27.53 5.81 2.08.06.06.12.13.19.19 1.29 1.38 1.96 3.2 1.96 5.09v17.35h7.08v-16.63c0-1.92-.33-3.82-1.02-5.6-.05-.11-.09-.23-.14-.34Zm-129.74 11.94c-.6 1.18-1.43 2.23-2.45 3.08-1.48 1.23-3.28 1.99-5.19 2.19-1.91.2-3.83-.17-5.53-1.06-1.38-.72-2.55-1.77-3.43-3.05l17.66-5.65 6.96-2.23c-.43-3.07-1.7-6-3.72-8.43-2.85-3.43-6.95-5.59-11.4-6.01-3.31-.31-6.64.37-9.57 1.96-2.93 1.58-5.32 4.01-6.88 6.95-1.55 2.95-2.2 6.28-1.85 9.6.35 3.32 1.67 6.45 3.79 9.01 2.12 2.56 4.97 4.44 8.16 5.38 3.2.95 6.59.93 9.77-.06 3.18-.98 5.99-2.89 8.09-5.48 1.5-1.84 2.57-3.97 3.18-6.24l-7.59.03Zm-18.31-5.28c.24-2.56 1.48-4.92 3.47-6.57 1.98-1.65 4.53-2.44 7.09-2.2 1.91.17 3.72.92 5.22 2.13.56.46 1.07.97 1.51 1.54l-1.47.47-15.84 5.07c0-.14 0-.29.02-.43Z" class="cls-3"/>
</svg>
