<svg xmlns="http://www.w3.org/2000/svg" viewBox="0 0 176 58.6" width="176" height="58.6">
  <defs>
    <style>
      .cls-1 {
        fill: #666;
      }
    </style>
  </defs>
  <path class="cls-1" d="M25.4,32.5h5.1v-5.2h-5.1v5.2ZM30.5,7.6h-5.1V23.6h5.1V7.6Zm45.3,13.5c-1.8,1.6-3.4,2.3-5.7,2.3s-4.1-.8-5.5-2.3c-1.3-1.4-2.1-3.5-2.1-5.6,0-4.7,3.2-8,7.6-8,2.4,0,4,.7,5.8,2.4l-2,2.1c-1.2-1.1-2.3-1.6-3.6-1.6-2.7,0-4.6,2.1-4.6,5s2,5.1,4.7,5.1c1.4,0,2.5-.5,3.4-1.6,0,0,2,2.2,2,2.2Zm14.6-11c1.3,1.5,1.9,3.2,1.9,5.5,0,4.4-3.5,7.9-7.8,7.9s-8-3.5-8-7.9,3.5-8,8-8c2.3-.1,4.4,.8,5.9,2.5Zm-10.6,5.4c0,2.8,2,5,4.7,5s4.7-2.2,4.7-4.9c0-3-2-5.1-4.7-5.1-2.7-.1-4.7,2.1-4.7,5Zm17.9,7.6h-3.1V7.8h4.7c3.8,0,5.8,1.7,5.8,4.8,0,2.4-1.3,4-3.6,4.6l4.2,5.9h-3.8l-4.3-6.1s.1,6.1,.1,6.1Zm1.4-7.9c1.8,0,2.8-.9,2.8-2.4s-1-2.4-2.5-2.4h-1.7v4.8s1.4,0,1.4,0Zm11.8,7.9h-3.1V7.8h4.7c3.8,0,5.8,1.7,5.8,4.8,0,2.4-1.3,4-3.6,4.6l4.2,5.9h-3.8l-4.2-6.1v6.1Zm1.5-7.9c1.8,0,2.8-.9,2.8-2.4s-1-2.4-2.5-2.4h-1.7v4.8s1.4,0,1.4,0Zm11.7-1.1h5.4v2.6h-5.4v3.8h5.4v2.6h-8.5V7.8h8.5v2.6h-5.4s0,3.7,0,3.7Zm20.6,7c-1.8,1.6-3.4,2.3-5.7,2.3s-4.1-.8-5.5-2.3c-1.3-1.4-2.1-3.5-2.1-5.6,0-4.7,3.2-8,7.6-8,2.4,0,4,.7,5.8,2.4l-2,2.1c-1.2-1.1-2.3-1.6-3.6-1.6-2.7,0-4.6,2.1-4.6,5s2,5.1,4.7,5.1c1.4,0,2.5-.5,3.4-1.6l2,2.2h0Zm7.9,2h-3.1V10.4h-3.6v-2.6h10.4v2.6h-3.6l-.1,12.7h0Zm8.8,0h-3.1V7.8h3.1v15.3Zm11.4-15.3h3.2l-4.8,15.3h-3.3l-4.6-15.3h3.2l3.1,10.2,3.2-10.2h0Zm-107.8,26.3v3.7h-1.1v-8.9h2.4c1.1,0,1.9,.3,2.4,.9,.4,.5,.6,1,.6,1.7s-.2,1.2-.6,1.6c-.3,.4-.8,.7-1.4,.8-.2,.1-.6,.1-1,.1l3.5,3.7h-1.4l-3.4-3.6Zm0-.7h1.1c.6,0,1.1-.1,1.5-.4,.4-.3,.6-.7,.6-1.3,0-.5-.2-1-.5-1.3s-.8-.4-1.4-.4h-1.3v3.4Zm12.1,1.7h-5.1c0,.5,.2,.8,.4,1.1,.4,.5,1,.8,1.6,.8,.5,0,.9-.1,1.3-.4,.2-.2,.4-.4,.5-.6l.9,.3c-.2,.4-.5,.7-.8,1-.5,.5-1.2,.7-1.9,.7-1,0-1.8-.4-2.4-1.1-.5-.6-.7-1.3-.7-2.1,0-1,.3-1.7,.9-2.3,.6-.6,1.3-.9,2.2-.9,1.1,0,1.9,.4,2.5,1.2,.4,.6,.6,1.2,.6,2v.3Zm-1.1-.8c0-.4-.2-.8-.4-1.1-.2-.3-.4-.4-.7-.6-.3-.2-.6-.3-1-.3-.5,0-.9,.1-1.3,.4-.4,.3-.6,.8-.7,1.5,0,0,4.1,.1,4.1,.1Zm6.9,2.1l.6,.7c-.3,.3-.6,.5-.9,.6-.4,.2-.9,.3-1.4,.3-.9,0-1.6-.3-2.2-.9-.5-.6-.8-1.3-.8-2.3,0-.7,.2-1.3,.5-1.8s.7-.9,1.3-1.2c.4-.2,.9-.3,1.4-.3,.9,0,1.6,.3,2.2,.9l-.7,.7c-.5-.4-1-.6-1.6-.6s-1.2,.2-1.6,.7c-.3,.4-.5,.9-.5,1.6,0,.8,.2,1.4,.7,1.8,.4,.3,.8,.5,1.4,.5s1.1-.3,1.6-.7Zm3-7.5v3.6c.5-.7,1.1-1,1.8-1,.4,0,.7,.1,1.1,.3,.3,.2,.6,.5,.7,.8s.1,.6,.1,1.1v4.1h-1v-4.1c0-.4-.1-.7-.3-1-.2-.2-.5-.3-.8-.3-.5,0-.9,.2-1.2,.5-.2,.2-.3,.4-.3,.6s-.1,.4-.1,.7v3.6h-1v-8.9s1,0,1,0Zm11.7,6.2h-5.1c0,.5,.2,.8,.4,1.1,.4,.5,1,.8,1.6,.8,.5,0,.9-.1,1.3-.4,.2-.2,.4-.4,.5-.6l.9,.3c-.2,.4-.5,.7-.8,1-.6,.5-1.2,.7-1.9,.7-1,0-1.8-.4-2.4-1.1-.5-.6-.7-1.3-.7-2.1,0-1,.3-1.7,.9-2.3s1.3-.9,2.2-.9c1.1,0,1.9,.4,2.5,1.2,.4,.6,.6,1.2,.6,2v.3Zm-1.1-.8c0-.4-.2-.8-.4-1.1-.2-.3-.4-.4-.7-.6-.3-.2-.6-.3-1-.3-.5,0-.9,.1-1.3,.4-.4,.3-.6,.8-.7,1.5,0,0,4.1,.1,4.1,.1Zm2.7-2.6h1v1c.2-.4,.3-.6,.6-.8,.3-.3,.7-.4,1.2-.4h.2v1h-.3c-.6,0-1,.2-1.3,.7-.2,.2-.3,.5-.3,.7v3.8h-1v-6h-.1Zm8.5,4.7l.6,.7c-.3,.3-.6,.5-.9,.6-.4,.2-.9,.3-1.4,.3-.9,0-1.6-.3-2.2-.9-.5-.6-.8-1.3-.8-2.3,0-.7,.2-1.3,.5-1.8s.7-.9,1.3-1.2c.4-.2,.9-.3,1.4-.3,.9,0,1.6,.3,2.2,.9l-.7,.7c-.5-.4-1-.6-1.6-.6s-1.2,.2-1.6,.7c-.3,.4-.5,.9-.5,1.6,0,.8,.2,1.4,.7,1.8,.4,.3,.8,.5,1.4,.5s1.2-.3,1.6-.7Zm3.1-7.5v3.6c.5-.7,1.1-1,1.8-1,.4,0,.7,.1,1.1,.3,.3,.2,.6,.5,.7,.8s.1,.6,.1,1.1v4.1h-1v-4.1c0-.4-.1-.7-.3-1-.2-.2-.5-.3-.8-.3-.5,0-.9,.2-1.2,.5-.2,.2-.3,.4-.3,.6s-.1,.4-.1,.7v3.6h-1v-8.9s1,0,1,0Zm11.6,6.2h-5.1c0,.5,.2,.8,.4,1.1,.4,.5,1,.8,1.6,.8,.5,0,.9-.1,1.3-.4,.2-.2,.4-.4,.5-.6l.9,.3c-.2,.4-.5,.7-.8,1-.6,.5-1.2,.7-1.9,.7-1,0-1.8-.4-2.4-1.1-.5-.6-.7-1.3-.7-2.1,0-1,.3-1.7,.9-2.3,.6-.6,1.3-.9,2.2-.9,1.1,0,1.9,.4,2.5,1.2,.4,.6,.6,1.2,.6,2v.3Zm-1.1-.8c0-.4-.2-.8-.4-1.1-.2-.3-.4-.4-.7-.6-.3-.2-.6-.3-1-.3-.5,0-.9,.1-1.3,.4-.4,.3-.6,.8-.7,1.5,0,0,4.1,.1,4.1,.1Zm2.7-2.6h1v.9c.2-.3,.5-.5,.7-.7,.3-.2,.7-.3,1.1-.3,.6,0,1.1,.2,1.4,.5,.2,.2,.4,.5,.5,.8,0,.2,.1,.5,.1,.8v4.1h-1v-3.9c0-.5-.1-.9-.2-1.1-.2-.3-.5-.4-1-.4s-.8,.2-1.2,.5c-.3,.3-.4,.7-.4,1.1v3.8h-1s0-6.1,0-6.1Zm12.2,.9v5.3h-1v-5.3h-.8v-.9h.8v-.8c0-.6,.1-1.1,.4-1.4,.3-.4,.8-.6,1.3-.6h.3v.9c-.3,0-.5,.1-.7,.2s-.3,.4-.3,.8v.8h1v.9l-1,.1Zm6.1-.9h1v3.9c0,.6-.1,1-.3,1.3s-.5,.6-.9,.8-.8,.3-1.2,.3c-.7,0-1.3-.2-1.8-.7-.4-.4-.6-1-.6-1.7v-3.9h1v3.9c0,.4,.1,.8,.4,1.1,.3,.3,.6,.4,1,.4,.5,0,.8-.2,1.1-.5,.2-.2,.3-.5,.3-1,0,0,0-3.9,0-3.9Zm-2.7-2.4c.2,0,.3,.1,.5,.2,.1,.1,.2,.3,.2,.4,0,.2-.1,.3-.2,.5-.1,.1-.3,.2-.4,.2-.2,0-.4-.1-.5-.2s-.2-.3-.2-.4c0-.2,.1-.3,.2-.5s.2-.2,.4-.2Zm2.7,0c.2,0,.3,.1,.5,.2,.1,.1,.2,.3,.2,.4,0,.2-.1,.3-.2,.5-.1,.1-.3,.2-.4,.2-.2,0-.4-.1-.5-.2s-.2-.3-.2-.4c0-.2,.1-.3,.2-.5s.2-.2,.4-.2Zm3,2.4h1v1c.2-.4,.3-.6,.6-.8,.3-.3,.7-.4,1.2-.4h.2v1h-.3c-.6,0-1,.2-1.3,.7-.2,.2-.3,.5-.3,.7v3.8h-1l-.1-6h0Zm13.1,.9v-3.6h1v8.9h-1v-1.1c-.3,.3-.5,.6-.8,.8-.4,.3-.9,.4-1.4,.4-.9,0-1.6-.3-2.1-.9-.5-.6-.8-1.3-.8-2.3,0-.6,.1-1.2,.4-1.7,.2-.5,.6-.8,1-1.1,.5-.3,.9-.4,1.5-.4,.4,0,.8,.1,1.2,.3,.4,.1,.7,.3,1,.7h0Zm-2-.2c-.7,0-1.2,.3-1.6,.8-.3,.4-.4,.9-.4,1.5,0,.7,.2,1.3,.6,1.7,.4,.4,.8,.6,1.4,.6s1.1-.2,1.5-.7c.2-.2,.3-.5,.4-.8,.1-.3,.1-.5,.1-.8,0-.7-.2-1.3-.6-1.7s-.8-.6-1.4-.6Zm5.7-3.1c.2,0,.3,.1,.5,.2,.1,.1,.2,.3,.2,.5s-.1,.3-.2,.5c-.1,.1-.3,.2-.4,.2-.2,0-.4-.1-.5-.2s-.2-.3-.2-.4c0-.2,.1-.4,.2-.5,.1-.2,.3-.3,.4-.3Zm.5,2.4v6.2h-1v-6.2h1Zm7.9,3.4h-5.1c0,.5,.2,.8,.4,1.1,.4,.5,1,.8,1.6,.8,.5,0,.9-.1,1.3-.4,.2-.2,.4-.4,.5-.6l.9,.3c-.2,.4-.5,.7-.8,1-.6,.5-1.2,.7-1.9,.7-1,0-1.8-.4-2.4-1.1-.5-.6-.7-1.3-.7-2.1,0-1,.3-1.7,.9-2.3,.6-.6,1.3-.9,2.2-.9,1.1,0,1.9,.4,2.5,1.2,.4,.6,.6,1.2,.6,2v.3Zm-1.1-.8c0-.4-.2-.8-.4-1.1s-.4-.4-.7-.6c-.3-.2-.6-.3-1-.3-.5,0-.9,.1-1.3,.4-.4,.3-.6,.8-.7,1.5l4.1,.1h0Zm-101.7,13.5h4.3v.5c0,.8-.1,1.5-.4,2.1-.4,.7-.9,1.3-1.6,1.7s-1.4,.6-2.3,.6c-.8,0-1.6-.2-2.3-.6-.6-.4-1.1-.9-1.5-1.6-.4-.7-.6-1.5-.6-2.4,0-.7,.1-1.4,.4-2.1,.3-.8,.8-1.4,1.5-1.8,.7-.5,1.5-.7,2.5-.7,.8,0,1.6,.2,2.3,.7,.4,.2,.7,.5,1,.9l-.8,.7c-.3-.3-.5-.6-.7-.7-.5-.4-1.1-.5-1.8-.5s-1.3,.2-1.9,.6c-.5,.4-.9,.8-1.1,1.4-.2,.5-.3,1-.3,1.6,0,.7,.2,1.3,.5,1.9,.3,.5,.6,.9,1.1,1.2s1.1,.5,1.6,.5c.7,0,1.4-.2,2-.7,.5-.4,.9-1,1.1-1.6,0-.2,.1-.4,.1-.6h-3.1s0-1.1,0-1.1Zm11.7,2.1h-5.1c0,.5,.2,.8,.4,1.1,.4,.5,1,.8,1.6,.8,.5,0,.9-.1,1.3-.4,.2-.2,.4-.4,.5-.6l.9,.3c-.2,.4-.5,.7-.8,1-.6,.5-1.2,.7-1.9,.7-1,0-1.8-.4-2.4-1.1-.5-.6-.7-1.3-.7-2.1,0-1,.3-1.7,.9-2.3s1.3-.9,2.2-.9c1.1,0,1.9,.4,2.5,1.2,.4,.6,.6,1.2,.6,2v.3Zm-1.1-.8c0-.4-.2-.8-.4-1.1-.2-.3-.4-.4-.7-.6-.3-.2-.6-.3-1-.3-.5,0-.9,.1-1.3,.4-.4,.3-.6,.8-.7,1.5,0,0,4.1,.1,4.1,.1Zm6.6-1h-1c0-.2,0-.4-.1-.5-.2-.3-.6-.5-1.1-.5-.3,0-.6,.1-.8,.3-.2,.2-.3,.4-.3,.6s.1,.4,.2,.5,.3,.3,.5,.3c.2,.1,.4,.1,.6,.2,.7,.2,1.2,.4,1.5,.7s.5,.7,.5,1.2c0,.6-.3,1.1-.7,1.4-.4,.3-.8,.4-1.4,.4-.9,0-1.6-.3-2-.8-.2-.3-.3-.6-.3-1h1c0,.3,.1,.5,.3,.7,.2,.3,.6,.4,1.1,.4,.3,0,.6-.1,.8-.2,.2-.2,.3-.4,.3-.7s-.1-.5-.4-.7c-.2-.1-.5-.3-1-.4-.7-.2-1.1-.4-1.4-.7s-.5-.7-.5-1.2c0-.6,.3-1.1,.7-1.4,.4-.3,.8-.4,1.4-.4,.8,0,1.4,.2,1.8,.7,.1,.3,.2,.7,.3,1.1Zm7.4,1.8h-5.1c0,.5,.2,.8,.4,1.1,.4,.5,1,.8,1.6,.8,.5,0,.9-.1,1.3-.4,.2-.2,.4-.4,.5-.6l.9,.3c-.2,.4-.5,.7-.8,1-.6,.5-1.2,.7-1.9,.7-1,0-1.8-.4-2.4-1.1-.5-.6-.7-1.3-.7-2.1,0-1,.3-1.7,.9-2.3s1.3-.9,2.2-.9c1.1,0,1.9,.4,2.5,1.2,.4,.6,.6,1.2,.6,2,.1-.1,0,.1,0,.3Zm-1-.8c0-.4-.2-.8-.4-1.1-.2-.3-.4-.4-.7-.6-.3-.2-.6-.3-1-.3-.5,0-.9,.1-1.3,.4-.4,.3-.6,.8-.7,1.5,0,0,4.1,.1,4.1,.1Zm3.7,3.5h-1v-8.9h1v8.9Zm3.2,0h-1v-8.9h1v8.9Zm6-4.5h-1c0-.2,0-.4-.1-.5-.2-.3-.6-.5-1.1-.5-.3,0-.6,.1-.8,.3-.2,.2-.3,.4-.3,.6s.1,.4,.2,.5,.3,.3,.5,.3c.2,.1,.4,.1,.6,.2,.7,.2,1.2,.4,1.5,.7s.5,.7,.5,1.2c0,.6-.3,1.1-.7,1.4-.4,.3-.8,.4-1.4,.4-.9,0-1.6-.3-2-.8-.2-.3-.3-.6-.3-1h1c0,.3,.1,.5,.3,.7,.2,.3,.6,.4,1.1,.4,.3,0,.6-.1,.8-.2,.2-.2,.3-.4,.3-.7s-.1-.5-.4-.7c-.2-.1-.5-.3-1-.4-.7-.2-1.1-.4-1.4-.7s-.5-.7-.5-1.2c0-.6,.3-1.1,.7-1.4,.4-.3,.8-.4,1.4-.4,.8,0,1.4,.2,1.8,.7,.2,.3,.3,.7,.3,1.1Zm5.9,3.1l.6,.7c-.3,.3-.6,.5-.9,.6-.4,.2-.9,.3-1.4,.3-.9,0-1.6-.3-2.2-.9-.5-.6-.8-1.3-.8-2.3,0-.7,.2-1.3,.5-1.8s.7-.9,1.3-1.2c.4-.2,.9-.3,1.4-.3,.9,0,1.6,.3,2.2,.9l-.7,.7c-.5-.4-1-.6-1.6-.6s-1.2,.2-1.6,.7c-.3,.4-.5,.9-.5,1.6,0,.8,.2,1.4,.7,1.8,.4,.3,.8,.5,1.4,.5,.7-.1,1.2-.3,1.6-.7Zm3.1-7.5v3.6c.5-.7,1.1-1,1.8-1,.4,0,.7,.1,1.1,.3,.3,.2,.6,.5,.7,.8s.1,.6,.1,1.1v4.1h-1v-4.1c0-.4-.1-.7-.3-1-.2-.2-.5-.3-.8-.3-.5,0-.9,.2-1.2,.5-.2,.2-.3,.4-.3,.6s-.1,.4-.1,.7v3.6h-1v-8.9s1,0,1,0Zm10.6,3.8v-1h1v6.2h-1v-1.2c-.6,.9-1.3,1.3-2.2,1.3s-1.6-.3-2.2-1c-.5-.6-.8-1.3-.8-2.2,0-.6,.1-1.2,.4-1.8,.3-.5,.6-.8,1.1-1.1,.4-.2,.9-.4,1.4-.4s1,.1,1.4,.4c.4,.2,.6,.4,.9,.8Zm-2.1-.3c-.6,0-1.1,.3-1.5,.7-.3,.5-.5,1-.5,1.6,0,.7,.2,1.3,.7,1.7,.4,.4,.8,.5,1.3,.5,.6,0,1.2-.3,1.6-.8,.3-.5,.5-1,.5-1.6,0-.7-.2-1.2-.6-1.6-.4-.3-.9-.5-1.5-.5Zm6.4,.2v5.3h-1v-5.3h-.8v-.9h.8v-.8c0-.6,.1-1.1,.4-1.4,.3-.4,.8-.6,1.3-.6h.3v.9c-.3,0-.5,.1-.7,.2-.2,.1-.3,.4-.3,.8v.8h1v.9l-1,.1Zm3.5,0v4c0,.1,0,.2,.1,.3s.2,.1,.4,.1h.5v.9h-.9c-.3,0-.6-.1-.8-.2-.2-.1-.2-.4-.2-.7v-4.3h-.8v-.9h.8v-1.9h1v1.9h.9v.9h-1v-.1Z"/>
  <path class="cls-1" d="M41.5,58.6l-25.3-20.7H0V0H55.4V37.9h-13.9s0,20.7,0,20.7ZM4.6,33.4h13.2l19.2,15.6v-15.6h13.9V4.6H4.6v28.8Z"/>
</svg>
