<svg xmlns="http://www.w3.org/2000/svg" viewBox="0 0 300 300" width="300" height="300">
  <defs>
    <style>
      .cls-2{fill:#666}
    </style>
  </defs>
  <path d="M126.39 158.03c-2.86 0-5.98-.68-8.67-2.04v-6.46h.58c1.53 5.01 4.39 7.13 8.73 7.13 2.49 0 4.24-.85 4.24-2.61 0-2.35-2.02-3.39-3.82-4.38l-5.66-3.08c-2.38-1.3-3.7-3.74-3.7-6.35 0-4.59 3.92-7.25 8.63-7.25 2.59 0 5.13.73 7.67 1.88v5.01h-.58c-1.85-3.86-3.97-5.59-7.46-5.59-2.22 0-3.72 1.11-3.72 2.61 0 2.08 1.76 2.88 3.19 3.61l5.35 2.87c1.85 1.04 4.76 2.85 4.76 6.87 0 4.28-3.39 7.77-9.53 7.77m-21.22 0c-2.86 0-5.98-.68-8.67-2.04v-6.46h.58c1.53 5.01 4.39 7.13 8.73 7.13 2.49 0 4.24-.85 4.24-2.61 0-2.35-2.02-3.39-3.82-4.38l-5.66-3.08c-2.38-1.3-3.7-3.74-3.7-6.35 0-4.59 3.92-7.25 8.63-7.25 2.59 0 5.13.73 7.67 1.88v5.01h-.58c-1.85-3.86-3.97-5.59-7.46-5.59-2.22 0-3.72 1.11-3.72 2.61 0 2.08 1.76 2.88 3.19 3.61l5.34 2.87c1.85 1.04 4.76 2.85 4.76 6.87 0 4.28-3.39 7.77-9.53 7.77m-20.37-5c-4.76 0-7.88-2.92-8.2-8.66h16.88c0-6.05-4.83-11.37-11.06-11.37-6.88 0-12.49 5.37-12.49 12.98 0 6.44 5.38 12.05 11.89 12.05 5.98 0 9.75-3.53 11.07-8.54h-.63c-1.48 2.08-4.18 3.53-7.46 3.53Zm-2.38-19.04c3.56 0 4.92 3.89 4.92 8.64H76.61c0-6.21 2.54-8.64 5.82-8.64Zm177.58 2.3c0 2.04-1.32 3.49-3.33 3.49-2.65 0-2.7-2.35-4.71-2.35-1.22 0-2.12 1.79-2.59 2.89v13.33c0 2.04.69 3.14 3.92 3.14v.77h-13.6v-.77c2.01 0 2.91-1.1 2.91-3.14v-13.45c0-2.14-.9-4.39-2.91-4.5v-.63l9.1-2.02h.58v3.6c1.78-2.48 4.65-3.7 7.25-3.7 2.01 0 3.39 1.36 3.39 3.34m-21.7 20.5v.79l-9.15-.02h-.53v-3.53c-1.96 2.82-4.82 4.01-8.25 4.01-4.76 0-6.83-3.08-6.83-7.09v-10.74c0-2.14-.9-4.39-2.91-4.5v-.63l9.15-1.98h.53v17.21c0 2.54.91 3.67 2.47 4.02.77.17 1.58.1 2.33-.16.31-.1.62-.23.85-.38 1.7-1.1 2.66-3.1 2.66-5.1v-8.5c0-2.14-.9-4.39-2.91-4.5v-.63l9.15-1.98h.53v20.3c0 2.19.9 3.28 2.91 3.39m-46.89-1.78c-.32.52-.85.94-1.43.94-.8 0-1.17-.63-1.17-1.72v-13.14c0-5.32-3.49-8.09-8.52-8.09-5.77 0-11.11 3.81-11.11 7.67 0 1.83 1.11 2.92 2.8 2.92s3.07-1.15 3.07-2.82c0-.73-.26-1.3-.26-2.24 0-2.82 1.9-4.35 4.02-4.35 2.75 0 3.28 2.78 3.28 5.34v2.5l-7.94 3.26c-2.91 1.46-5.82 3.84-5.82 7.54 0 3.08 2.28 5.22 6.03 5.22 3.12 0 5.98-1.3 7.73-4.02.32 3.08 2.38 3.97 4.71 3.97 3.39 0 4.98-1.83 5.29-2.97h-.68Zm-11.4-.74c-.51.35-1.06.57-1.62.57-2.01 0-3.23-1.41-3.23-4.12s1.29-3.95 3.39-5.09c.33-.18.68-.35 1.03-.5l2.51-1.06.1 5.85c.03 1.71-.76 3.37-2.19 4.34ZM68.1 156.79v.73H55.56v-.73c2.01 0 2.91-1.15 2.91-3.18v-13.04c0-3.24-1.33-4.95-3.92-4.95-1.85 0-3.7 1.3-4.87 3.28v14.71c0 2.04.69 3.18 2.86 3.18v.73H40.01v-.73c2.01 0 2.91-1.15 2.91-3.18v-22.23c0-2.14-.9-4.39-2.91-4.5v-.63l9.21-2.81h.47v12.76c.98-.95 3.45-3.35 7.03-3.35 5.97 0 8.52 3.88 8.52 8.31 0 4.69.01 12.42.01 12.42 0 2.04.79 3.18 2.86 3.18m141.88-4.48c-.95 3.65-3.44 5.68-7.3 5.68-4.55 0-7.09-2.55-7.09-7.46v-15.12h-2.59v-1.88h.77c3.46 0 6.33-2.55 6.91-5.83h1.68v5.77h6.67l-.69 1.93h-5.98v14.87c0 2.61 1.27 3.91 3.39 3.91 1.69 0 2.91-.78 3.49-1.88h.74Zm-62.28-19.25h-.53l-9.15 1.98v.63c2.01.1 2.91 2.36 2.91 4.5v13.45c0 2.04-.9 3.18-2.91 3.18v.73h12.54v-.73c-2.17 0-2.86-1.15-2.86-3.18v-14.71c1.16-1.98 3.02-3.28 4.87-3.28 2.59 0 3.92 1.72 3.92 4.95v13.04c0 2.04-.9 3.18-2.91 3.18v.73h12.54v-.73c-2.06 0-2.86-1.15-2.86-3.18 0 0-.01-7.74-.01-12.42 0-4.43-2.55-8.31-8.52-8.31-3.57 0-6.05 2.4-7.03 3.35v-3.16h.01Zm78.75 38.77c-.22 0-.41.03-.58.08l1.71-2.41h-1.3l-1.87 2.68c-.45.65-.65 1.24-.65 1.9 0 1.32 1.05 2.37 2.42 2.37s2.43-1.08 2.43-2.41-.97-2.22-2.16-2.22Zm-.27 3.57c-.75 0-1.29-.58-1.29-1.35s.55-1.33 1.29-1.33 1.3.57 1.3 1.33-.56 1.35-1.3 1.35Zm-7.81.97h1.25l2.98-6.18v-.69h-4.59v1.01h3.27l-2.92 5.85Zm-4.27-6.96c-1.35 0-2.43 1.08-2.43 2.41s.97 2.22 2.16 2.22c.23 0 .42-.03.59-.08l-1.72 2.41h1.3l1.87-2.68c.45-.65.65-1.24.65-1.9 0-1.32-1.05-2.37-2.42-2.37Zm0 3.74c-.74 0-1.3-.57-1.3-1.33s.56-1.35 1.3-1.35 1.29.58 1.29 1.35-.55 1.33-1.29 1.33Zm-5.73 3.21h1.11v-6.86h-2.48v1.01h1.37v5.85Zm-11.96 0h4.62v-1.03h-3.49v-1.98h3.15v-.99h-3.15v-1.83h3.44v-1.03h-4.57v6.86Zm-4.34.1c1.1 0 1.94-.39 2.57-1.03l-.76-.76c-.41.44-.97.71-1.8.71-1.35 0-2.3-1-2.3-2.45s.95-2.45 2.3-2.45c.76 0 1.34.27 1.75.7l.76-.76c-.63-.63-1.41-1.02-2.52-1.02-2 0-3.46 1.57-3.46 3.53s1.46 3.53 3.46 3.53m-10.98-.1h1.12v-4.73l3.63 4.73h.79v-6.86h-1.13v4.74l-3.62-4.74h-.79v6.86Zm-3.66-6.86h1.13v6.86h-1.13v-6.86Zm-4.78 6.96c1.48 0 2.41-.76 2.41-2 0-2.55-3.25-1.77-3.25-3.22 0-.5.4-.79 1.09-.79.55 0 .95.22 1.34.65l.76-.76c-.45-.55-1.18-.94-2.08-.94-1.27 0-2.24.7-2.24 1.91 0 2.45 3.25 1.61 3.25 3.21 0 .55-.49.88-1.24.88-.81 0-1.29-.32-1.67-.87l-.76.76c.6.76 1.31 1.16 2.4 1.16m-12.99-.1h4.62v-1.03h-3.49v-1.98h3.15v-.99h-3.15v-1.83h3.44v-1.03h-4.57v6.86Zm-4.56.1c1.48 0 2.41-.76 2.41-2 0-2.55-3.25-1.77-3.25-3.22 0-.5.4-.79 1.09-.79.55 0 .95.22 1.34.65l.76-.76c-.45-.55-1.18-.94-2.08-.94-1.27 0-2.24.7-2.24 1.91 0 2.45 3.25 1.61 3.25 3.21 0 .55-.49.88-1.24.88-.81 0-1.29-.32-1.67-.87l-.76.76c.6.76 1.31 1.16 2.4 1.16m-5.59-6.96h1.13v6.86h-1.13v-6.86Zm-9.5 6.86h1.13v-4.39l1.86 3.06h.78l1.87-3.06v4.39h1.12v-6.86h-.78l-2.6 4.27-2.6-4.27h-.79v6.86Zm-5.4-6.96c-1.95 0-3.49 1.56-3.49 3.52s1.56 3.54 3.51 3.54 3.48-1.57 3.48-3.53-1.55-3.53-3.5-3.53Zm0 5.99c-1.37 0-2.34-1.01-2.34-2.46s.96-2.44 2.34-2.44 2.34 1.01 2.34 2.44-.96 2.46-2.34 2.46Zm-7.27-1.94c1.18-.08 1.96-.83 1.96-1.96s-.87-1.98-2.17-1.98h-2.57v6.86h1.13v-2.91h.29l2.34 2.91h1.42l-2.41-2.92Zm-1.65-.92v-2.04h1.39c.69 0 1.09.45 1.09 1.02 0 .64-.4 1.02-1.1 1.02h-1.38Zm-5.48-3.02h-2.55v6.86h1.13v-2.59h1.42c1.29 0 2.28-.84 2.28-2.14s-.98-2.14-2.28-2.14Zm-.06 3.3h-1.36v-2.31h1.36c.7 0 1.21.45 1.21 1.16s-.5 1.16-1.21 1.16Zm-11.7 3.56h1.13v-4.39l1.86 3.06h.79l1.86-3.06v4.39h1.13v-6.86h-.79l-2.6 4.27-2.6-4.27h-.79v6.86Zm-5.24-6.96c-1.95 0-3.49 1.56-3.49 3.52s1.56 3.54 3.51 3.54 3.48-1.57 3.48-3.53-1.55-3.53-3.5-3.53Zm0 5.99c-1.37 0-2.33-1.01-2.33-2.46s.96-2.44 2.33-2.44 2.34 1.01 2.34 2.44-.96 2.46-2.34 2.46Zm-7.56 1.07c1.1 0 1.94-.39 2.57-1.03l-.76-.76c-.41.44-.97.71-1.8.71-1.35 0-2.3-1-2.3-2.45s.95-2.45 2.3-2.45c.76 0 1.34.27 1.76.7l.76-.76c-.63-.63-1.41-1.02-2.52-1.02-2 0-3.46 1.57-3.46 3.53s1.46 3.53 3.46 3.53m-13.06-7.05c-1.95 0-3.49 1.56-3.49 3.52s1.56 3.54 3.51 3.54 3.48-1.57 3.48-3.53-1.55-3.53-3.5-3.53Zm0 5.99c-1.37 0-2.34-1.01-2.34-2.46s.96-2.44 2.34-2.44 2.34 1.01 2.34 2.44-.96 2.46-2.34 2.46Zm-11.14.98h1.13v-4.73l3.62 4.73h.79v-6.86H75.9v4.73l-3.62-4.73h-.79v6.86Z" class="cls-2"/>
</svg>
