<svg xmlns="http://www.w3.org/2000/svg" viewBox="0 0 518.65 622.51" width="518.65" height="622.51">
  <path fill="#999" d="M518.65 601.73c0 11.33-9.44 20.77-20.77 20.77H20.77C9.44 622.5 0 613.06 0 601.73V20.77C0 9.44 9.44 0 20.77 0h477.11c11.33 0 20.77 9.44 20.77 20.77z"/>
  <path fill="#888" d="M493.47 584.11c0 7.55-6.29 13.85-13.85 13.85H39.02c-7.55 0-13.85-6.29-13.85-13.85V38.4c0-7.55 6.29-13.85 13.85-13.85h441.23c7.55 0 13.85 6.29 13.85 13.85z"/>
  <path fill="#777" d="M475.22 569.63c0 5.66-4.41 10.07-10.07 10.07H53.5c-5.66 0-10.07-4.41-10.07-10.07V52.24c0-5.66 4.41-10.07 10.07-10.07h411.65c5.66 0 10.07 4.41 10.07 10.07z"/>
  <path fill="#666" d="M460.74 557.67c0 4.41-3.78 7.55-7.55 7.55H66.09c-4.41 0-7.55-3.78-7.55-7.55V64.2c0-4.41 3.78-7.55 7.55-7.55h387.1c4.41 0 7.55 3.78 7.55 7.55z"/>
  <path fill="#fff" d="M257.44 527.46c-14.48 0-16.99-6.29-16.99-21.4v-23.92h11.96v27.07c0 6.92.63 10.07 5.66 10.07 4.41 0 5.66-2.52 5.66-10.07v-27.07h11.33v23.92c0 16.37-4.41 21.4-17.62 21.4m8.18-49.72c-3.15 0-5.66-2.52-5.66-5.66s2.52-6.29 5.66-6.29 5.66 3.15 5.66 6.29-2.52 5.66-5.66 5.66m-16.37 0c-3.15 0-5.66-2.52-5.66-5.66s2.52-6.29 5.66-6.29 5.66 3.15 5.66 6.29-2.52 5.66-5.66 5.66m33.99 48.47v-44.06h12.59c15.74 0 22.66 3.15 22.66 22.03s-6.92 22.03-22.66 22.03zm14.48-7.55c6.29 0 8.81-3.78 8.81-14.48 0-10.07-2.52-14.48-8.81-14.48h-2.52v28.95h2.52Zm-81.83 8.81c-6.92 0-11.96-1.26-14.48-1.89l1.89-8.18c4.41 1.26 7.55 1.89 10.07 1.89 3.15 0 6.92-.63 6.92-4.41 0-2.52-3.15-4.41-6.29-6.29h-.63c-5.04-3.15-10.7-6.29-10.7-13.22 0-8.18 5.66-12.59 16.37-12.59 5.66 0 8.81.63 13.22 1.89l-1.89 7.55c-1.26-.63-5.04-1.89-9.44-1.89-3.78 0-6.29 1.26-6.29 4.41 0 2.52 3.15 4.41 6.92 6.29h.63c5.04 3.15 11.33 6.29 11.33 13.22 0 8.18-5.66 13.22-17.62 13.22m-50.98-71.75c-1.26-5.04-3.15-13.85-4.41-17.62h-34.62c-1.26 3.78-3.15 12.59-4.41 17.62H90.64c13.22-41.54 18.88-58.54 33.99-95.67h37.77c14.48 36.51 20.77 54.13 33.99 95.67zm-34.62-37.77h25.81c-3.78-12.59-10.7-33.99-12.59-40.28-2.52 5.66-9.44 27.07-13.22 40.28m99.45 37.77c-16.37 0-25.18-9.44-25.18-25.81v-69.87h28.95v64.2c0 8.18 2.52 10.07 10.7 10.07h28.32l4.41 21.4h-47.21Zm164.28-95.67h28.95v95.67h-28.95zm-105.74 95.67v-95.67h39.65c29.58 0 49.72 11.96 49.72 47.21s-16.37 48.47-48.47 48.47h-40.91Zm28.95-20.77h8.18c17.62 0 24.55-8.18 24.55-27.69s-8.81-26.44-25.81-26.44h-6.92zM247.99 90.64c-17.62 0-25.18 12.59-32.1 32.1l-60.43 180.02c-5.04 15.74-11.96 24.55-23.29 25.81v1.26h31.47c17.62 0 25.18-12.59 32.1-32.1l61.05-179.39c5.04-15.74 12.59-24.55 23.92-25.81v-1.26c-5.66-.63-31.47-.63-32.73-.63m57.29 0c-17.62 0-25.18 12.59-32.1 32.1l-61.05 179.39c-5.04 15.74-11.96 24.55-23.29 25.81v1.26h31.47c17.62 0 25.18-12.59 32.1-32.1l61.05-179.39c5.04-15.74 12.59-24.55 23.92-25.81v-1.26zm-114.55.63c-17.62 0-25.18 12.59-32.1 32.1L88.75 330.45h17.62c17.62 0 25.18-12.59 32.1-32.1l61.05-180.02c5.04-15.74 12.59-24.55 23.92-25.81v-1.26h-32.73Zm182.53 83.08c-6.92-13.85-13.85-15.11-26.44-15.11h-32.1l-12.59 37.14h62.31c8.81 0 16.37 1.26 21.4 8.18h1.26c0-.63-12.59-26.44-13.85-30.21m22.67 53.5c-6.29-13.22-13.85-15.11-26.44-15.11h-72.38l-12.59 37.14h102.6c9.44 0 16.37 1.26 21.4 8.18h1.26s-12.59-27.07-13.85-30.21m23.29 55.39c-6.29-14.48-14.48-16.99-27.07-16.99h-113.3l-10.7 30.84c-.63 2.52-1.26 4.41-2.52 6.29h143.51c8.18 0 15.11 1.26 20.77 8.18h1.26c0 .63-11.33-26.44-11.96-28.32"/>
</svg>
