<svg xmlns="http://www.w3.org/2000/svg" viewBox="0 0 300 300" width="300" height="300">
  <defs>
    <style>
      .cls-2{fill:#666}
    </style>
  </defs>
  <path d="M49.84 151.53c-1.36-1.07-2.96-1.79-4.66-2.1-1.63-.47-3.26-.82-4.43-1.28-1.28-.7-1.98-1.28-1.98-2.33 0-1.98 1.28-2.91 3.15-2.91 1.16 0 2.27.41 3.15 1.16.84.85 1.37 1.96 1.51 3.15h3.96v-7.69h-4.08v1.28c-1.32-1.09-2.95-1.74-4.66-1.86-2.31-.11-4.54.89-6 2.68-1.01 1.26-1.6 2.81-1.69 4.43-.08 2.44 1 4.77 2.91 6.29 1.22.65 2.51 1.16 3.84 1.51 1.58.25 3.14.64 4.66 1.16 1.1.48 1.76 1.61 1.63 2.8-.04 1.76-1.44 3.19-3.2 3.26-3.15 0-5.13-2.1-5.59-5.24h-4.37v8.74h4.14v-1.51c1.62 1.29 3.64 1.98 5.71 1.98 2.1.04 4.14-.71 5.71-2.1 1.55-1.48 2.4-3.56 2.33-5.71.12-2.91-.7-4.54-1.98-5.71m23.94 4.19c-1.51 2.8-3.15 4.66-6.76 4.66-4.89 0-7.57-3.84-7.69-8.39s2.8-8.39 7.69-8.39c1.37-.01 2.71.4 3.84 1.16 1.15.71 1.98 1.84 2.33 3.15v.12h4.08v-8.5h-4.08v1.28c-1.78-1.21-3.85-1.89-6-1.98-3.13-.04-6.15 1.08-8.5 3.15-2.74 1.98-4.31 5.24-4.31 9.79-.09 3.53 1.2 6.96 3.61 9.55 2.36 2.49 5.65 3.89 9.09 3.84 5.48 0 9.67-2.91 11.18-8.85v-.35c-1.47-.19-2.95-.27-4.43-.23m148.12-16.54v3.96h2.45v17.47h-2.45v3.96H241v-8.04h-4.19v4.08h-7.34v-7.22h6.76v-4.31h-6.76v-5.94h7.34v3.03H241v-6.99h-18.99Zm-6.52 17.47v3.96h-5.36v-17.47h2.68v-3.96h-10.37v3.96h2.8v17.47h-2.8v3.96h17.12v-7.92h-4.08Zm36.81-13.51h1.98c1.18-.06 2.35.05 3.49.35 1.06.26 1.77 1.24 1.69 2.33 0 1.63-.47 2.33-1.28 2.8-.97.49-2.06.73-3.15.7h-2.45l-.23-6.17h-.06Zm11.42 17.47v-5.24c.07-.84-.09-1.69-.47-2.45-.59-.77-1.4-1.34-2.33-1.63 2.21-.98 3.63-3.18 3.61-5.59v-.12c.02-1.26-.39-2.5-1.16-3.49-1.98-2.8-4.89-2.91-6.87-2.91h-11.53v3.96h2.68v17.24h-2.68v3.96h9.9v-3.61h-2.39v-7.22h2.33c.91-.06 1.82.05 2.68.35.81.24 1.35 1.02 1.28 1.86v8.85h7.22v-3.96h-2.27Zm-160.06-17.47v-3.96h-9.79v3.96h2.21v5.94h-8.04v-5.94h2.21v-3.96h-9.67v3.96h2.45v17.47h-2.45v3.96h9.67v-3.96h-2.21v-7.22h8.04v7.22h-2.21v3.96h9.79v-3.96h-2.45v-17.47h2.45Zm75.72-3.96v3.96h2.68v17.47h-2.68v3.96h10.25v-3.96h-2.68v-7.22h7.22v-4.31h-7.22v-5.94h7.57v3.03h4.08v-6.99h-19.22Zm-63.37 13.16 2.68-8.39h.12l2.45 8.39h-5.24Zm12.46 8.27-5.71-17.47h2.45v-3.96h-13.16v3.96h2.45l-5.94 17.24h-1.69v3.96h8.74v-3.96h-2.33l1.28-4.31h7.22l1.28 4.31h-1.98v3.96h9.09v-3.96c0 .23-1.69.23-1.69.23Zm5.24-21.44v3.96h2.56v17.47h-2.56v3.96h18.99v-8.04h-4.08v4.08h-7.46v-7.22h6.76v-4.31h-6.76v-5.94h7.46v3.03h4.08v-6.99h-18.99Zm23.42 0v3.96h2.68v17.47h-2.68v3.96h10.25v-3.96h-2.68v-7.22h7.46v-4.31h-7.46v-5.94h7.57v3.03h4.19v-6.99h-19.34Z" class="cls-2"/>
</svg>
