<svg xmlns="http://www.w3.org/2000/svg" viewBox="0 0 300 300" width="300" height="300">
  <defs>
    <style>
      .cls-2{fill:#fff}.cls-3{fill:#999}.cls-4{fill:#666}
    </style>
  </defs>
  <path d="M141.45 118.41H230v49.19h-88.55v-49.19Z" class="cls-3"/>
  <path d="M165.71 129.46v5.03h-4.24v22.06h-5.36v-22.06h-4.2v-5.03h13.8Zm12.85 0 6.5 27.09h-5.71l-1-4.56h-5.42l-1 4.56h-5.3l6.29-27.09h5.64Zm-2.37 11.07-.61-4.1h-.07l-.58 4.1-1.15 7.22h3.77l-1.36-7.22Zm17.99-11.07v22.06h5.6v5.03h-10.95v-27.09h5.35Zm14.83 0v12.11h.07l4.45-12.11h5.46L214 141.97l5.64 14.58H214l-4.92-13.79h-.07v13.79h-5.36v-27.09h5.36Z" class="cls-2"/>
  <path d="M70 118.41h71.45v49.19H70v-49.19Z" class="cls-4"/>
  <path d="M93.45 156.55h-2.69l-1-5.57H84l-1 5.57h-2.7l5.32-27.09H88l5.45 27.09Zm-4.09-7.76-1.8-10.38c-.32-1.83-.46-3.7-.68-5.53h-.14c-.26 1.83-.44 3.7-.72 5.53l-1.58 10.38h4.92Zm10.8 5.46h5.9v2.3h-8.41v-27.09h2.51v24.79Zm10.09-24.79H113c5.18 0 8.55.65 8.55 13.55 0 10.6-1.72 13.54-8.37 13.54h-2.93v-27.09Zm2.52 24.79h.72c4.85 0 5.46-3.41 5.46-11.24 0-9.31-1-11.25-5.75-11.25h-.43v22.49Zm13.9-24.79h2.51v27.09h-2.51v-27.09Z" class="cls-2"/>
</svg>
