<svg xmlns="http://www.w3.org/2000/svg" viewBox="0 0 1999.9 1500" width="1999.9" height="1500">
  <path fill="#666" d="m200.9 519.9 186.8 107.9L0 853.1l310.7 179.4 387.7-225.3 185 106.8 304.8-177.2-682.5-394zM1622.4 88.6c-32.2-18.6-65.3-33.7-99.3-45.4-34.1-11.6-67.2-20.6-99.3-26.8-32.2-6.2-62.4-10.4-90.7-12.6-28.4-2.2-53-3.5-73.7-3.8-40.3 0-78.2 2.3-113.8 6.8-35.5 4.5-68.5 10.8-99 18.6-30.5 7.9-58.1 17-82.9 27.3-24.8 10.4-46.7 21.1-65.5 32-47.7 27.7-84 59.4-108.9 95.2-25 35.7-36.7 73.6-35.2 113.7.8 28.8 7 54.8 18.8 77.9 11.8 23.2 25.9 43.5 42.4 61 16.4 17.5 33 32.2 49.8 44 16.8 11.9 30.8 21.1 42.2 27.6 34.1 19.7 69.2 35.3 105.1 47 36 11.7 70.3 20.6 103 26.8 32.8 6.2 62.7 10.2 89.8 12 27.1 1.9 49.4 2.7 67.1 2.7s44.3-.9 72.6-2.7 58.6-5.8 90.7-12c32-6.2 64.8-14.8 98.4-26 33.7-11.1 66.1-25.8 97.5-44s56.6-37.1 75.7-56.6 33.9-38.6 44.5-57.1c10.6-18.6 17.6-36 20.9-52.3 3.3-16.2 5-30.5 5-42.9-.2-16-2.9-32.9-8.3-50.6s-14.2-35.6-26.3-53.9c-12.1-18.2-28.1-36.3-48-54.4s-44.1-35.3-72.6-51.7m-427.2 248.4c-19.6-11.3-29.6-24.7-29.9-40.2-.4-15.5 9.4-29 29.5-40.7 19.5-11.3 42.6-17.1 69.3-17.2 26.8-.2 50.3 5.5 70.4 17.2 19.6 11.3 29.6 24.7 29.9 40.2.4 15.5-9.4 29.1-29.5 40.8-19.4 11.3-42.5 17-69.3 17.2-26.7.2-50.2-5.6-70.4-17.2m492.5 1159.6h30.2v-58.3c0-23.7 11.4-36.5 28.6-36.5s10 .7 15.6 2.3v-29.5c-4.2-1.6-7.4-1.9-12.1-1.9-10 0-23.2 3.7-32.1 21.3v-18.3h-30.2zm-110.8-72.4c3-19.3 13.9-27.7 28.1-27.7s26.2 11.2 26.2 27.4v.2h-54.4zm30.4 75.9c22.8 0 42.5-8.3 54.3-25.8l-21.3-19.5c-6.3 13.9-16.2 20.2-32.1 20.2s-28.8-8.4-31.6-29.5h85.9c.7-4.6.7-7.9.7-11.6 0-36.9-22.3-62.5-57.3-62.5s-61.3 27.4-61.3 65.3 23.9 63.4 62.7 63.4m-100.3-.5c3.9 0 16-1.2 20.2-2.8v-26.2c-4.4.9-11.8 1.9-16 1.9-11.6 0-16.5-3.5-16.5-17.2v-53.9h33.9v-25.5h-33.9v-46l-30.2 22.8v23.2h-21.8v25.5h21.8v58.1c0 28.6 14.8 40.2 42.5 40.2m-144.5-22.3c-10.7 0-16.7-6.3-16.7-14.4s7-14.2 18.1-16c19.3-3.5 25.6-4.9 29.1-7.7v9.1c0 16.5-9.8 29.1-30.4 29.1m-7.1 22.4c16.5 0 30.9-6.5 39.1-17.4l5.1 14.2h26.9l-4.2-24.6v-57.8c0-27.6-20.4-42.5-52.5-42.5s-49.5 16-53.9 38.8l26.7 10.2c0-15.8 10.7-25.6 27.2-25.6s23 5.3 23 15.8-5.1 10.7-37.4 16.3c-25.6 4.7-41.3 16.5-41.3 37.4s16.9 35.3 41.3 35.3m-147.3-75.8c3-19.3 13.9-27.7 28.1-27.7s26.2 11.2 26.2 27.4v.2h-54.4zm30.5 75.9c22.8 0 42.5-8.3 54.3-25.8l-21.3-19.5c-6.3 13.9-16.2 20.2-32.1 20.2s-28.8-8.4-31.6-29.5h85.9c.7-4.6.7-7.9.7-11.6 0-36.9-22.3-62.5-57.3-62.5s-61.3 27.4-61.3 65.3 23.9 63.4 62.7 63.4m-196.5-3.5h30.2v-63.4c0-21.6 10.2-33.9 27.9-33.9s23.9 9.3 23.9 30.9v66.4h30.2v-72.9c0-33.2-15.6-52.2-44.3-52.2s-29.8 6.7-37.7 19.3v-64.8h-30.2v170.7zm-105.3 0h31.6V1355h53v-29.2h-138v29.2h53.4zm976.7-330.6c3-19.3 13.9-27.7 28.1-27.7s26.2 11.2 26.2 27.4v.2h-54.4zm30.4 76c22.8 0 42.5-8.3 54.3-25.8l-21.3-19.5c-6.3 13.9-16.2 20.2-32.1 20.2s-28.8-8.4-31.6-29.5h85.9c.7-4.6.7-7.9.7-11.6 0-36.9-22.3-62.5-57.3-62.5s-61.3 27.4-61.3 65.3 23.9 63.4 62.7 63.4m-100.1-139.6c10.4 0 19-8.6 19-19.5s-8.6-19-19-19-19.5 8.6-19.5 19 8.6 19.5 19.5 19.5m-15.3 136.1h30.2v-120.8h-30.2zm-93.4 0h30.2v-58.3c0-23.7 11.4-36.5 28.6-36.5s10 .7 15.6 2.3v-29.5c-4.2-1.6-7.4-1.9-12.1-1.9-10 0-23.2 3.7-32.1 21.3v-18.3h-30.2zm-110.8-72.5c3-19.3 13.9-27.7 28.1-27.7s26.2 11.2 26.2 27.4v.2h-54.4zm30.4 76c22.8 0 42.5-8.3 54.3-25.8l-21.3-19.5c-6.3 13.9-16.2 20.2-32.1 20.2s-28.8-8.4-31.6-29.5h85.9c.7-4.6.7-7.9.7-11.6 0-36.9-22.3-62.5-57.3-62.5s-61.3 27.4-61.3 65.3 23.9 63.4 62.7 63.4m-147.5-33.9c-20.2 0-33.9-13.2-33.9-33.2s13.7-34.2 33.9-34.2 33.2 12.8 33.2 34.2-14.2 33.2-33.2 33.2m-3.7 83.8c40.7 0 66-22 66-56.9v-117.3h-30.2v11.4c-9.1-9.8-21.8-15.8-37.9-15.8-36 0-59.4 26.5-59.4 61.6s23.4 60.6 59.4 60.6 28.8-6 37.9-15.3v12.8c0 20.7-13.5 33.7-35.3 33.7s-30.9-8.8-36.2-24.9l-25.5 16.3c9.3 22.1 30.6 33.9 61.3 33.9m-195.5-53.5h30.2V1175c0-21.4 10.2-33.9 27.9-33.9s23.9 9.3 23.9 30.9v66.4h30.2v-72.9c0-33.2-15.6-52.2-44.3-52.2s-29.8 6.7-37.7 20v-15.5h-30.2v120.8zm-89.7-19.3c-10.7 0-16.7-6.3-16.7-14.4s7-14.2 18.1-16c19.3-3.5 25.6-4.9 29.1-7.7v9.1c0 16.5-9.8 29.1-30.4 29.1m-7 22.5c16.5 0 30.9-6.5 39.1-17.4l5.1 14.2h26.9l-4.2-24.6v-57.8c0-27.6-20.4-42.5-52.5-42.5s-49.5 16-53.9 38.8l26.7 10.2c0-15.8 10.7-25.6 27.2-25.6s23 5.3 23 15.8-5.1 10.7-37.4 16.3c-25.6 4.7-41.3 16.5-41.3 37.4s16.9 35.3 41.3 35.3m-129.4-3.4h30.2v-58.3c0-23.7 11.4-36.5 28.6-36.5s10 .7 15.6 2.3v-29.5c-4.2-1.6-7.4-1.9-12.1-1.9-10 0-23.2 3.7-32.1 21.3v-18.3h-30.2zm-114.1-24.8c-33.9 0-58.6-24.2-58.6-61.1s24.9-60.9 58.6-60.9 58.6 23.9 58.6 60.9-24.4 61.1-58.6 61.1m0 28.3c49.5 0 90.1-35.8 90.1-89.4s-40.9-89.2-90.1-89.2-90.3 35.8-90.3 89.2 40.9 89.4 90.3 89.4"/>
</svg>
