<svg xmlns="http://www.w3.org/2000/svg" viewBox="0 0 140 140" width="140" height="140">
  <defs>
    <style>
      .cls-1 {
        fill: #fff;
      }

      .cls-2 {
        fill: #666;
      }
    </style>
  </defs>
  <circle class="cls-2" cx="70" cy="70" r="70"/>
  <path class="cls-1" d="M65.25,56.24s-12.61,1.17-15.48-11.93c0-.04,13.23-1.55,16.11,11.23l-13.44-9.39s12.81,10.09,12.81,10.09Zm9.89-1.4s2.3-12.12,15.34-11.3c.04,0-2.11,12.81-14.85,12.08l12.41-10.07-12.91,9.29Zm-4.99-1.97s-10.74-12.12,.39-24.66c.04-.04,11.28,12.24,.48,24.54l-.38-20.49-.5,20.61Zm1.64,39.61l-.11,3.65c1.06,.64,1.73,1.42,1.6,2.5-.36,3.02-6.04,5.45-7.62,6.63-.52,.38-.5,.78-.01,.73,2.11-.2,9.39-3.48,10.63-7.36,1.1-3.49-1.58-5.06-4.49-6.14m-10.15-2.96c.07,2.69,3.21,3.89,6.22,4.98v-3.39c-1.14-.45-1.94-.95-2-1.64-.2-3.89,14.29-4.05,14.3-10.21,0-2.77-4.03-4.17-8.06-5.31l-.1,3.44c1.81,.52,3.15,1.13,3.33,2.11,.57,3.14-13.87,3.32-13.69,10.02m17.82-27.8c0,.36-.29,.64-.64,.64s-.64-.29-.64-.64,.29-.64,.64-.64,.64,.29,.64,.64m3.04,.17c-.29-1.01-2.38-2.21-5.41-1.59-3.46,.71-4.39,2.95-8.61,3.82-5.82,1.07-8.6,3.06-8.48,6.56,.11,3.29,3.91,4.63,7.7,5.61l-.04-3.62c-2.02-.65-3.49-1.36-3.56-2.36-.18-2.87,5.48-3.12,6.64-3.26,6.89-.59,12.4-2.91,11.75-5.17"/>
  <path class="cls-1" d="M68.49,87.68c0,.82,.07,14.24,.13,15.17,1.18-.66,2.29-1.59,2.29-1.59l.28-14.56s-1.76,.43-2.69,.98m3.18-25.61c0-1.5,.08-5.47,.15-7.07-.06-1.23-3.62,.99-3.65,2.98,0,0,.06,1.58,.07,5.34,1.87-.21,3.42-1.25,3.42-1.25m-3.02,43.53c0,.85,.01,3.21,.04,3.42,.19,1.3,1.99,.42,2.09-.55,.06-.53,.02-.71,.1-3.94,0,0-.93,.62-2.23,1.06m2.65-24.02c.09-4.28,.2-9.99,.28-13.68,0,0-2.57-.14-3.22,.39,0,3.89,.06,9.44,.08,14.24,1.73-.72,2.86-.95,2.86-.95m49.79,7.74l.47-1.58-2.97-.88c-.78-.23-1.95-.85-1.6-1.99,.3-1.01,1.31-.73,2.05-.51l3.25,.97,.47-1.58-3.84-1.14c-1.37-.41-2.57-.08-3,1.36-.25,.83-.18,1.58,.37,2.28v.03l-.83-.24-.45,1.5,6.08,1.81Zm-9.07,2.07l.66-1.51-1.44-.63-.66,1.51,1.45,.63h0Zm6.87,3.01l.66-1.51-5.81-2.55-.66,1.51,5.81,2.55Zm-8.67,4.84l1.63-2.61,1.46,4.7,1.14,.71,2.79-4.47-1.09-.68-1.73,2.76-1.48-4.64-1.15-.71-2.66,4.26,1.08,.68Zm-4.81,2.09l1.04-1.29-1.23-.99-1.04,1.29,1.23,.99Zm5.85,4.7l1.04-1.29-4.94-3.98-1.04,1.29,4.94,3.98Zm-3.85,4.02l1.18-1.09-6.29-6.76-1.21,1.13,2.48,2.66h-.02c-.77-.09-1.39,.1-2,.66-1.43,1.33-.89,2.95,.3,4.23,1.18,1.27,2.8,1.95,4.22,.63,.57-.53,.9-1.17,.84-1.96h.02s.48,.51,.48,.51h0Zm-4.3-.36c-.58-.62-1.16-1.68-.38-2.41,.78-.72,1.85-.18,2.46,.47,.62,.66,1.14,1.75,.34,2.5-.79,.74-1.82,.08-2.41-.56m-3.07,4.2c-.32,.63-.74,1.25-1.41,1.69-.85,.57-1.77,.47-2.39-.34l3.66-2.41c-1.22-1.85-2.66-2.84-4.63-1.54-1.65,1.09-1.62,2.88-.62,4.42,1.15,1.74,2.83,2.08,4.58,.92,.74-.49,1.23-1.01,1.55-1.62l-.74-1.13Zm-4.42,.41c-.41-.75-.37-1.54,.41-2.05,.77-.51,1.46-.13,1.94,.5l-2.35,1.55h0Zm-11.84,9.25l1.55-.59-2.51-6.61v-.04s4.7,5.81,4.7,5.81l1.54-.59-.36-7.45h.03l2.52,6.62,1.55-.59-3.05-8.04-2.58,.98,.41,6.82h-.02l-4.23-5.35-2.58,.98,3.05,8.04h0Zm-11.47,1.35l1.6-.06-.35-9.23-1.65,.06,.14,3.63h-.03c-.52-.58-1.11-.85-1.93-.81-1.95,.07-2.6,1.65-2.53,3.4,.06,1.74,.84,3.3,2.79,3.23,.78-.03,1.44-.3,1.91-.94h.03l.03,.71Zm-3.02-3.08c-.04-.85,.22-2.03,1.29-2.07,1.06-.04,1.52,1.08,1.55,1.96,.04,.9-.28,2.06-1.37,2.11-1.09,.05-1.44-1.12-1.47-2m-11.13,1.88l1.63,.27,.5-3.06c.13-.8,.6-2.04,1.78-1.84,1.04,.17,.88,1.21,.76,1.97l-.55,3.34,1.63,.27,.65-3.95c.23-1.41-.24-2.56-1.72-2.81-.85-.14-1.59,.03-2.22,.66h-.02l.14-.86-1.55-.25-1.03,6.25h0Zm-1.82-7.08l-1.55-.55-1.03,2.93c-.27,.76-.94,1.9-2.07,1.5-1-.35-.66-1.34-.41-2.07l1.13-3.19-1.55-.55-1.33,3.77c-.48,1.35-.21,2.56,1.2,3.07,.81,.29,1.62,.15,2.3-.26h.02l-.29,.82,1.48,.52s2.11-5.99,2.11-5.99Zm-18.43-2.3l1.36,.94,1.32-1.91c.52-.75,1.48-2.13,2.58-1.36,.24,.17,.46,.38,.53,.53l.94-1.36c-.11-.14-.26-.24-.38-.33-.81-.56-1.94-.13-2.33,.31h-.02s.82-1.2,.82-1.2l-1.2-.83-3.61,5.21h0Zm1.22-7.11l-1.21-1.13-2.11,2.27c-.55,.6-1.62,1.36-2.5,.55-.78-.72-.07-1.5,.46-2.06l2.31-2.48-1.21-1.13-2.73,2.93c-.97,1.04-1.22,2.27-.12,3.29,.63,.59,1.42,.78,2.21,.68h.02s-.59,.64-.59,.64l1.15,1.06,4.33-4.64Zm-11.19-5.64c-.99,.76-1.2,1.82-.41,2.84,.3,.39,.57,.66,.86,.87l1.01-.83c-.2-.07-.41-.26-.59-.49-.38-.5-.07-.92,.36-1.25l2.34-1.8,.89,1.16,.96-.74-.89-1.16,1.43-1.09-1.42-.99-1.01,.77-.74-.97-.96,.74,.74,.97-2.56,1.97Zm-4.37-6.92c.85-.48,1.49,.42,1.86,1.06l.35,.62c-.43,.24-.86,.4-1.31,.34-.43-.06-.81-.29-1.06-.74-.29-.51-.31-1.02,.16-1.29m2-2.08c.64,.28,1.22,.76,1.56,1.37,.48,.85,.4,1.41-.5,1.91l-.45-.8c-.34-.6-.78-1.28-1.37-1.68-.57-.4-1.28-.53-2.11-.06-1.06,.59-1.11,1.88-.57,2.86,.36,.66,1.11,1.18,1.91,1.18v.02c-.15,.1-.52,.31-.78,.52l.71,1.27c.41-.27,.78-.51,1.2-.76,.4-.24,.81-.48,1.37-.8l.71-.4c1.63-.92,1.95-2,1-3.69-.34-.61-.92-1.27-1.5-1.69l-1.2,.74h0Zm-8.07-8.64l.51,1.57,6.12-1.99v.02l-5.1,5.12,.65,2,8.18-2.65-.51-1.57-6.12,1.99v-.02l5.1-5.1-.66-2.02s-8.17,2.65-8.17,2.65Zm105.33-24.99l-.83,.2v-.03c.59-.62,.71-1.32,.51-2.13-.45-1.84-2.35-2.19-3.83-1.83-1.65,.4-2.94,1.46-2.5,3.27,.22,.9,.85,1.51,1.45,1.67v.03c-1.06,.26-2.41,.5-2.84-1.27-.12-.5-.04-1.37,.1-1.92l-1.4,.2c-.13,.85-.06,1.6,.1,2.23,.63,2.58,2.37,2.87,4.05,2.46l5.56-1.36-.38-1.53h0Zm-5.29-.29c-.22-.92,.7-1.62,1.53-1.82,.95-.23,2.04-.13,2.3,.96,.22,.93-.53,1.55-1.59,1.81-1.02,.25-2,.06-2.25-.94m-5.61-11.19l.66,1.51,2.84-1.25c.74-.32,2.03-.61,2.51,.49,.43,.97-.52,1.4-1.24,1.71l-3.1,1.36,.66,1.51,3.67-1.6c1.31-.57,2.02-1.6,1.41-2.97-.34-.79-.88-1.32-1.76-1.51v-.02l.78-.34-.63-1.44-5.81,2.54h0Zm3.02-6.8l-.97-1.34-2.51,1.83c-.66,.48-1.85,1.04-2.55,.07-.62-.85,.21-1.48,.84-1.94l2.74-1.99-.97-1.34-3.23,2.36c-1.15,.84-1.62,1.99-.74,3.21,.51,.7,1.25,1.04,2.04,1.08v.02s-.69,.51-.69,.51l.92,1.26,5.12-3.73h0Zm-11.75-6.79c-.87,.9-.92,1.97,0,2.88,.35,.34,.66,.57,.97,.75l.87-.97c-.2-.04-.45-.2-.66-.4-.45-.44-.2-.9,.18-1.29l2.06-2.11,1.05,1.02,.84-.87-1.05-1.02,1.26-1.29-1.55-.78-.89,.91-.87-.85-.84,.87,.87,.85-2.25,2.3h0Zm-6.76-2.83l1.33,.97,3.02-4.15,1.16,.85,.71-.97-1.16-.85,.46-.64c.29-.4,.71-.69,1.16-.36,.29,.21,.38,.44,.45,.6l.92-1.02c-.22-.25-.56-.57-.9-.82-1.06-.77-2.15-.48-2.9,.55l-.53,.71-.99-.72-.71,.97,.99,.71-3.03,4.15h0Zm-1.69-9.63l1.44,.8,.77-1.38-1.44-.8-.77,1.38Zm-3.66,6.55l1.44,.81,3.09-5.54-1.44-.81-3.09,5.54Zm-5.27-4.19c-.45,1.18-.06,2.18,1.15,2.64,.46,.18,.83,.27,1.2,.29l.42-1.24c-.2,.04-.49,0-.76-.11-.59-.22-.55-.75-.35-1.25l1.05-2.77,1.36,.52,.43-1.13-1.37-.52,.64-1.68-1.73-.09-.45,1.18-1.14-.43-.43,1.13,1.14,.43s-1.16,3.02-1.16,3.02Zm-3.46-7.71c-.57-.32-1.24-.55-1.96-.69-1.49-.29-3.09,.13-3.44,2.01-.53,2.79,3.29,2.84,2.98,4.45-.15,.76-1.06,.92-1.71,.8-.66-.13-1.29-.46-1.81-.89l-.45,1.5c.8,.36,1.18,.57,2.1,.74,1.71,.33,3.3-.09,3.65-1.95,.55-2.83-3.28-2.93-3-4.38,.18-.92,.97-1.03,1.55-.92,.59,.11,1.16,.36,1.64,.69,0,0,.43-1.37,.43-1.37Zm-9.73,4.54l.05-1.35-3.24-.13-.05,1.35,3.24,.13Zm-7.33-3.48c-.53-.05-1.04-.12-1.81-.03-1.29,.15-2.4,.88-2.25,2.24,.26,2.28,3.02,1.11,3.16,2.34,.07,.61-.57,.85-.99,.9-.57,.06-1.12-.03-1.67-.23l.06,1.36c.62,.09,1.27,.13,1.89,.06,1.34-.15,2.58-.89,2.41-2.36-.26-2.27-3.04-1.32-3.15-2.32-.06-.54,.45-.76,.89-.81,.6-.07,.98-.01,1.5,.1,0,0-.04-1.25-.04-1.25Zm-12.42,9.11l1.58-.47-.88-2.98c-.23-.78-.35-2.09,.79-2.44,1.01-.3,1.32,.7,1.55,1.44l.97,3.25,1.58-.47-1.14-3.84c-.41-1.37-1.34-2.2-2.77-1.77-.83,.25-1.42,.72-1.71,1.56h-.02l-.24-.82-1.5,.45s1.8,6.08,1.8,6.08Zm-4.23,.12c-.39,.59-.85,1.18-1.56,1.55-.9,.48-1.81,.3-2.35-.57l3.88-2.04c-1.04-1.96-2.37-3.08-4.46-1.98-1.74,.92-1.9,2.72-1.04,4.34,.97,1.84,2.61,2.34,4.47,1.36,.78-.41,1.32-.89,1.69-1.46,0,0-.62-1.18-.62-1.18Zm-4.44-.03c-.33-.78-.22-1.57,.6-2,.82-.43,1.46,0,1.88,.69,0,0-2.48,1.31-2.49,1.31Zm-5.52,6.16c.76,.99,1.82,1.2,2.84,.41,.39-.3,.67-.57,.88-.86l-.83-1.01c-.07,.2-.26,.41-.49,.59-.5,.38-.92,.07-1.25-.36l-1.8-2.34,1.16-.89-.73-.96-1.16,.89-1.09-1.43-.99,1.42,.77,1.01-.97,.74,.73,.96,.97-.74,1.97,2.56Zm-6.47,.01c-.44,.29-.88,.57-1.42,1.12-.9,.92-1.31,2.2-.33,3.16,1.64,1.6,3.04-1.05,3.93-.18,.44,.43,.09,1.02-.2,1.32-.39,.41-.89,.68-1.43,.87l.9,1.02c.54-.32,1.06-.7,1.51-1.15,.94-.96,1.43-2.32,.38-3.35-1.64-1.6-3.18,.9-3.91,.2-.38-.38-.13-.87,.18-1.19,.42-.43,.75-.63,1.23-.87,0,0-.82-.94-.82-.95Zm-2.35,12.67l.97-1.34-1.88-1.37c-.73-.53-2.09-1.52-1.29-2.6,.17-.24,.38-.45,.55-.52l-1.34-.98c-.14,.11-.24,.25-.34,.38-.58,.8-.18,1.93,.26,2.34v.02s-1.18-.85-1.18-.85l-.86,1.18s5.12,3.74,5.12,3.74Zm-5.28,6.08c-.87-.43-.5-1.47-.17-2.13l.32-.64c.44,.22,.82,.49,1.02,.89,.2,.39,.22,.83,0,1.29-.26,.52-.67,.83-1.16,.59m-2.85-.48c-.13-.68-.06-1.43,.25-2.06,.43-.88,.94-1.13,1.86-.67l-.41,.82c-.31,.62-.62,1.37-.62,2.07,0,.7,.29,1.35,1.14,1.78,1.08,.54,2.18-.14,2.67-1.15,.34-.67,.35-1.59-.11-2.24v-.02c.2,.08,.57,.26,.9,.36l.64-1.3c-.46-.19-.87-.36-1.3-.57-.43-.2-.86-.4-1.43-.69l-.73-.36c-1.68-.83-2.75-.48-3.61,1.26-.32,.63-.53,1.48-.55,2.19,0,0,1.3,.58,1.3,.58Zm1.46,5.01c.1,.45,.03,1.26-.15,1.91-.48,1.77-2.04,2.48-3.72,2.02-1.7-.46-2.72-1.88-2.25-3.59,.16-.59,.4-1.14,.92-1.68l-1.37-.5c-.4,.55-.71,1.24-.85,1.79-.76,2.82,.36,4.98,3.21,5.75,2.81,.76,4.66-.74,5.38-3.43,.17-.63,.23-1.32,.25-1.96l-1.41-.31Z"/>
</svg>
