<svg xmlns="http://www.w3.org/2000/svg" viewBox="0 0 300 300" width="300" height="300">
  <defs>
    <style>
      .cls-2{fill:#fff}.cls-3{fill:#666}
    </style>
  </defs>
  <circle cx="150" cy="150" r="74" class="cls-3"/>
  <path d="M144.98 135.45s-13.33 1.24-16.37-12.62c0-.04 13.99-1.64 17.03 11.87l-14.21-9.92 13.54 10.67Zm10.46-1.48s2.43-12.82 16.22-11.94c.04 0-2.23 13.54-15.7 12.76l13.12-10.64-13.65 9.82Zm-5.28-2.08s-11.36-12.82.41-26.07c.04-.04 11.93 12.94.51 25.94l-.4-21.66-.53 21.79Zm1.74 41.88-.11 3.86c1.12.68 1.83 1.5 1.69 2.64-.38 3.19-6.39 5.76-8.06 7.01-.55.4-.53.82-.01.77 2.23-.21 9.93-3.68 11.23-7.78 1.16-3.69-1.67-5.35-4.74-6.49m-10.73-3.13c.07 2.84 3.4 4.11 6.58 5.27v-3.58c-1.21-.48-2.05-1-2.12-1.74-.21-4.11 15.1-4.28 15.12-10.8 0-2.93-4.26-4.41-8.52-5.62l-.1 3.63c1.92.55 3.33 1.2 3.52 2.23.6 3.32-14.66 3.51-14.47 10.6m18.84-29.39c0 .38-.3.68-.68.68s-.68-.3-.68-.68.3-.68.68-.68.68.3.68.68m3.22.19c-.3-1.07-2.52-2.33-5.72-1.68-3.66.75-4.64 3.12-9.1 4.04-6.16 1.13-9.09 3.23-8.96 6.93.12 3.48 4.14 4.9 8.14 5.93l-.04-3.83c-2.14-.69-3.69-1.44-3.77-2.49-.19-3.03 5.79-3.3 7.02-3.44 7.28-.62 13.11-3.07 12.42-5.46" class="cls-2"/>
  <path d="M148.4 168.69c0 .87.07 15.05.13 16.04 1.25-.7 2.42-1.68 2.42-1.68l.3-15.39s-1.86.45-2.85 1.04m3.36-27.08c0-1.58.09-5.78.16-7.47-.07-1.3-3.83 1.05-3.86 3.15 0 0 .06 1.67.07 5.65 1.98-.22 3.62-1.32 3.62-1.32m-3.2 46.01c0 .9.01 3.4.04 3.62.2 1.37 2.1.44 2.21-.58.06-.56.02-.75.1-4.17 0 0-.98.66-2.36 1.12m2.8-25.4c.1-4.52.21-10.56.3-14.46 0 0-2.72-.15-3.4.41 0 4.11.06 9.98.09 15.05 1.83-.76 3.02-1.01 3.02-1.01m52.64 8.18.5-1.67-3.15-.93c-.82-.24-2.06-.9-1.69-2.11.32-1.07 1.38-.77 2.17-.54l3.43 1.02.5-1.67-4.06-1.21c-1.45-.43-2.72-.09-3.17 1.44-.26.87-.19 1.67.39 2.41v.03l-.88-.26-.47 1.58 6.43 1.91Zm-9.59 2.19.7-1.6-1.52-.67-.7 1.6 1.53.67Zm7.26 3.18.7-1.6-6.14-2.69-.7 1.6 6.14 2.69Zm-9.16 5.11 1.72-2.76 1.54 4.97 1.21.75 2.95-4.73-1.15-.72-1.83 2.92-1.56-4.91-1.21-.75-2.81 4.51 1.14.72Zm-5.08 2.21 1.1-1.36-1.3-1.04-1.1 1.36 1.3 1.04Zm6.18 4.97 1.1-1.36-5.22-4.21-1.1 1.36 5.22 4.21Zm-4.07 4.25 1.24-1.15-6.65-7.15-1.28 1.19 2.62 2.81h-.02c-.81-.1-1.47.1-2.11.7-1.51 1.41-.94 3.12.32 4.47 1.25 1.35 2.96 2.06 4.46.67.6-.56.95-1.24.89-2.07h.02l.51.54Zm-4.54-.38c-.61-.66-1.23-1.78-.4-2.55.82-.76 1.96-.19 2.6.5.65.7 1.21 1.85.36 2.64-.84.78-1.92.09-2.55-.59m-3.25 4.44c-.34.67-.78 1.32-1.49 1.79-.9.6-1.87.5-2.53-.36l3.87-2.55c-1.29-1.96-2.81-3-4.89-1.63-1.74 1.15-1.72 3.05-.65 4.67 1.21 1.84 2.99 2.2 4.84.98.78-.52 1.3-1.07 1.64-1.71l-.78-1.19Zm-4.68.43c-.43-.79-.39-1.63.43-2.17.81-.54 1.54-.14 2.05.53l-2.48 1.64Zm-12.52 9.78 1.64-.62-2.66-6.99v-.04l4.97 6.14 1.63-.62-.38-7.88h.03l2.66 7 1.64-.62-3.23-8.5-2.73 1.04.43 7.21h-.02l-4.47-5.66-2.73 1.04 3.23 8.5Zm-12.12 1.43 1.69-.07-.37-9.76-1.75.07.15 3.84h-.03c-.55-.61-1.17-.9-2.04-.86-2.06.07-2.75 1.75-2.68 3.6.07 1.84.89 3.49 2.95 3.42.82-.03 1.52-.32 2.02-.99h.03l.03.75Zm-3.2-3.26c-.04-.9.23-2.15 1.36-2.19 1.12-.04 1.61 1.14 1.64 2.07.04.95-.3 2.18-1.45 2.23-1.15.05-1.52-1.18-1.55-2.11m-11.77 1.99 1.72.29.53-3.23c.14-.85.64-2.15 1.88-1.95 1.1.19.93 1.28.8 2.09l-.58 3.53 1.72.29.69-4.17c.24-1.49-.25-2.71-1.82-2.97-.9-.15-1.68.03-2.35.7h-.02l.15-.91-1.64-.27-1.09 6.61Zm-1.92-7.48-1.64-.58-1.09 3.09c-.29.81-1 2.01-2.19 1.59-1.06-.37-.7-1.42-.43-2.19l1.19-3.37-1.64-.58-1.41 3.99c-.5 1.43-.22 2.71 1.27 3.24.86.3 1.71.16 2.43-.27h.02l-.3.87 1.56.55 2.23-6.33Zm-19.48-2.43 1.44.99 1.4-2.02c.55-.79 1.56-2.25 2.72-1.44.26.18.48.4.56.56l1-1.44c-.12-.15-.27-.25-.41-.35-.86-.59-2.05-.13-2.46.33h-.02l.87-1.27-1.27-.88-3.82 5.51Zm1.29-7.52-1.28-1.19-2.23 2.41c-.58.63-1.72 1.44-2.64.58-.82-.76-.07-1.58.48-2.18l2.44-2.62-1.28-1.19-2.89 3.1c-1.03 1.1-1.29 2.4-.13 3.48.67.62 1.5.83 2.34.72h.02l-.62.68 1.21 1.12 4.57-4.91Zm-11.83-5.96c-1.05.81-1.27 1.92-.44 3 .32.41.61.7.91.92l1.07-.88c-.21-.07-.44-.27-.63-.52-.41-.53-.07-.98.38-1.32l2.48-1.9.94 1.23 1.01-.78-.94-1.23 1.51-1.15-1.5-1.04-1.07.81-.78-1.02-1.01.78.78 1.02-2.71 2.08Zm-4.62-7.31c.9-.5 1.58.44 1.96 1.12l.37.66c-.46.25-.91.42-1.38.36-.45-.06-.86-.31-1.12-.78-.31-.54-.33-1.08.17-1.36m2.12-2.2c.67.3 1.29.8 1.65 1.45.5.9.42 1.49-.53 2.02l-.47-.84c-.36-.64-.83-1.35-1.44-1.78-.61-.42-1.35-.56-2.23-.07-1.12.62-1.18 1.98-.6 3.02.38.7 1.18 1.25 2.02 1.24v.02c-.16.11-.55.33-.82.56l.75 1.34c.44-.29.83-.54 1.27-.8.42-.25.86-.51 1.45-.84l.75-.42c1.72-.97 2.06-2.12 1.06-3.9-.36-.64-.98-1.35-1.58-1.78l-1.27.78Zm-8.53-9.14.54 1.66 6.47-2.1v.02l-5.39 5.41.69 2.12 8.64-2.8-.54-1.66-6.47 2.1v-.02l5.39-5.39-.7-2.13-8.64 2.8Zm111.35-26.42-.88.21v-.03c.62-.65.75-1.39.54-2.25-.47-1.95-2.48-2.32-4.05-1.93-1.75.42-3.11 1.54-2.64 3.46.23.95.9 1.59 1.53 1.77v.03c-1.12.27-2.55.53-3-1.34-.13-.53-.04-1.45.1-2.03l-1.48.21c-.14.9-.06 1.69.11 2.36.67 2.73 2.51 3.03 4.28 2.6l5.88-1.44-.4-1.62Zm-5.59-.3c-.24-.98.74-1.71 1.62-1.92 1-.24 2.15-.13 2.43 1.01.24.98-.56 1.64-1.68 1.91-1.08.27-2.12.07-2.38-1m-5.93-11.83.7 1.6 3-1.32c.78-.34 2.15-.64 2.66.52.45 1.02-.56 1.48-1.31 1.81l-3.28 1.44.7 1.6 3.88-1.69c1.38-.61 2.13-1.69 1.49-3.14-.36-.84-.93-1.4-1.86-1.59v-.02l.83-.36-.67-1.52-6.14 2.69Zm3.2-7.19-1.03-1.41-2.65 1.93c-.7.51-1.96 1.1-2.7.07-.66-.9.22-1.57.89-2.05l2.89-2.11-1.03-1.41-3.42 2.49c-1.22.89-1.72 2.11-.78 3.39.54.74 1.32 1.1 2.16 1.15v.02l-.73.54.98 1.33 5.42-3.94Zm-12.42-7.18c-.92.95-.98 2.08 0 3.04.37.36.7.61 1.03.79l.92-1.02c-.21-.04-.47-.21-.7-.42-.47-.47-.21-.95.19-1.36l2.18-2.23 1.11 1.08.89-.92-1.11-1.08 1.33-1.36-1.64-.82-.94.96-.92-.9-.89.92.92.9-2.38 2.43Zm-7.15-2.99 1.41 1.03 3.2-4.39 1.23.9.75-1.03-1.23-.9.49-.67c.31-.42.75-.73 1.23-.38.3.22.4.47.47.64l.97-1.08c-.23-.27-.59-.61-.95-.87-1.12-.81-2.27-.5-3.06.58l-.56.75-1.04-.76-.75 1.03 1.04.75-3.2 4.39Zm-1.78-10.18 1.52.85.81-1.46-1.52-.85-.81 1.46Zm-3.87 6.92 1.52.85 3.27-5.85-1.52-.85-3.27 5.85Zm-5.57-4.43c-.47 1.24-.07 2.3 1.21 2.79.49.18.88.28 1.27.31l.44-1.31c-.21.04-.52 0-.81-.11-.62-.24-.58-.79-.37-1.32l1.11-2.92 1.44.55.45-1.19-1.45-.55.67-1.78-1.83-.1-.47 1.25-1.21-.46-.45 1.19 1.21.46-1.22 3.19Zm-3.66-8.15c-.61-.34-1.31-.58-2.07-.73-1.58-.3-3.26.13-3.64 2.12-.56 2.95 3.48 3 3.15 4.7-.16.81-1.12.98-1.81.85-.7-.13-1.37-.49-1.92-.94l-.47 1.58c.84.38 1.25.6 2.22.78 1.81.35 3.49-.1 3.86-2.06.58-2.99-3.46-3.09-3.17-4.63.19-.97 1.03-1.09 1.64-.97.63.12 1.23.38 1.74.73l.46-1.45Zm-10.29 4.8.05-1.43-3.43-.13-.05 1.43 3.43.13Zm-7.75-3.68c-.56-.05-1.1-.13-1.92-.03-1.36.16-2.54.93-2.38 2.37.27 2.4 3.19 1.17 3.34 2.47.07.64-.61.9-1.04.95-.6.07-1.18-.04-1.76-.24l.06 1.44c.65.1 1.34.13 2 .06 1.41-.16 2.72-.94 2.55-2.49-.27-2.41-3.21-1.39-3.33-2.45-.07-.57.47-.8.94-.86.64-.07 1.04-.01 1.58.11l-.04-1.32Zm-13.13 9.63 1.67-.5-.93-3.15c-.24-.82-.37-2.21.84-2.58 1.07-.32 1.4.74 1.64 1.52l1.02 3.43 1.67-.5-1.21-4.06c-.43-1.45-1.41-2.32-2.93-1.87-.87.26-1.5.76-1.81 1.65h-.02l-.26-.87-1.58.47 1.9 6.42Zm-4.47.13c-.41.63-.9 1.24-1.65 1.64-.95.5-1.91.32-2.49-.61l4.1-2.16c-1.1-2.07-2.51-3.26-4.71-2.09-1.84.97-2.01 2.87-1.1 4.59 1.03 1.95 2.76 2.47 4.72 1.44.83-.44 1.39-.94 1.79-1.55l-.66-1.25Zm-4.7-.03c-.35-.83-.23-1.66.64-2.12.87-.46 1.55 0 1.99.73l-2.63 1.38Zm-5.84 6.51c.81 1.05 1.92 1.27 3 .44.41-.32.7-.61.93-.91l-.88-1.07c-.07.21-.27.44-.52.63-.53.41-.98.07-1.32-.38l-1.9-2.48 1.23-.94-.78-1.01-1.23.94-1.15-1.51-1.04 1.5.81 1.07-1.02.78.78 1.01 1.02-.78 2.08 2.71Zm-6.84.01c-.47.31-.93.6-1.5 1.18-.95.98-1.38 2.32-.35 3.34 1.73 1.69 3.21-1.11 4.15-.18.47.45.1 1.07-.21 1.39-.41.43-.94.72-1.52.92l.95 1.07c.57-.34 1.12-.74 1.59-1.21.99-1.01 1.52-2.45.4-3.54-1.73-1.69-3.37.95-4.13.21-.41-.4-.14-.92.19-1.26.44-.46.79-.67 1.3-.92l-.87-1Zm-2.49 13.39 1.03-1.41-1.99-1.45c-.78-.56-2.21-1.61-1.37-2.75.19-.25.41-.47.58-.55l-1.42-1.04c-.15.12-.26.27-.36.4-.61.84-.19 2.04.27 2.47v.02l-1.24-.9-.91 1.25 5.41 3.95Zm-5.58 6.43c-.92-.46-.53-1.55-.18-2.25l.33-.67c.47.23.87.52 1.07.94.21.41.23.88 0 1.36-.27.55-.71.87-1.22.62m-3.01-.5c-.13-.72-.06-1.51.27-2.18.46-.93 1-1.19 1.97-.71l-.43.87c-.33.65-.65 1.45-.65 2.19s.3 1.43 1.21 1.88c1.14.57 2.3-.15 2.83-1.21.36-.71.37-1.68-.12-2.37v-.02c.21.08.61.27.95.38l.68-1.38c-.48-.2-.92-.38-1.38-.6-.45-.21-.91-.42-1.52-.73l-.77-.38c-1.78-.88-2.91-.5-3.82 1.33-.33.67-.56 1.57-.58 2.32l1.37.61Zm1.55 5.3c.1.47.03 1.33-.16 2.02-.51 1.87-2.15 2.62-3.94 2.13-1.8-.49-2.87-1.99-2.38-3.8.17-.63.42-1.21.98-1.78l-1.45-.53c-.42.58-.75 1.31-.9 1.89-.81 2.98.38 5.27 3.39 6.08 2.97.8 4.92-.78 5.69-3.63.18-.67.24-1.39.27-2.07l-1.49-.33Z" class="cls-2"/>
</svg>
