<svg xmlns="http://www.w3.org/2000/svg" viewBox="0 0 204.93 66.05" width="204.93" height="66.05">
  <defs>
    <style>
      .cls-1{fill:#666}
    </style>
  </defs>
  <path d="M85.86 66.05h3.57l1.8-4.64c-3.67 3.06-4.96 4.23-5.37 4.64Zm94.59-4.61-4.62 4.61h9.64c-.94-.19-4.37-1.11-5.02-4.61Zm5.18-15.28h-6.47l-5.11 12.81h6.46l5.12-12.81zm9.59-22.59c0-.63-.53-.68-.85-.68h-1.59v1.4h1.48c.47 0 .96-.1.96-.71ZM79.75 46.16h-6.46l-5.12 12.81h6.47l5.11-12.81z" class="cls-1"/>
  <path d="M193.98 27.91c1.91 0 3.46-1.55 3.46-3.46 0-.92-.36-1.79-1.01-2.45-.66-.65-1.52-1.01-2.45-1.01s-1.79.36-2.45 1.01c-.66.66-1.01 1.52-1.01 2.45s.36 1.79 1.01 2.45c.65.66 1.52 1.01 2.45 1.01Zm-1.84-5.5h2.19c.78 0 1.56.23 1.56 1.11 0 .6-.36.83-.65.98.27.1.54.2.57.77l.04.74c0 .23.04.31.23.41v.09h-.78c-.09-.25-.11-.87-.11-1.03 0-.33-.08-.73-.85-.73h-1.55v1.76h-.64V22.4ZM31.89 66.05h6.63l7.74-19.89h-6.92l-7.45 19.89zm-16.54 0h6.91l8.8-24.55h-6.31l-9.4 24.55zm58.88-4.68c-3.83 3.13-5.15 4.27-5.57 4.68h8.77c-2.98-1.45-3.19-4.68-3.19-4.68Zm85.36 4.68h9.35c-.88-.19-4.07-1.11-4.58-4.61l-4.77 4.61Zm-20.3 0h8.78c-1.05-.47-3.53-1.83-3.88-4.46l-4.9 4.46Zm-40.15 0h9.64l-4.3-13.92-5.34 13.92zm19.83 0h8.47c-1.18-.37-3.1-1.44-3.71-4.61l-4.76 4.61Z" class="cls-1"/>
  <path d="m29.41 28.4-1.65 4.95h15.95l-1.81 5.09h16.09l-7.37 20.23h7.52l5.87-14.56s2.25-5.68 7.52-5.68h20.31l-7.22 20.38h7.52l11.58-30.43h9.18l-7.07 20.09 10.53-10.04h10.98L114.1 51.39l1.96 7.57 8.12-.07 8.12-20.6h9.18l-7.37 20.53h10.53l5.26-13.83h-6.17l2.41-6.7h5.87l4.06-9.9h9.48L161.94 38h5.57l-2.26 6.84h-6.02l-4.96 13.83h10.53l4.96-13.25s2.1-6.84 8.28-6.99h19.86l-7.37 20.23h14.41V0H0v28.4h29.41Zm164.57-7.78c1.03 0 1.99.39 2.71 1.12.72.72 1.12 1.69 1.12 2.71s-.39 1.99-1.12 2.71c-.73.72-1.69 1.12-2.71 1.12s-1.99-.39-2.71-1.12c-.71-.72-1.12-1.69-1.12-2.7 0-2.12 1.71-3.84 3.83-3.85Zm-58.21 7.72h9.17l-2.71 7.58h-9.17l2.71-7.58ZM51.64 66.05h9.65c-2.57-1.28-3.38-4.53-3.38-4.53-3.64 2.67-5.87 4.25-6.27 4.53Z" class="cls-1"/>
  <path d="M16.78 36.84H0v29.21h5.73l11.05-29.21z" class="cls-1"/>
</svg>
