<svg xmlns="http://www.w3.org/2000/svg" viewBox="0 0 300 300" width="300" height="300">
  <defs>
    <style>
      .cls-2{fill:#666}
    </style>
  </defs>
  <path d="M58.81 126.93h26.85v15.21H58.81v-15.21Zm11.71 30.92H85.7v15.21H70.52v-15.21Zm-33.34-30.94H22v46.18h15.18l21.63-15.24V142.2l-21.63 15.65v-30.94Zm87.7 10.7h-4.32l-10.26 10.75v-10.75h-3.28v24.19h3.28V153l2.06-2.18 8.79 10.98h4.18l-10.78-13.29 10.33-10.9Zm13.92 7.66c-1.31-.77-2.83-1.16-4.56-1.16s-3.18.39-4.49 1.16-2.34 1.84-3.08 3.2c-.74 1.36-1.1 2.92-1.1 4.7s.38 3.34 1.12 4.7c.75 1.36 1.78 2.42 3.09 3.2 1.31.77 2.83 1.16 4.56 1.16s3.17-.39 4.48-1.16c1.3-.77 2.32-1.84 3.06-3.2.74-1.36 1.1-2.92 1.1-4.7s-.37-3.34-1.1-4.7c-.74-1.36-1.76-2.42-3.08-3.2Zm.17 11.04c-.46.9-1.09 1.61-1.88 2.13-.8.52-1.71.78-2.75.78s-2-.26-2.83-.78c-.83-.52-1.47-1.23-1.93-2.13-.46-.9-.69-1.95-.69-3.15s.23-2.22.69-3.13c.46-.91 1.09-1.63 1.9-2.14.81-.52 1.74-.78 2.8-.78s1.96.26 2.78.78 1.46 1.23 1.92 2.13c.46.9.69 1.95.69 3.15s-.23 2.25-.69 3.15Zm18.04 2.06c-.83.54-1.77.81-2.83.81s-1.97-.26-2.8-.78c-.83-.52-1.47-1.23-1.93-2.13-.46-.9-.69-1.93-.69-3.11s.23-2.22.69-3.13c.46-.91 1.09-1.62 1.9-2.13.81-.51 1.73-.76 2.76-.76s2 .24 2.82.73 1.44 1.15 1.88 2l2.97-1.25c-.67-1.45-1.68-2.57-3.03-3.35-1.35-.78-2.86-1.18-4.54-1.18s-3.22.39-4.54 1.16c-1.33.77-2.36 1.84-3.11 3.2s-1.12 2.92-1.12 4.7.38 3.34 1.12 4.7c.75 1.36 1.79 2.42 3.13 3.2 1.34.77 2.87 1.16 4.6 1.16s3.23-.43 4.58-1.28c1.35-.85 2.35-2.04 3.03-3.56l-3.01-1.21c-.42.92-1.04 1.66-1.87 2.2Zm19.83-13.42c-.99-.55-2.17-.83-3.53-.83s-2.58.35-3.58 1.04c-.69.48-1.27 1.11-1.75 1.89v-9.42h-3.25v24.19h3.25v-8.99c0-1.8.39-3.19 1.18-4.18.78-.99 1.89-1.48 3.32-1.48.81.02 1.52.19 2.16.52.63.32 1.13.89 1.5 1.71.37.82.55 2.01.55 3.58v8.84h3.25v-9.71c.02-1.89-.24-3.41-.8-4.58-.55-1.16-1.33-2.02-2.31-2.58Zm20.56 6.01h10.06v-3.04H197.4v-7.19h11.16v-3.11h-14.55v24.19h14.62v-3.11H197.4v-7.74Zm25.42 2.06c-.74-.56-1.67-.98-2.8-1.26l-1.87-.45c-.88-.23-1.54-.52-1.98-.88s-.67-.73-.67-1.12c0-.71.27-1.27.8-1.68s1.26-.6 2.18-.6 1.68.16 2.35.5c.67.34 1.14.85 1.42 1.54l2.76-1.25c-.26-.76-.69-1.42-1.3-1.97-.61-.55-1.35-.98-2.21-1.28s-1.81-.45-2.85-.45c-2.12 0-3.72.46-4.8 1.38-1.08.92-1.63 2.22-1.63 3.91 0 1.1.44 2.1 1.33 2.97.89.88 2.14 1.53 3.75 1.97l1.63.42c.92.23 1.63.53 2.11.9s.73.88.73 1.52-.32 1.19-.97 1.55c-.64.37-1.46.55-2.45.55-.9 0-1.72-.23-2.45-.69-.74-.46-1.29-1.05-1.66-1.76l-2.83 1.25c.32.78.81 1.48 1.47 2.11s1.46 1.11 2.42 1.48c.96.37 2.04.55 3.26.55s2.35-.21 3.33-.62c.98-.42 1.75-1.01 2.31-1.78s.85-1.68.85-2.71c0-.76-.19-1.49-.55-2.2-.37-.71-.92-1.34-1.66-1.9h-.01Zm15.9.01c-.74-.56-1.67-.98-2.8-1.26l-1.87-.45c-.88-.23-1.54-.52-1.98-.88-.45-.36-.67-.73-.67-1.12 0-.71.27-1.27.8-1.68.53-.4 1.26-.6 2.18-.6s1.68.16 2.35.5c.67.34 1.14.85 1.42 1.54l2.76-1.25c-.26-.76-.69-1.42-1.3-1.97-.61-.55-1.35-.98-2.21-1.28-.86-.3-1.81-.45-2.85-.45-2.12 0-3.72.46-4.8 1.38-1.08.92-1.63 2.22-1.63 3.91 0 1.1.44 2.1 1.33 2.97.89.88 2.14 1.53 3.75 1.97l1.63.42c.92.23 1.63.53 2.11.9s.73.88.73 1.52-.32 1.19-.97 1.55c-.64.37-1.46.55-2.45.55-.9 0-1.72-.23-2.45-.69-.74-.46-1.29-1.05-1.66-1.76l-2.83 1.25c.32.78.81 1.48 1.47 2.11s1.46 1.11 2.42 1.48c.96.37 2.04.55 3.26.55s2.35-.21 3.33-.62c.98-.42 1.75-1.01 2.31-1.78s.85-1.68.85-2.71c0-.76-.19-1.49-.55-2.2-.37-.71-.92-1.34-1.66-1.9h-.01Zm19.91-4.31c-.68-1.46-1.62-2.59-2.82-3.38-1.2-.8-2.59-1.19-4.18-1.19-1.68 0-3.17.39-4.48 1.16-1.3.77-2.32 1.84-3.06 3.2-.74 1.36-1.1 2.92-1.1 4.7s.37 3.34 1.1 4.7c.74 1.36 1.75 2.42 3.04 3.2 1.29.77 2.78 1.16 4.46 1.16 1.25 0 2.37-.19 3.37-.55 1-.37 1.87-.89 2.61-1.57.74-.68 1.34-1.47 1.8-2.37l-2.83-1.31c-.44.83-1.04 1.51-1.81 2.06-.77.54-1.73.81-2.88.81-1.06 0-2-.24-2.83-.71-.83-.47-1.48-1.16-1.97-2.05-.42-.77-.64-1.66-.7-2.66h13.31c0-1.98-.34-3.7-1.02-5.16Zm-11.37.45c.49-.72 1.13-1.26 1.9-1.64s1.57-.57 2.4-.57 1.62.19 2.31.57c.69.38 1.25.93 1.66 1.66.34.6.53 1.3.6 2.09h-9.58c.07-.81.3-1.52.71-2.11Zm29.94-1.63c-.54-1.16-1.31-2.02-2.31-2.58-1-.55-2.18-.83-3.54-.83s-2.58.35-3.58 1.04c-.7.48-1.28 1.12-1.75 1.9l-.16-2.53h-3.08v17.28h3.28v-8.99c0-1.8.39-3.19 1.18-4.18.78-.99 1.88-1.48 3.28-1.48.83.02 1.56.19 2.2.52.63.32 1.13.89 1.48 1.71.36.82.53 2.01.53 3.58v8.84h3.28v-9.71c0-1.89-.27-3.41-.81-4.58Z" class="cls-2"/>
</svg>
