<svg xmlns="http://www.w3.org/2000/svg" viewBox="0 0 300 300" width="300" height="300">
  <defs>
    <style>
      .cls-2{fill:#999}.cls-3{fill:#666}
    </style>
  </defs>
  <path d="M99.49 133.43c.51-1.37-.04-1.85-1.03-2.27-1.07-.43-2.79-.77-4.37-.77-4.76 0-9.57 2.75-9.57 8.93v.41h-1.76c-1.25 0-1.97.68-1.97 1.97v1.46c0 1.25.73 1.97 1.97 1.97h1.76v14.35c0 1.25.69 1.97 1.93 1.97h3.56c1.25 0 1.93-.73 1.93-1.97v-14.36h3.86c1.25 0 1.97-.73 1.97-1.97v-1.46c0-1.29-.73-1.97-1.97-1.97h-3.86v-.41c0-2.19 1.46-3.26 3.13-3.26.51 0 1.07.13 1.54.3 1.2.34 1.72.04 2.15-1.03l.73-1.89Zm14.85 8.4c.34-1.25-.34-1.59-1.07-1.85-.8-.27-1.35-.39-2.7-.47-1.65-.11-2.59.47-3.53 1.54-.16-.77-.84-1.34-1.65-1.34h-4.08c-.92.01-1.66.76-1.66 1.69v18.07c0 1.25.69 1.97 1.93 1.97h3.56c1.25 0 1.93-.73 1.93-1.97v-9.65c0-2.53.96-4.02 2.41-4.05.73-.01 1.54.21 2.23.43.73.3 1.46.04 1.8-1.16l.82-3.22Zm22.72 8.43c0-2.96-1.16-5.79-3.13-7.77-1.85-1.85-4.68-3.04-8.11-3.04-6.74 0-11.54 4.76-11.54 11.24s5.02 11.33 11.89 11.33c3.39 0 6.59-1.11 8.52-3.18.51-.56.86-1.29-.09-2.19l-1.54-1.67c-.82-.86-1.46-.56-2.23.04-1.54 1.07-2.26 1.59-3.8 1.59-2.83 0-5.23-1.42-5.58-4.29h13.65c1.59 0 1.97-.56 1.97-2.06Zm-15.58-2.14c.35-2.3 2-3.57 4.16-3.57 1.25 0 2.54.43 3.32 1.2.6.6 1.07 1.29 1.28 2.37h-8.76Zm79.92 11.35v-10.68c0-5.71-3.69-9.35-8.92-9.35-2.3 0-4.07.77-5.4 1.97 0-.93-.75-1.69-1.69-1.69h-4.05c-.93 0-1.69.75-1.69 1.69v18.07c0 1.25.69 1.97 1.93 1.97h3.56c1.25 0 1.93-.73 1.93-1.97v-10.13c0-2.15 1.33-3.61 3.47-3.61s3.39 1.46 3.39 3.61v10.13c0 1.25.73 1.97 1.97 1.97h3.52c1.25 0 1.97-.73 1.97-1.97Zm23.99-19.77h-4.04c-.8 0-1.47.56-1.65 1.3-1.58-.99-3.44-1.58-5.52-1.58-6.23 0-10.75 4.94-10.75 11.31s4.56 11.31 10.75 11.31c2.19 0 4.05-.67 5.56-1.76.22.68.86 1.16 1.61 1.16h4.04c.93 0 1.69-.75 1.69-1.69V141.4c0-.93-.75-1.69-1.69-1.69Zm-10 15.97c-2.71 0-4.6-2.15-4.6-4.94s1.89-4.94 4.6-4.94 4.6 1.93 4.6 4.94-2.07 4.94-4.6 4.94Zm27.74-16.25c-2.05 0-3.91.6-5.49 1.58-.18-.75-.84-1.3-1.64-1.3h-4.05c-.93 0-1.69.75-1.69 1.69v26.23c0 1.25.69 1.97 1.93 1.97h3.56c1.25 0 1.93-.73 1.93-1.97v-7.16c1.54.99 3.39 1.54 5.45 1.54 6.22 0 10.73-4.98 10.73-11.28s-4.55-11.29-10.73-11.29Zm-1.25 16.22c-2.58 0-4.59-1.93-4.59-4.94s2.02-4.94 4.59-4.94c2.75 0 4.64 2.15 4.64 4.94s-1.89 4.94-4.64 4.94Zm29.8-24.5c-1.07-.43-2.79-.77-4.38-.77-4.76 0-9.57 2.75-9.57 8.93v.41h-1.76c-1.25 0-1.97.68-1.97 1.97v1.46c0 1.25.73 1.97 1.97 1.97h1.76v14.35c0 1.25.68 1.97 1.93 1.97h3.56c1.25 0 1.93-.73 1.93-1.97V145.1h3.86c1.25 0 1.97-.73 1.97-1.97v-1.46c0-1.29-.73-1.97-1.97-1.97h-3.86v-.41c0-2.19 1.46-3.26 3.13-3.26.52 0 1.07.13 1.54.3 1.2.34 1.72.04 2.15-1.03l.73-1.89c.51-1.37-.04-1.85-1.03-2.27Zm-125.93 14.74c0-.68.65-.97 1.77-.94 1.9.05 2.77.51 4.15 1.32 1.11.65 2.05.64 2.78-.31l.99-1.26c1.03-1.29.91-2.1-.08-2.95-1.5-1.29-4.84-2.36-8.02-2.36-5.37 0-8.73 2.61-8.73 6.78 0 4.55 3.84 5.8 8.05 7.09 1.39.43 2.79.95 2.7 1.97-.07.77-.87 1.05-2.01 1.03-2.2-.04-3.62-.89-5.12-1.85-.97-.61-1.89-.99-2.87.21l-1.23 1.46c-1.03 1.16-.82 1.97.17 2.87 1.72 1.59 5.23 3.09 9.01 3.09 5.37 0 9.27-2.53 9.27-6.87 0-3.73-2.48-5.4-6.35-6.95-2.67-1.07-4.47-1.27-4.47-2.34Zm20.62 0c0-.68.65-.97 1.77-.94 1.9.05 2.77.51 4.15 1.32 1.11.65 2.05.64 2.78-.31l.99-1.26c1.03-1.29.91-2.1-.08-2.95-1.5-1.29-4.84-2.36-8.02-2.36-5.37 0-8.73 2.61-8.73 6.78 0 4.55 3.84 5.8 8.05 7.09 1.39.43 2.79.95 2.7 1.97-.07.77-.87 1.05-2.01 1.03-2.2-.04-3.62-.89-5.12-1.85-.97-.61-1.89-.99-2.87.21l-1.23 1.46c-1.03 1.16-.82 1.97.17 2.87 1.72 1.59 5.23 3.09 9.01 3.09 5.37 0 9.27-2.53 9.27-6.87 0-3.73-2.48-5.4-6.35-6.95-2.67-1.07-4.47-1.27-4.47-2.34ZM34.43 135.45c-.62-.24-1.25-.36-1.9-.36-1.2 0-2.44.41-3.71 1.24-1.59 1.04-2.18 3.03-1.4 4.73.59 1.29 1.47 2.25 2.61 2.87 1.49.8 3.43.98 5.72.54 1.24-.24 2.26-1.09 2.75-2.27.48-1.18.34-2.51-.39-3.54-1.11-1.6-2.35-2.68-3.69-3.2Zm18.34 0c-.39 1.17-.17 2.46.6 3.44.64.81 1.58 1.32 2.6 1.4.2.01.4.01.6 0 2.29-.2 4.05-.89 5.24-2.06.91-.89 1.48-2.04 1.68-3.41.27-1.82-.82-3.53-2.6-4.07-.81-.25-1.57-.37-2.29-.37-1.22 0-2.3.36-3.23 1.07-1.11.86-1.99 2.2-2.6 4.01Z" class="cls-3"/>
  <path d="M55.87 161.81c-3.1 2.45-5.14 1.36-5.16 1.34 0 0-.14.25-.16.28-.27.49-.57.95-.9 1.39 1 1.26 3.27 2.63 5.98 2.74 1.75.02 3.9-.06 4.49-1.5l.03-.07c1.2-2.99-.41-6.95-4.27-4.18Z" class="cls-2"/>
  <path d="M70.72 154.87c-.37-.7-1.11-1.15-1.79-1.48-.75-.38-1.72-.38-2.65 0-1.01.42-1.79 1.2-2.1 2.09-.05.13-1.24 3.06-4.59 3.94-1.93.51-3.69-.25-5.35-2.33-.53-.66-.99-1.43-1.38-2.3l-.05-.12s.46-.41.62-.58c1.57-1.45 2.57-4.15 1.51-6.18-.7-1.35-2.02-1.6-3.1-1.66-1.45-.09-2.72.1-4.01.59l-.25.07c-1.65.42-3.22.85-4.37 1.47h-.02c-.36.15-.55.29-.89.57-.16.12-.51.47-.59.55-.22.25-.38.47-.5.71-.48.78-.12 1.87.06 2.31.4.97.92 1.64 1.59 2.06l.02.02c.3.26.63.49.99.68.21.13.43.24.65.32.33.16.67.29 1.01.4l.13.04v.14c-.06.92-.21 1.78-.45 2.56-.87 2.8-1.75 3.45-3.5 3.91-3.46.91-5.32-.84-6.22-1.68-.16-.15-.28-.26-.39-.34-.93-.68-1.95-1.34-2.91-1.34-.65 0-1.28.29-1.85 1.07-.97 1.31-1.57 3.24-.35 4.69.15.18 3.88 4.55 9.77 4.55.76 0 1.53-.07 2.29-.22.11-.02.23-.04.35-.07 3.03-.66 5.49-2.21 7.23-4.51.33-.43.63-.9.9-1.39.02-.03.15-.28.16-.28.02.02 2.06 1.11 5.16-1.34 3.86-2.77 5.47 1.19 4.27 4.18.19-.02.79-.12.91-.14 2.95-.56 5.55-2.15 7.48-4.62 1.43-1.82 2.05-3.5 2.16-3.82.37-1.07.38-1.88.03-2.54Z" class="cls-3"/>
</svg>
