<svg xmlns="http://www.w3.org/2000/svg" viewBox="0 0 132 106.54" width="132" height="106.54">
  <defs>
    <style>
      .cls-1 {
        fill: #666;
      }
    </style>
  </defs>
  <path class="cls-1" d="M12.35,43.4c4.42-.84,7.87-4.1,7.03-8.38-1.3-6.8-12.34-4.8-13.09-8.66-.37-1.82,.19-3.4,1.26-3.59,1.44-.28,2.7,1.54,3.21,3.54,.23,.93,.98,1.3,1.68,1.16,2.33-.47,3.63-2.65,3.31-4.28-.65-3.45-2.79-7.08-8.29-6.01C1.73,18.3-.74,23.75,.19,28.45c1.54,7.82,13.37,6.01,13.79,8.2,.09,.56-.14,.93-1.12,1.12-2.93,.56-7.22-1.58-8.8-1.26-1.07,.19-1.72,2.42-1.26,4.75,.28,1.63,3.91,3.26,9.55,2.14Zm6.85-21.75c.79-.14,1.68-.37,2.52-.56,1.21,7.03,3.31,16.53,3.87,18.12,.33,.93,1.86,1.02,3.63,.7,0,.28,0,.61,.05,.93,.28,1.35,1.4,2.38,3.17,2,1.54-.28,2.33-1.63,1.96-3.59-.19-1.02-1.07-2.33-2.79-2-.14,.05-.28,.09-.47,.14-.19-2.05-1.77-12.34-3.07-18.21,.33-.09,.7-.23,.98-.33,2.61-1.02,3.31-1.58,3.17-2.47-.37-1.86-2.7-3.45-5.22-2.98-3.68,.7-7.96,2.14-9.45,2.89-1.44,.7-1.54,1.58-1.4,2.28,.19,.75,1.68,3.35,3.07,3.07Zm16.77,5.12c1.68,8.71,5.22,10.95,10.95,9.83,5.82-1.12,7.96-4.75,5.82-15.74-.65-3.45-1.68-7.73-2.42-9.92-.37-1.12-2.75-1.44-4.28-1.16-1.02,.19-1.68,.61-1.58,1.54,.56,3.91,2.33,12.9,2.65,14.76,.79,4.15,0,5.03-1.3,5.26s-2.33-.23-3.21-4.8c-.42-2.19-1.16-6.99-1.82-10.43-.28-1.54-.61-2.84-.84-3.45-.42-1.21-2.65-1.26-4.19-.93-1.35,.28-2,.75-1.86,1.82,.33,2.61,1.02,7.68,2.1,13.23h0Zm19.79-12.25c1.21,6.94,3.31,16.58,3.87,18.07,.37,1.07,3.07,.93,6.01,.37,8.24-1.58,10.2-6.75,8.52-15.51-1.96-10.11-5.26-12.39-12.11-11.04-5.26,1.02-9.13,3.03-8.85,4.42,.23,1.12,1.54,3.35,2.56,3.68Zm8.15-2.61c1.86-.37,3.17,1.44,4.15,6.61,1.16,5.96,.47,9.36-2.93,10.01l-.14,.05c-.56-3.96-1.82-11.55-2.84-16.11,.61-.28,1.21-.47,1.77-.56h0Zm16.49,16.63c.37,1.02,2.1,1.02,4.05,.65,1.49-.28,1.72-1.07,1.58-2.33-.19-2.24-2.79-19.14-4.24-22.5-.42-1.02-3.12-.88-4.38-.61-1.4,.28-1.72,.93-1.63,1.82,.79,6.57,3.91,21.1,4.61,22.96h0Zm19.75-2.28c6.33-1.21,7.17-7.87,5.5-16.44C103.96,1.25,99.54-.75,94.37,.23c-5.82,1.12-8.34,7.87-6.52,17.23,1.16,6.01,4.94,10.25,12.3,8.8Zm-4.8-20.26c1.44-.28,3.03,.51,3.82,4.7,1.12,5.78,.56,9.55-1.44,9.92-1.4,.28-3.03-1.35-3.82-5.4-1.12-5.82-.19-8.9,1.44-9.22ZM17.98,74.23c7.45-1.44,9.41-5.87,8.66-9.5-.42-2.24-2.1-3.87-4.89-4.28,2.05-2.05,3.31-4.98,2.65-8.2-.7-3.63-4.05-6.05-10.29-4.84-6.43,1.26-10.15,3.31-9.83,4.94,.14,.75,1.77,3.4,3.59,3.07,.05,0,.09,0,.23-.05,.88,6.61,2.84,15.32,3.35,17.33,.47,1.35,3.35,2.14,6.52,1.54h0Zm2.65-8.15c.42,2.1-.56,3.77-2.93,4.24-.19,.05-.56,.05-.98,.09-.19-1.4-.51-3.31-.84-5.45,.61-.14,1.12-.28,1.58-.37,2.19-.47,2.89,.05,3.17,1.49Zm-5.17-12.76c2.24-.42,2.84,.37,3.07,1.72,.33,1.77,.05,4.01-.47,5.5-.23,.05-.42,.09-.65,.14-.7,.14-1.44,.33-2.24,.56-.47-2.7-1.02-5.45-1.4-7.5,.56-.19,1.16-.33,1.68-.42Zm18.4-7.5c-.42-1.21-2.65-1.26-4.19-.93-1.35,.28-2,.75-1.86,1.82,.37,2.65,1.07,7.73,2.14,13.27,1.68,8.66,5.22,10.95,10.95,9.83,5.82-1.12,7.96-4.75,5.82-15.74-.65-3.45-1.68-7.73-2.42-9.92-.37-1.12-2.75-1.44-4.28-1.16-1.02,.19-1.68,.61-1.58,1.54,.56,3.91,2.33,12.9,2.65,14.76,.79,4.15,0,5.03-1.3,5.26s-2.33-.23-3.21-4.8c-.42-2.19-1.16-6.99-1.82-10.43-.33-1.54-.61-2.84-.88-3.49Z"/>
  <path class="cls-1" d="M38.48,42.6c1.58-.33,2.47-1.63,2.1-3.54-.19-.98-1.07-2.19-2.89-1.82-1.63,.33-2.47,1.77-2.14,3.35,.28,1.26,1.35,2.28,2.93,2Zm25.52,22.03c.37,1.02,2.1,1.02,4.05,.65,1.49-.28,1.72-1.07,1.58-2.33-.19-2.24-2.79-19.14-4.24-22.5-.42-1.02-3.12-.88-4.38-.61-1.4,.28-1.72,.93-1.63,1.82,.37,2.84,1.12,7.17,1.96,11.32-.98,.19-2.42,.51-3.96,.88-.84-4.8-1.86-9.69-2.52-11.32-.42-1.02-3.12-.88-4.38-.61-1.4,.28-1.72,.93-1.63,1.82,.37,3.03,1.21,7.68,2.1,12.02-.33,.14-.65,.23-.88,.37-.33,.14-.42,.51-.28,1.12,.19,1.07,1.16,2.52,2.1,2.84,.7,3.31,1.35,5.87,1.63,6.61,.37,1.02,2.1,1.02,4.05,.65,1.49-.28,1.72-1.07,1.58-2.33-.09-.79-.42-3.35-.93-6.47,1.58-.51,3.07-.98,4.1-1.35,.7,3.59,1.4,6.61,1.68,7.41h0Zm22.64-4.28c1.21,1.02,3.35,.65,4.28,.47,.98-.19,1.3-.98,1.21-1.82-.19-1.86-1.68-12.06-2.89-18.44-.37-1.82-.65-3.31-.93-4.24-.37-1.16-2.93-1.35-4.66-1.02-1.21,.23-1.44,.98-1.26,1.86,.33,1.58,1.82,7.17,3.91,14.44-3.07-5.12-8.1-11.97-10.01-13.55-1.07-.88-3.26-.7-4.38-.47-1.07,.19-1.26,1.07-1.16,2.56,.14,2.14,1.54,10.81,2.65,16.58,.56,2.79,1.02,4.94,1.21,5.4,.65,1.26,3.12,1.16,4.15,.98,1.02-.19,1.49-.84,1.3-1.96-.23-1.12-2.24-9.04-3.73-14.67,2.84,5.45,7.5,11.55,10.29,13.88h0Zm22.78-9.04c-1.72,.33-3.96,1.02-6.24,1.68-.19-1.35-.47-2.98-.7-4.7,2.56-.56,5.5-1.21,6.38-1.54,.88-.28,1.12-.75,.88-2-.23-1.21-2-2.42-3.17-2.24-.98,.19-2.89,.7-4.84,1.44-.33-1.91-.7-3.77-1.07-5.4,2.05-.56,4.01-1.21,5.5-1.77,2.65-1.02,3.35-1.72,3.21-2.65-.33-1.77-2.7-3.26-5.26-2.75-3.91,.75-8.52,2.14-10.06,2.93-1.44,.7-1.54,1.58-1.4,2.28,.09,.51,.75,1.91,1.44,2.75,1.07,6.99,3.17,17,3.63,17.98,.61,1.26,3.54,1.63,4.94,1.35,5.03-.98,8.71-2.14,9.69-2.47,2.33-.88-1.07-5.26-2.93-4.89ZM28.18,99.09c-1.72,.33-3.96,1.02-6.24,1.68-.19-1.35-.47-2.98-.7-4.7,2.56-.56,5.5-1.21,6.38-1.54,.88-.28,1.12-.75,.88-2-.23-1.21-2-2.42-3.17-2.24-.98,.19-2.89,.7-4.84,1.44-.33-1.91-.7-3.77-1.07-5.4,2.05-.56,4.01-1.21,5.5-1.77,2.65-1.02,3.35-1.72,3.21-2.65-.33-1.77-2.7-3.26-5.26-2.75-3.91,.75-8.52,2.14-10.06,2.93-1.44,.7-1.54,1.58-1.4,2.28,.09,.51,.75,1.91,1.44,2.75,1.07,6.99,3.17,17,3.63,17.98,.61,1.26,3.54,1.63,4.94,1.35,5.03-.98,8.71-2.14,9.69-2.47,2.33-.88-1.02-5.26-2.93-4.89h0Zm9.18-13.88c-.37-1.82,.19-3.4,1.26-3.59,1.44-.28,2.7,1.54,3.21,3.54,.23,.93,.98,1.3,1.68,1.16,2.33-.47,3.63-2.65,3.31-4.28-.65-3.45-2.79-7.08-8.29-6.01-5.73,1.12-8.2,6.57-7.27,11.27,1.54,7.82,13.37,6.01,13.79,8.2,.09,.56-.14,.93-1.12,1.12-2.93,.56-7.22-1.58-8.8-1.26-1.07,.19-1.72,2.42-1.26,4.75,.33,1.63,3.96,3.26,9.59,2.14,4.42-.84,7.87-4.1,7.03-8.38-1.35-6.8-12.34-4.84-13.13-8.66h0Zm19.51-3.82c-.37-1.82,.19-3.4,1.26-3.59,1.44-.28,2.7,1.54,3.21,3.54,.23,.93,.98,1.3,1.68,1.16,2.33-.47,3.63-2.65,3.31-4.28-.65-3.45-2.79-7.08-8.29-6.01-5.73,1.12-8.2,6.57-7.27,11.27,1.54,7.82,13.37,6.01,13.79,8.2,.09,.56-.14,.93-1.12,1.12-2.93,.56-7.22-1.58-8.8-1.26-1.07,.19-1.72,2.42-1.26,4.75,.33,1.63,3.96,3.26,9.59,2.14,4.42-.84,7.87-4.1,7.03-8.38-1.35-6.8-12.39-4.8-13.13-8.66h0Zm28.64,6.52c-1.72,.33-3.96,1.02-6.24,1.68-.19-1.35-.47-2.98-.7-4.7,2.56-.56,5.5-1.21,6.38-1.54,.84-.28,1.12-.75,.88-2-.23-1.21-2-2.42-3.17-2.24-.98,.19-2.89,.7-4.84,1.44-.33-1.91-.7-3.77-1.07-5.4,2.05-.56,4.01-1.21,5.5-1.77,2.65-1.02,3.35-1.72,3.21-2.65-.33-1.77-2.7-3.26-5.26-2.75-3.91,.75-8.52,2.14-10.06,2.93-1.44,.7-1.54,1.58-1.4,2.28,.09,.51,.75,1.91,1.44,2.75,1.07,6.99,3.17,17,3.63,17.98,.61,1.26,3.54,1.63,4.94,1.35,5.03-.98,8.71-2.14,9.69-2.47,2.28-.84-1.07-5.22-2.93-4.89h0Zm20.54-18.63c-.37-1.82-.65-3.31-.93-4.24-.37-1.16-2.93-1.35-4.66-1.02-1.21,.23-1.44,.98-1.26,1.86,.33,1.58,1.82,7.17,3.91,14.44-3.07-5.12-8.1-11.97-10.01-13.55-1.07-.88-3.26-.7-4.38-.47-1.07,.19-1.26,1.07-1.16,2.56,.14,2.14,1.54,10.81,2.65,16.58,.56,2.79,1.02,4.94,1.21,5.4,.65,1.26,3.12,1.16,4.15,.98s1.49-.84,1.3-1.96c-.23-1.12-2.24-9.04-3.73-14.67,2.89,5.4,7.55,11.5,10.34,13.83,1.21,1.02,3.35,.65,4.28,.47,.98-.19,1.3-.98,1.21-1.82-.19-1.86-1.72-12.02-2.93-18.4h0Zm18.3,9.55c2.28,.33,2.75-2.75,2.89-7.82,.33-7.22,1.21-32.04,1.21-50.86,0-5.22-.14-9.97-.47-13.51-.33-4.28-4.28-5.68-6.15-5.68-2,0-2.75,2.28-2.89,5.68-.75,29.71,.79,57.61,1.26,66.65,.14,4.19,1.26,5.26,4.15,5.54Zm.33,10.11c-5.36,0-8.76,3.54-8.76,8.43,0,3.82,2.75,7.22,7.96,7.22,4.89,0,8.1-3.21,8.1-8.76,.05-3.03-1.68-6.89-7.31-6.89h0Z"/>
</svg>
