<svg xmlns="http://www.w3.org/2000/svg" viewBox="0 0 205 66.12" width="205" height="66.12">
  <defs>
    <style>
      .cls-1 {
        fill: #fff;
      }

      .cls-2 {
        fill: #666;
      }
    </style>
  </defs>
  <path class="cls-2" d="M.04,66.05H204.97V0H.04V66.05Z"/>
  <path class="cls-1" d="M74.68,58.97l5.11-12.81h-6.46l-5.12,12.81h6.47Zm105.87,0l5.12-12.81h-6.47l-5.11,12.81h6.46Zm-32.32,7.14c-.98-.41-3.64-1.79-4.01-4.52l-4.97,4.53h-11.6c-1.15-.33-3.25-1.35-3.89-4.67l-4.81,4.66h-10.12s-4.32-13.97-4.32-13.97l-5.36,13.97h-9.7l1.82-4.69c-3.88,3.23-5.1,4.36-5.44,4.71h-8.26c-3.09-1.43-3.3-4.75-3.3-4.75-4.03,3.28-5.28,4.38-5.63,4.74h-7.2c-2.66-1.24-3.49-4.59-3.49-4.59-4.03,2.96-6.35,4.59-6.35,4.59h-13.06l7.77-19.95h-6.92l-7.48,19.95h-9.63l8.83-24.61h-6.32l-9.42,24.61H5.74l11.07-29.27H0v-8.44H29.45l-1.65,4.95h15.95l-1.81,5.09h16.09l-7.37,20.23h7.52l5.87-14.56s2.25-5.68,7.52-5.68h20.31l-7.22,20.38h7.52l11.58-30.43h9.18l-7.07,20.09,10.53-10.04h10.98l-13.24,12.96,1.96,7.57,8.12-.07,8.12-20.6h9.18l-7.37,20.53h10.53l5.26-13.83h-6.16l2.41-6.7h5.87l4.06-9.9h9.48l-3.61,9.61h5.57l-2.26,6.84h-6.02l-4.96,13.83h10.53l4.96-13.25s2.1-6.84,8.28-6.99h19.86l-7.37,20.23h14.44v7.42h-19.25s-4.51-.58-5.26-4.66l-4.67,4.66h-6.62s-4.21-.58-4.81-4.66l-4.82,4.67h-11.34Z"/>
  <polygon class="cls-1" points="133.1 35.92 142.27 35.92 144.97 28.34 135.8 28.34 133.1 35.92"/>
  <path class="cls-1" d="M195.88,26.01l-.04-.74c-.03-.57-.3-.67-.57-.77,.29-.15,.65-.38,.65-.98,0-.87-.78-1.11-1.56-1.11h-2.19v4.11h.64v-1.76h1.55c.77,0,.85,.39,.85,.73,0,.15,.02,.78,.11,1.03h.78v-.09c-.19-.09-.22-.18-.23-.41Zm-1.58-1.73h-1.48v-1.4h1.59c.32,0,.85,.05,.85,.68s-.49,.71-.96,.71Z"/>
  <path class="cls-1" d="M196.73,21.74c-.73-.73-1.69-1.12-2.71-1.12-2.12,0-3.84,1.73-3.83,3.85,0,1.01,.4,1.98,1.12,2.7,.73,.73,1.69,1.12,2.71,1.12s1.99-.4,2.71-1.12c.73-.73,1.12-1.69,1.12-2.71s-.4-1.99-1.12-2.71Zm-2.71,6.17c-.92,0-1.79-.36-2.45-1.01-.66-.66-1.01-1.52-1.01-2.45s.36-1.79,1.01-2.45c.65-.66,1.52-1.01,2.45-1.01s1.79,.36,2.45,1.01c.65,.66,1.01,1.52,1.01,2.45,0,1.91-1.55,3.46-3.46,3.46Z"/>
</svg>
