<svg xmlns="http://www.w3.org/2000/svg" width="29" height="35" viewBox="0 0 29 35">
  <path fill="#ffffff" d="M10.56 15.68c-.47 5.49-1.69 10.82-3.6 16-.47 1.26.15 2.68 1.38 3.16s2.61-.16 3.07-1.42c1.35-3.67 2.38-7.4 3.08-11.21.7 3.81 1.73 7.54 3.08 11.21.47 1.26 1.84 1.9 3.07 1.42 1.23-.48 1.85-1.9 1.38-3.16-1.91-5.17-3.13-10.5-3.6-15.99 2.85-.14 5.71-.45 8.56-.93 1.3-.22 2.18-1.48 1.97-2.81-.21-1.33-1.44-2.24-2.73-2.03-7.83 1.31-15.66 1.26-23.49 0-1.3-.21-2.52.71-2.72 2.05-.2 1.33.69 2.59 1.98 2.8 2.85.46 5.7.77 8.55.92ZM15.29 0c2.37 0 4.3 1.98 4.3 4.42s-1.93 4.42-4.3 4.42-4.3-1.98-4.3-4.42S12.92 0 15.29 0Z"/>
</svg>
