<svg xmlns="http://www.w3.org/2000/svg" xmlns:xlink="http://www.w3.org/1999/xlink" viewBox="0 0 868.34 349.9" width="868.34" height="349.9">
  <defs>
    <path id="reuse-0" d="M48.34 22.93h820v313h-820z" class="cls-1"/>
    <path id="reuse-1" d="M149.53 166.25c-.6.11-1.2.2-1.81.27.61-.05 1.23-.16 1.81-.27Z" class="cls-1"/>
    <path id="reuse-2" d="M154.25 151.21c.18-.02.38-.05.56-.09-.18.01-.36.07-.56.09Z" class="cls-1"/>
    <path id="reuse-3" d="M154.25 151.21s.02-.02 0 0c.02-.02.02 0 0 0Z" class="cls-1"/>
    <path id="reuse-4" d="M151.28 165.92c-1.14.2-2.29.42-3.5.62 0 0-.02 0-.02.02.61-.09 1.21-.18 1.81-.27.56-.12 1.14-.24 1.72-.36Z" class="cls-9"/>
    <path id="reuse-5" d="M154.27 151.19s0 .02 0 0l-.02.02c.18-.02.38-.05.56-.09.76-.11 1.5-.24 2.22-.42-.91.16-1.81.32-2.77.49Z" class="cls-9"/>
  </defs>
  <defs>
    <clipPath id="clippath">
      <path d="M181.27 24.41c-4.9 2.89-13.05 11.08-22.74 22.96l8.91 16.85c6.27-8.95 12.64-17.03 19.05-23.91.51-.54.74-.8.74-.8-.24.25-.51.54-.74.8-2.08 2.28-8.39 9.65-17.89 24.26 9.16-.45 23.23-2.33 34.71-4.29 3.43-19.14-3.34-27.89-3.34-27.89s-8.61-13.92-18.69-7.97Z" class="cls-1"/>
    </clipPath>
    <clipPath id="clippath-1">
      <use xlink:href="#reuse-0" class="cls-1"/>
    </clipPath>
    <clipPath id="clippath-2">
      <use xlink:href="#reuse-0" class="cls-1"/>
    </clipPath>
    <clipPath id="clippath-3">
      <path d="M141.12 107.76c2.71-5.08 5.46-10.03 8.22-14.84 2.88-5.03 5.81-9.87 8.75-14.57.16-.27.36-.56.52-.83 2.91-4.61 5.86-9.05 8.81-13.29l-8.91-16.84c-.67.81-1.34 1.64-2.02 2.51-2.59 3.22-5.24 6.65-7.99 10.32-3.09 4.12-6.25 8.53-9.49 13.16-2.96 4.27-6 8.73-9.04 13.38-2.59 3.94-5.15 7.99-7.72 12.14-.09.14-.18.31-.27.47l11.62 22.95c2.46-4.97 4.99-9.83 7.52-14.57Z" class="cls-1"/>
    </clipPath>
    <clipPath id="clippath-4">
      <path d="M88.2 237.03c-1.53 4.21-3.09 8.53-4.62 12.92-.02.05-.04.12-.07.18-.21.61-.45 1.25-.65 1.86-1.05 2.96-1.95 5.64-4.03 11.7 3.41 1.55 6.16 5.68 8.77 10.34-.27-4.83-2.26-9.36-6.07-12.87 16.86.76 31.4-3.5 38.92-15.83.67-1.1 1.28-2.24 1.84-3.49-3.42 4.34-7.66 6.16-15.64 5.73-.02 0-.03.01-.06.01.02 0 .03-.01.06-.01 11.75-5.26 17.62-10.3 22.85-18.66 1.23-1.99 2.44-4.14 3.67-6.54-10.27 10.54-22.14 13.54-34.67 11.26l-9.4 1.03c-.31.8-.58 1.57-.89 2.37Z" class="cls-1"/>
    </clipPath>
    <clipPath id="clippath-5">
      <path d="M92.59 216.01c2.02-5.24 4.12-10.56 6.25-15.91 2.06-5.14 4.16-10.3 6.32-15.47 2.17-5.17 4.38-10.39 6.62-15.6 2.28-5.3 4.62-10.58 7.03-15.83 2.37-5.21 4.75-10.38 7.19-15.47.87-1.84 1.77-3.69 2.66-5.52 1.53-3.16 3.09-6.3 4.66-9.41.09-.16.16-.34.25-.51l-11.62-22.96c-.18.31-.38.63-.58.92-2.71 4.43-5.41 8.95-8.04 13.56-2.68 4.66-5.3 9.42-7.86 14.24-2.15 4.07-4.27 8.15-6.34 12.31-.42.83-.82 1.68-1.23 2.52-2.53 5.22-4.81 10.23-6.89 15.09-2.35 5.48-4.41 10.72-6.2 15.69-1.2 3.27-2.26 6.42-3.25 9.45-.81 2.59-1.57 5.19-2.33 7.77-1.74 6.07-3.24 12.15-4.47 18.18l11.68 23.04c1.54-4.12 3.13-8.31 4.75-12.54.49-1.21.92-2.4 1.4-3.56Z" class="cls-1"/>
    </clipPath>
    <clipPath id="clippath-6">
      <path d="M74.64 209.85c-1.47 7.38-2.52 14.71-3.04 22.02-.02.25-.03.5-.05.76-3.65-5.84-13.39-11.53-13.38-11.48 7 10.12 12.29 20.17 13.07 30.04-3.74.76-8.86-.34-14.77-2.51 6.16 5.68 10.79 7.23 12.62 7.66-5.68.36-11.57 4.25-17.52 8.73 8.7-3.54 15.73-4.95 20.75-3.81-7.99 22.59-15.98 47.54-23.98 74.04 2.46-.72 3.92-2.39 4.73-4.61 1.43-4.79 10.88-36.28 25.72-77.62.43-1.17.85-2.37 1.28-3.54.11-.34.23-.67.36-.98 1.55-4.34 3.2-8.77 4.86-13.29.38-1.03.76-2.06 1.16-3.09 0-.01.02-.03.02-.05l-11.7-23.04c-.04.23-.09.5-.14.78Z" class="cls-1"/>
    </clipPath>
    <clipPath id="clippath-7">
      <path d="M135.39 124.21c-.34.68-.67 1.37-1.01 2.06-1.01 2.08-2.02 4.2-3.07 6.36-1.12 2.35-2.24 4.73-3.38 7.2-.58 1.23-1.16 2.48-1.73 3.74-1.74 3.78-3.49 7.68-5.28 11.71-2.19 4.93-4.45 10.09-6.71 15.44-2.15 5.09-4.37 10.36-6.58 15.81-2.11 5.17-4.25 10.52-6.41 16.01-1.93 4.9-3.89 9.96-5.84 15.15-.09.23-.18.5-.27.74-1.95 5.15-3.92 10.45-5.9 15.87-.03.13-.09.24-.12.38l9.4-1.03c-.18-.03-.38-.05-.56-.09 11.22-1.4 26.17-9.8 35.81-20.16 4.45-4.77 8.48-10.41 12.2-17.01 2.77-4.9 5.39-10.36 7.88-16.38 2.17-5.26 4.25-10.97 6.25-17.14-2.58 1.36-5.53 2.37-8.78 3.05-.58.12-1.16.23-1.75.34-.6.11-1.2.2-1.81.27 0 0 .02 0 .02-.02 10.48-4.03 17.08-11.8 21.87-21.33-2.75 1.88-7.23 4.34-12.6 5.52-.72.16-1.46.29-2.22.41-.18.02-.38.05-.56.09h.03c3.65-1.52 6.71-3.23 9.36-5.24.58-.43 1.14-.87 1.64-1.34.81-.7 1.57-1.45 2.33-2.2.47-.51.92-1.02 1.37-1.54 1.05-1.25 2.03-2.58 2.93-4.03.27-.45.56-.88.81-1.36.36-.67.69-1.34 1.01-1.97 1.46-2.93 2.64-5.57 3.56-7.86.47-1.16.87-2.2 1.23-3.22.14-.39.27-.78.39-1.16.38-1.1.67-2.08.91-2.95.36-1.3.58-2.33.69-3.07-.36.27-.76.56-1.23.83-3.17 1.9-8.59 3.6-12.96 4.41l8.62-.94-8.62.94c-.06.02-.12.02-.2.04-.45.07-.87.14-1.32.2.07-.04.14-.07.22-.11l-29.52 3.23c0 .07-.06.2-.11.31Z" class="cls-1"/>
    </clipPath>
    <clipPath id="clippath-8">
      <path d="M168.62 64.56c-2.62 4.03-5.48 8.6-8.58 13.79-.17.25-.34.56-.49.81-2.66 4.48-5.48 9.4-8.48 14.8-2.57 4.66-5.24 9.65-8.03 15.02-2.42 4.68-4.91 9.65-7.5 14.91l29.52-3.23c8.61-3.96 12.44-7.52 16.16-12.71.98-1.43 1.99-2.91 2.96-4.46 3.04-4.74 6-9.94 8.66-15.13 2.57-5.01 4.83-9.96 6.56-14.44 1.1-2.84 1.99-5.48 2.6-7.81.54-2.04.96-4 1.28-5.86-11.44 1.97-25.52 3.85-34.67 4.3Z" class="cls-1"/>
    </clipPath>
    <clipPath id="clippath-9">
      <use xlink:href="#reuse-0" class="cls-1"/>
    </clipPath>
    <clipPath id="clippath-10">
      <use xlink:href="#reuse-1" class="cls-1"/>
    </clipPath>
    <clipPath id="clippath-11">
      <use xlink:href="#reuse-0" class="cls-1"/>
    </clipPath>
    <clipPath id="clippath-12">
      <use xlink:href="#reuse-2" class="cls-1"/>
    </clipPath>
    <clipPath id="clippath-13">
      <use xlink:href="#reuse-0" class="cls-1"/>
    </clipPath>
    <clipPath id="clippath-14">
      <use xlink:href="#reuse-3" class="cls-1"/>
    </clipPath>
    <linearGradient id="Unbenannter_Verlauf" x1="-6812.16" x2="-6574.75" y1="-2450.25" y2="-2172.64" data-name="Unbenannter Verlauf" gradientTransform="matrix(.19 0 0 .19 1436.8 483.08)" gradientUnits="userSpaceOnUse">
      <stop offset="0" stop-color="#f59723"/>
      <stop offset=".31" stop-color="#f69822"/>
      <stop offset=".84" stop-color="#e87726"/>
      <stop offset="1" stop-color="#e87726"/>
    </linearGradient>
    <linearGradient id="Unbenannter_Verlauf_10" x1="-8582.38" x2="-6888.58" y1="-2462.52" y2="-2462.52" data-name="Unbenannter Verlauf 10" gradientTransform="matrix(.19 0 0 .19 1454.19 542.48)" gradientUnits="userSpaceOnUse">
      <stop offset="0" stop-color="#9c2063"/>
      <stop offset=".32" stop-color="#9c2063"/>
      <stop offset=".63" stop-color="#c82037"/>
      <stop offset=".75" stop-color="#cc2135"/>
      <stop offset="1" stop-color="#e87726"/>
    </linearGradient>
    <linearGradient id="Unbenannter_Verlauf_5" x1="-8377.91" x2="-7368.58" y1="-2279.88" y2="-2279.88" data-name="Unbenannter Verlauf 5" gradientTransform="matrix(.19 0 0 .19 1579.87 671.89)" gradientUnits="userSpaceOnUse">
      <stop offset="0" stop-color="#282661"/>
      <stop offset=".1" stop-color="#662e8c"/>
      <stop offset=".79" stop-color="#9e2064"/>
      <stop offset=".95" stop-color="#cc2032"/>
      <stop offset="1" stop-color="#cc2032"/>
    </linearGradient>
    <linearGradient xlink:href="#Unbenannter_Verlauf_10" id="Unbenannter_Verlauf_10-2" x1="-8487.24" x2="-6793.45" y1="-2476.27" y2="-2476.27" data-name="Unbenannter Verlauf 10" gradientTransform="matrix(.19 0 0 .19 1504.08 625.9)"/>
    <linearGradient xlink:href="#Unbenannter_Verlauf_5" id="Unbenannter_Verlauf_5-2" x1="-8363.71" x2="-7473.57" y1="-2413.46" y2="-2413.46" data-name="Unbenannter Verlauf 5" gradientTransform="matrix(.19 0 0 .19 1579.33 720.69)"/>
    <linearGradient xlink:href="#Unbenannter_Verlauf_10" id="Unbenannter_Verlauf_10-3" x1="-8487.24" x2="-6793.45" y1="-2305.86" y2="-2305.86" data-name="Unbenannter Verlauf 10" gradientTransform="matrix(.19 0 0 .19 1530.16 603.5)"/>
    <linearGradient xlink:href="#Unbenannter_Verlauf_10" id="Unbenannter_Verlauf_10-4" x1="-8592.32" x2="-6898.52" y1="-2325.61" y2="-2325.61" data-name="Unbenannter Verlauf 10" gradientTransform="matrix(.19 0 0 .19 1475 524.26)"/>
    <linearGradient xlink:href="#Unbenannter_Verlauf_10" id="Unbenannter_Verlauf_10-5" x1="-8487.24" x2="-6793.45" y1="-2257.99" y2="-2257.99" data-name="Unbenannter Verlauf 10" gradientTransform="matrix(.19 0 0 .19 1530.34 586)"/>
    <linearGradient xlink:href="#Unbenannter_Verlauf_10" id="Unbenannter_Verlauf_10-6" x1="-8487.24" x2="-6793.45" y1="-2263.82" y2="-2263.82" data-name="Unbenannter Verlauf 10" gradientTransform="matrix(.19 0 0 .19 1519.92 571.99)"/>
    <linearGradient xlink:href="#Unbenannter_Verlauf_10" id="Unbenannter_Verlauf_10-7" x1="-7535.69" x2="-7161.31" y1="-2265.07" y2="-2265.07" data-name="Unbenannter Verlauf 10" gradientTransform="rotate(-65 -156.63106712 -1327.69014568) scale(.19)"/>
    <style>
      .cls-1{fill:none}.cls-2{clip-path:url(#clippath)}.cls-3{fill:url(#Unbenannter_Verlauf_10-6)}.cls-4{fill:url(#Unbenannter_Verlauf_10-5)}.cls-5{fill:url(#Unbenannter_Verlauf_10-3)}.cls-6{fill:url(#Unbenannter_Verlauf_10-2)}.cls-7{fill:url(#Unbenannter_Verlauf_10-4)}.cls-8{fill:url(#Unbenannter_Verlauf_10-7)}.cls-9{fill:#bd202e}.cls-10{fill:#a00}.cls-11{clip-path:url(#clippath-1)}.cls-12{clip-path:url(#clippath-4)}.cls-13{clip-path:url(#clippath-3)}.cls-14{clip-path:url(#clippath-2)}.cls-15{clip-path:url(#clippath-7)}.cls-16{clip-path:url(#clippath-8)}.cls-17{clip-path:url(#clippath-6)}.cls-18{clip-path:url(#clippath-5)}.cls-19{clip-path:url(#clippath-9)}.cls-20{clip-path:url(#clippath-14)}.cls-21{clip-path:url(#clippath-13)}.cls-22{clip-path:url(#clippath-12)}.cls-23{clip-path:url(#clippath-10)}.cls-24{clip-path:url(#clippath-11)}.cls-25{fill:url(#Unbenannter_Verlauf_5-2)}.cls-26{fill:url(#Unbenannter_Verlauf_10)}.cls-27{fill:url(#Unbenannter_Verlauf_5)}.cls-28{fill:url(#Unbenannter_Verlauf)}.cls-29,.cls-30{isolation:isolate}.cls-30{opacity:.35}
    </style>
  </defs>
  <g class="cls-29">
    <g class="cls-2">
      <path d="M140.88166007 56.32659114 167.14738504-.00043783l57.2514629 26.6967956-26.26572496 56.32702896z" class="cls-28"/>
    </g>
    <use xlink:href="#reuse-4" class="cls-9"/>
    <g class="cls-30">
      <g class="cls-11">
        <use xlink:href="#reuse-4" class="cls-9"/>
      </g>
    </g>
    <use xlink:href="#reuse-5" class="cls-9"/>
    <g class="cls-30">
      <g class="cls-14">
        <use xlink:href="#reuse-5" class="cls-9"/>
      </g>
    </g>
    <g class="cls-13">
      <path d="m93.28609712 108.94343284 36.81850296-78.95753441 66.02452229 30.78774037-36.81850297 78.9575344z" class="cls-26"/>
    </g>
    <g class="cls-12">
      <path d="m59.0335724 264.79551588 29.4903023-63.24215738 64.41129443 30.03547987-29.4903023 63.24215738z" class="cls-27"/>
    </g>
    <g class="cls-18">
      <path d="m23.91551214 208.39365332 61.3641716-131.59589068 99.16819807 46.2428902-61.3641716 131.59589068z" class="cls-6"/>
    </g>
    <g class="cls-17">
      <path d="M.0004186 312.74231487 55.15632794 194.4600856l79.67351756 37.15237139-55.15590934 118.28222928z" class="cls-25"/>
    </g>
    <g class="cls-15">
      <path d="m43.36063148 213.36306433 62.05726555-133.08223545 120.82895417 56.34346665-62.05726556 133.08223545z" class="cls-5"/>
    </g>
    <g class="cls-16">
      <path d="m111.16911396 112.5256721 36.47618217-78.2234251 80.0269776 37.3171925-36.47618217 78.2234251z" class="cls-7"/>
    </g>
    <use xlink:href="#reuse-1" class="cls-9"/>
    <g class="cls-30">
      <g class="cls-19">
        <use xlink:href="#reuse-1" class="cls-9"/>
      </g>
    </g>
    <g class="cls-23">
      <path d="m147.62121876 166.47523908.42684445-.91537086 1.58603862.73958196-.42684444.91537086z" class="cls-4"/>
    </g>
    <use xlink:href="#reuse-2" class="cls-9"/>
    <g class="cls-30">
      <g class="cls-24">
        <use xlink:href="#reuse-2" class="cls-9"/>
      </g>
    </g>
    <g class="cls-22">
      <path d="m154.20907141 151.17688327.13518722-.29004209.49850985.23235304-.13518723.2900421z" class="cls-3"/>
    </g>
    <use xlink:href="#reuse-3" class="cls-9"/>
    <g class="cls-30">
      <g class="cls-21">
        <use xlink:href="#reuse-3" class="cls-9"/>
      </g>
    </g>
    <g class="cls-20">
      <path d="m154.26 151.22.01-.03-.02-.01-.01.03.02.01z" class="cls-8"/>
    </g>
    <path d="M780.51 170.04v-63.53h83.45v11.86h-70.65v44.57h61.64v11.38h-61.64v47.41h72.07v11.85h-84.87v-63.54ZM652.72 233c-.13-.33-.18-28.88-.11-63.43l.12-62.82h12.33l.24 56.19h74.43v-56.43h12.8v127.07h-12.8v-59.27H665.3l-.24 59.03-6.06.13c-4.58.1-6.11-.02-6.28-.48Zm-159.06-49.46c0-.23-1.63-4.3-3.04-7.57-.34-.79-1.11-2.81-1.73-4.5-.61-1.7-1.39-3.62-1.73-4.27-.34-.65-.61-1.36-.61-1.57 0-.33-.84-2.36-2.38-5.78-.23-.52-.98-2.34-1.66-4.03-.68-1.7-1.52-3.72-1.86-4.5-.34-.78-1.02-2.49-1.5-3.79-.48-1.3-1.14-2.91-1.48-3.55-.34-.65-.61-1.37-.61-1.59 0-.22-.31-1.07-.69-1.89-.38-.82-1.47-3.52-2.43-6-.96-2.48-2.11-5.36-2.57-6.4s-1.12-2.59-1.48-3.44c-.82-1.92-1.36-1.77-2.16.62-.35 1.03-.84 2.3-1.08 2.82-.25.52-.89 2.02-1.45 3.32-.55 1.3-1.19 2.8-1.43 3.32-.38.85-5.54 13.18-11.9 28.44-1.3 3.13-2.56 6.12-2.79 6.64-.23.52-1.29 3.08-2.36 5.69-1.06 2.61-2.25 5.45-2.63 6.3-.38.86-.7 1.66-.7 1.78s11.31.22 25.13.22 25.13-.11 25.13-.25Zm-82.65 49.68c-.11-.2.61-2.27 1.61-4.62s3.66-8.75 5.91-14.22c2.25-5.48 4.38-10.6 4.73-11.38.35-.78 1.52-3.55 2.6-6.16 1.89-4.57 2.91-6.99 3.8-9.01.23-.52 1.3-3.08 2.37-5.69 1.07-2.61 2.23-5.38 2.58-6.16.34-.79 1.72-4.09 3.07-7.35 1.34-3.26 3.06-7.42 3.82-9.25 1.61-3.89 6.99-16.64 7.61-18.01.23-.52.98-2.34 1.65-4.03.68-1.7 1.42-3.51 1.65-4.03.24-.52.88-2.01 1.44-3.32.55-1.3 1.31-3.04 1.68-3.87.38-.82.68-1.63.68-1.8 0-.27.73-2.04 2.37-5.71.94-2.12 2.29-5.38 3.35-8.06.61-1.56 1.31-3.11 1.55-3.44.3-.41 2-.59 5.54-.59h5.1l.62 1.54c1.24 3.1 6.69 16.02 8.04 19.09.23.52 1.29 3.08 2.36 5.69 1.07 2.61 2.14 5.17 2.38 5.69.24.52 2.05 4.89 4.03 9.72 1.98 4.82 3.79 9.2 4.02 9.72.23.52 1.54 3.62 2.89 6.88 3.2 7.71 6.54 15.64 7.07 16.83.23.52.88 2.01 1.42 3.32.55 1.31 1.2 2.8 1.43 3.32.23.52.98 2.33 1.66 4.03 1.16 2.89 2.09 5.12 3.08 7.35.23.52.98 2.34 1.66 4.03.68 1.7 1.54 3.76 1.92 4.58.38.82.68 1.64.68 1.82s.64 1.71 1.42 3.4c.78 1.69 1.42 3.19 1.42 3.32s.31.92.68 1.75c.38.82 1.23 2.88 1.92 4.57.68 1.7 1.43 3.51 1.66 4.03 1.64 3.65 2.38 5.47 2.38 5.9 0 .76-13.02.68-13.63-.09-.26-.33-2.34-5.18-4.62-10.79-2.28-5.61-4.43-10.83-4.77-11.61-.34-.78-1.18-2.81-1.86-4.51-.68-1.7-1.43-3.51-1.66-4.03-.64-1.43-2.14-5.02-2.83-6.76l-.61-1.54-56.41.24-2.81 6.88c-1.54 3.78-3.01 7.37-3.26 7.97-.25.61-.46 1.2-.46 1.33 0 .2-1.03 2.65-2.38 5.63-.23.52-.98 2.34-1.66 4.03-.68 1.69-1.52 3.72-1.86 4.51-.34.78-1.33 3.18-2.2 5.33l-1.58 3.91h-6.52c-3.58 0-6.61-.16-6.72-.36Zm-26.55-58.48c8.75-1.21 15.84-7.87 19.38-18.21 1.22-3.56 1.5-13.38.49-17.32-1.37-5.36-3.88-9.82-7.6-13.5-1.85-1.82-4-3.64-4.77-4.03-.78-.39-1.52-.82-1.65-.96-.13-.14-1.2-.67-2.37-1.18-1.99-.86-3.62-.93-24.54-1.07l-22.4-.15v56.94h19.88c11.66 0 21.41-.21 23.59-.52Zm-56.27-4.7v-63.53h26.43c27.61.02 32.61.27 37.04 1.92 3.12 1.16 7.96 3.56 8.85 4.39.34.32 1.33 1.1 2.2 1.75 6.12 4.55 11.96 13.63 14.19 22.06 2.16 8.16 1.28 19.26-2.14 27-4.91 11.11-13.18 18.8-23.62 21.97-2.09.63-6.25.78-26.31.93l-23.83.18v46.89h-12.8v-63.54Zm-46.46 13.25c0-.45-.7-2.16-2.64-6.44-.37-.82-.68-1.64-.68-1.82s-.31-1-.69-1.82c-.38-.83-1.88-4.48-3.33-8.13-1.45-3.65-2.84-7.07-3.08-7.59-.24-.52-1.42-3.51-2.62-6.64-1.2-3.13-2.37-6.12-2.6-6.64-.23-.52-.74-1.7-1.13-2.61-.39-.91-1.15-2.66-1.69-3.89s-.98-2.4-.99-2.61c0-.21-.28-.91-.61-1.57-.33-.65-1.12-2.57-1.75-4.27-.62-1.7-1.41-3.62-1.75-4.27-.34-.65-.61-1.45-.61-1.78 0-1-.87-.66-1.21.48-.18.59-.6 1.7-.94 2.49-.35.78-1.51 3.55-2.58 6.16-1.07 2.61-2.57 6.23-3.33 8.06-.76 1.82-4.79 11.54-8.95 21.57s-7.91 19.05-8.32 20.03l-.75 1.78h25.14c17.31 0 25.14-.16 25.14-.5Zm-82.98 49.81c0-.26.21-.85.46-1.3.25-.45.9-1.89 1.45-3.2.54-1.3 1.18-2.8 1.41-3.32.23-.52 1.72-4.04 3.32-7.82 1.59-3.78 3.09-7.3 3.33-7.82.24-.52.98-2.34 1.66-4.03.68-1.69 1.42-3.51 1.65-4.03.24-.52.88-2.02 1.44-3.32.55-1.3 1.31-3.04 1.68-3.87.38-.82.68-1.63.68-1.81 0-.26.91-2.45 2.38-5.71.23-.52.98-2.33 1.65-4.03.68-1.7 1.42-3.51 1.66-4.03.24-.52.99-2.34 1.66-4.03.68-1.7 1.42-3.51 1.66-4.03.23-.52.88-2.01 1.43-3.32.55-1.3 1.19-2.8 1.42-3.32.23-.52 1.4-3.29 2.61-6.16s2.38-5.64 2.62-6.17c.24-.52 1.3-3.08 2.37-5.69 1.07-2.61 2.14-5.17 2.37-5.69.23-.52 1.17-2.76 2.08-4.98 5.11-12.42 6.28-15.23 7.42-17.78.23-.52.98-2.34 1.66-4.03.68-1.7 1.65-3.99 2.16-5.1l.92-2.02h10.31l1.06 2.49c1.32 3.09 2.77 6.46 3.32 7.7 1.62 3.62 2.37 5.44 2.37 5.69 0 .27.91 2.41 2.65 6.23.37.82.68 1.63.68 1.8 0 .27.73 2.04 2.37 5.71 1.61 3.62 2.37 5.44 2.37 5.69 0 .16.44 1.29.98 2.52s1.31 2.97 1.69 3.89c.39.91.9 2.09 1.13 2.61.23.52.97 2.33 1.65 4.03.68 1.69 1.42 3.51 1.65 4.03.24.52 1.73 4.04 3.33 7.82 1.6 3.78 3.09 7.3 3.33 7.82.23.52.77 1.8 1.2 2.84 4.36 10.71 6.09 14.92 6.63 16.12.35.78 1.52 3.55 2.59 6.16 1.07 2.61 2.14 5.17 2.38 5.69.23.52.87 2.01 1.42 3.32.55 1.31 1.19 2.8 1.43 3.32.23.52.98 2.33 1.65 4.03.68 1.69 1.42 3.51 1.66 4.03 2.3 5.09 5.22 12.26 5.22 12.82s-1.16.69-6.84.69c-6.68 0-6.85-.02-7.17-1.07-.29-.95-1.39-3.63-2.59-6.28-.23-.52-.98-2.34-1.66-4.03-1.16-2.89-2.1-5.12-3.09-7.35-.23-.52-.97-2.34-1.65-4.03-.68-1.7-1.42-3.51-1.65-4.03-1.44-3.19-2.38-5.44-2.38-5.69 0-.16-.4-1.18-.88-2.28-.48-1.09-1.17-2.68-1.54-3.53l-.66-1.54h-56.07l-.96 2.25c-.53 1.24-1.54 3.75-2.25 5.57-.71 1.83-1.69 4.21-2.18 5.31-.49 1.09-.89 2.12-.89 2.28 0 .25-.94 2.5-2.38 5.69-.24.52-.98 2.34-1.66 4.03-.68 1.7-1.43 3.51-1.67 4.03-.24.52-1.21 2.87-2.16 5.22-.94 2.34-1.82 4.53-1.96 4.86-.31.75-13.89.86-13.89.11Zm378.37.66c-1.81-.32-8.65-2.08-9.72-2.49-2.51-.97-11.12-5.38-12.13-6.21-1.35-1.12-1.52-1.25-3.99-3.09-2.44-1.82-7.67-7.05-9.49-9.49-.77-1.04-1.62-2.16-1.89-2.47-.26-.32-.7-.85-.97-1.18-.57-.7-5.43-8.91-5.43-9.18 0-.1-.51-1.3-1.12-2.68-.62-1.38-1.49-3.57-1.95-4.87-.45-1.31-1.01-2.8-1.23-3.32-.5-1.17-1.87-7.62-2.37-11.14-.52-3.73-.51-13.96.03-17.31 1.41-8.82 2.52-12.59 5.74-19.47.5-1.06.9-2.18.9-2.49s.21-.56.47-.56.47-.28.47-.61 1.32-2.61 2.93-5.05c2.61-3.96 8.56-10.53 12.48-13.79 4.06-3.37 12.09-7.77 16.88-9.25 1.41-.43 3.1-.97 3.75-1.2 2.41-.84 7.04-1.44 13.04-1.71 7.74-.34 15.85.66 21.57 2.68 4.28 1.51 8.2 3.32 8.46 3.91.09.2.36.36.62.36 1 0 6.38 4.08 9.61 7.28 3.74 3.71 6.19 6.96 8.13 10.79 1.21 2.4 1.23 2.52.38 3.1-.49.34-1.11.78-1.38.98-.27.21-1.05.69-1.73 1.08-.68.39-2.22 1.32-3.42 2.07-2.45 1.52-3.38 1.4-4.1-.49-2.01-5.29-11.23-13.96-17.51-16.48-6.91-2.77-11.1-3.59-18.22-3.59-7.54 0-12.39.93-18.41 3.52-2.06.88-6.45 3.51-7.37 4.4-.34.34-.77.61-.95.61-.5 0-5.77 5.21-8.09 7.99-2.51 3.02-6.88 10.77-7.91 14.06-.41 1.3-.93 2.8-1.16 3.32-2.02 4.59-3.2 15.71-2.47 23.12.5 5.07 1.56 10.38 2.47 12.44.23.52.56 1.48.73 2.13.77 2.88 5.23 11.2 7.57 14.1 2.34 2.91 6.6 7.39 8.54 8.98 2.22 1.82 9.41 6.32 10.11 6.32.18 0 .87.29 1.54.64.68.35 3.13 1.15 5.45 1.77 3.56.95 5.25 1.12 10.63 1.08 9.01-.08 14.72-1.64 22.28-6.06 4.96-2.9 11.8-9.59 14.23-13.91.91-1.62 1.87-2.96 2.13-2.97 1-.01 10.19 4.98 10.19 5.55 0 .66-2.76 5.93-3.3 6.3-.19.13-.59.7-.89 1.27-1.13 2.15-6.32 7.23-11.21 10.97-2.6 1.98-9.47 5.47-14.23 7.22-6.32 2.33-10.16 2.95-18.97 3.09-4.7.07-9.07.04-9.72-.08Z" class="cls-10"/>
    <path fill="#ffffff" d="M195.1 287.98v-39.33h6.64v17.05h19.53v-17.05h6.63v39.33h-6.63v-16.09h-19.53v16.09h-6.64zm58.6-33.26v33.26h-6.65v-33.26h-11.93v-6.07h30.5v6.07H253.7zm33.95 0v33.26h-6.64v-33.26h-11.92v-6.07h30.49v6.07h-11.93zm33.46 15.7c3.68 0 6.17-.69 7.48-2.08 1.35-1.43 2.02-3.49 2.02-6.19s-.84-4.67-2.53-5.8c-1.69-1.12-4.33-1.69-7.93-1.69h-6.75v15.75h7.71Zm-.84-21.77c5.96 0 10.32 1.14 13.05 3.43 2.74 2.29 4.11 5.82 4.11 10.58s-1.41 8.25-4.22 10.47c-2.78 2.21-7.05 3.32-12.83 3.32h-6.98v11.53h-6.64v-39.33h13.5Zm52.21 5.17c-1.91 0-3.49.39-4.73 1.18-1.24.79-1.86 1.99-1.86 3.6s.62 2.8 1.86 3.66c1.24.82 3.86 1.72 7.88 2.7 4.05.98 7.09 2.34 9.11 4.11 2.06 1.76 3.09 4.37 3.09 7.82s-1.29 6.19-3.88 8.33c-2.59 2.14-5.98 3.21-10.18 3.21-6.15 0-11.61-2.12-16.38-6.36l4.16-5.01c3.98 3.45 8.11 5.18 12.38 5.18 2.14 0 3.83-.45 5.07-1.35 1.27-.94 1.91-2.16 1.91-3.66s-.6-2.72-1.8-3.54c-1.16-.86-3.19-1.63-6.08-2.31-2.89-.71-5.08-1.35-6.58-1.91-1.5-.6-2.83-1.37-4-2.3-2.32-1.77-3.49-4.47-3.49-8.11s1.31-6.43 3.94-8.38c2.66-1.99 5.95-2.98 9.85-2.98 2.51 0 5.01.41 7.48 1.24 2.48.82 4.61 1.99 6.41 3.49l-3.55 5.01c-1.16-1.05-2.74-1.91-4.73-2.59-1.99-.67-3.96-1.01-5.91-1.01Zm51.25-5.17v6.24h-20.98v10.41h18.84v5.91h-18.84v10.52h21.66v6.25h-28.3v-39.33h27.62zm24.1 20.08c3.75 0 6.3-.58 7.65-1.74 1.35-1.16 2.03-3.02 2.03-5.58s-.7-4.35-2.08-5.29c-1.39-.97-3.86-1.46-7.43-1.46h-8.44v14.07h8.27Zm16.49-7.32c0 6.49-2.83 10.58-8.5 12.27l10.3 14.29h-8.44l-9.4-13.22h-8.72v13.22h-6.64v-39.33h14.63c6 0 10.3 1.01 12.89 3.04 2.59 2.03 3.88 5.27 3.88 9.73Zm26.99 26.57h-7.42l-15.82-39.33h7.43l12.1 29.37 12.1-29.37h7.42l-15.81 39.33zm49.03-39.33v6.24h-20.99v10.41h18.85v5.91h-18.85v10.52h21.66v6.25h-28.3v-39.33h27.63zm24.09 20.08c3.75 0 6.3-.58 7.65-1.74 1.35-1.16 2.03-3.02 2.03-5.58s-.7-4.35-2.08-5.29c-1.39-.97-3.86-1.46-7.43-1.46h-8.44v14.07h8.27Zm16.49-7.32c0 6.49-2.83 10.58-8.5 12.27l10.3 14.29h-8.44l-9.39-13.22h-8.72v13.22h-6.64v-39.33h14.63c6 0 10.3 1.01 12.89 3.04 2.59 2.03 3.88 5.27 3.88 9.73Zm39.33 9.01c3.68 0 6.17-.69 7.48-2.08 1.35-1.43 2.02-3.49 2.02-6.19s-.84-4.67-2.53-5.8c-1.69-1.12-4.33-1.69-7.93-1.69h-6.75v15.75h7.71Zm-.84-21.77c5.96 0 10.32 1.14 13.05 3.43 2.74 2.29 4.11 5.82 4.11 10.58s-1.41 8.25-4.22 10.47c-2.78 2.21-7.05 3.32-12.83 3.32h-6.98v11.53h-6.64v-39.33h13.5Zm39.87 20.08c3.75 0 6.3-.58 7.65-1.74 1.35-1.16 2.03-3.02 2.03-5.58s-.69-4.35-2.08-5.29c-1.39-.97-3.86-1.46-7.43-1.46h-8.44v14.07h8.27Zm16.49-7.32c0 6.49-2.83 10.58-8.5 12.27l10.3 14.29h-8.44l-9.4-13.22h-8.72v13.22h-6.64v-39.33H659c6 0 10.3 1.01 12.89 3.04 2.59 2.03 3.88 5.27 3.88 9.73Zm42.51 21.17c-3.98 3.86-8.89 5.79-14.74 5.79s-10.77-1.93-14.74-5.79c-3.98-3.9-5.96-8.74-5.96-14.52s1.99-10.65 5.96-14.52c3.97-3.9 8.89-5.85 14.74-5.85s10.77 1.95 14.74 5.85c3.98 3.86 5.96 8.7 5.96 14.52s-1.99 10.62-5.96 14.52Zm-4.9-24.65c-2.66-2.77-5.94-4.16-9.84-4.16s-7.2 1.39-9.91 4.16c-2.66 2.78-3.99 6.15-3.99 10.13s1.33 7.3 3.99 10.07c2.7 2.77 6 4.16 9.91 4.16s7.18-1.39 9.84-4.16c2.7-2.78 4.06-6.13 4.06-10.07s-1.35-7.35-4.06-10.13Zm19.32-3.32v-5.96h19.13v25.94c0 4.58-1.16 8.01-3.49 10.3-2.33 2.29-5.31 3.43-8.95 3.43-4.58 0-8.48-1.61-11.71-4.84l3.77-5.23c2.55 2.44 5.05 3.66 7.48 3.66 1.73 0 3.19-.58 4.39-1.75 1.24-1.16 1.86-2.91 1.86-5.23v-20.32h-12.49Zm57.33-5.96v6.24h-20.99v10.41h18.85v5.91h-18.85v10.52h21.66v6.25h-28.3v-39.33h27.63zm27.13 33.31c2.29 0 4.26-.38 5.91-1.12 1.65-.79 3.38-2.02 5.18-3.71l4.27 4.39c-4.16 4.61-9.23 6.92-15.19 6.92s-10.86-1.91-14.8-5.74c-3.9-3.82-5.85-8.66-5.85-14.52s1.99-10.73 5.96-14.63c4.01-3.9 9.06-5.85 15.14-5.85s11.22 2.25 15.3 6.75l-4.22 4.61c-1.88-1.8-3.66-3.06-5.34-3.77-1.65-.71-3.6-1.07-5.85-1.07-3.98 0-7.32 1.29-10.02 3.88-2.7 2.55-4.05 5.83-4.05 9.84s1.33 7.32 4 10.01c2.7 2.66 5.89 4 9.57 4Zm38.34-27.24v33.26h-6.64v-33.26h-11.93v-6.07h30.5v6.07H855.5z"/>
  </g>
</svg>
