<svg xmlns="http://www.w3.org/2000/svg" viewBox="0 0 1859.13 471.05" width="1859.13" height="471.05">
    <defs>
        <style>
            .cls-1,.cls-2{fill:#1f88c0}.cls-3{fill:#22b638}.cls-4{fill:#2f2f2f}.cls-5,.cls-6{fill:#2e2e2e}
        </style>
    </defs>
    <g>
        <g>
            <path d="M452.56 175.44c6.09 29.58 5.51 58.76.49 86.77-5.09 28.41-15.44 55.28-30.15 79.59-5.86 9.69-12.33 19.01-19.44 27.87-7.08 8.78-14.74 17.16-23.01 24.98-24.32 22.99-53.78 41.3-87.96 51.71-27.06 8.49-54.44 11.67-81.15 9.89-28.12-1.91-55.32-9.04-80.41-20.78l-2.45 4.7c24.99 14.29 52.59 23.88 81.53 28.25 28.36 4.29 57.88 3.42 87.54-3.17 38.49-8.99 72.76-26.61 100.81-50.76 9.71-8.35 18.6-17.58 26.63-27.42 8.05-9.93 15.26-20.53 21.41-31.7 15.24-27.64 24.95-58.42 27.7-90.36 2.62-30.36-1.12-61.61-11.32-92.3l-10.22 2.74ZM63.73 380.17c-11.2-12.27-21.21-25.84-29.51-40.71-8.09-14.51-14.54-30.15-19.34-46.74-1.84-8.29-3.26-16.5-4.08-24.75-3.38-33.76 2.09-66.55 12.83-97.1 5.76-16.39 13.42-31.89 22.2-46.76 11.65-19.76 25.5-38.23 42.26-54.23 24.66-23.51 54.57-42.25 89.33-52.97 28.29-8.71 56.96-11.92 84.76-9.34 19.31 1.78 38.26 5.99 56.03 13.05 20.11 7.98 38.63 19.58 55.3 33.34 16.39 13.52 30.68 29.63 42.7 47.55 1.58 2.37 2.63 5.09 4.6 7.16 1.51 1.58 3.26 2.2 5.04 3.47l7.19-4.57c-.44-2.25-.4-4.17-1.34-6.25-1.24-2.74-3.58-4.79-5.44-7.13-19.64-24.7-43.9-44.75-70.98-59.84-11.54-6.43-23.6-11.87-35.95-16.56-13.64-5.21-27.67-9.49-42.1-12.5-32.96-6.87-67.77-7.41-102.75.6-37.92 8.69-71.74 25.83-99.44 49.5-19.27 16.47-35.88 35.89-48.23 57.73-9.27 16.4-16.05 34.19-20.56 52.58-8.11 33.11-8.18 68.14-.87 103.11 1.73 8.28 3.75 16.52 6.34 24.77 4.22 17.1 10.32 33.22 17.79 48.36 7.77 15.76 17.03 30.41 27.77 43.78l6.47-5.54Z" class="cls-2"/>
            <path d="M446.48 180.1c-2.16 0-4.31-.16-6.46-.49-11.46-1.75-21.58-7.9-28.51-17.33-6.93-9.42-9.78-20.92-8.03-32.38 3.63-23.78 25.92-40.17 49.7-36.54 23.78 3.63 40.17 25.93 36.54 49.7-1.65 10.78-7.28 20.51-15.86 27.4-7.84 6.27-17.54 9.63-27.38 9.63Zm.15-69.09c-5.37 0-10.61 1.72-15.08 5.01-5.52 4.06-9.12 9.96-10.14 16.63-1.02 6.67.66 13.38 4.71 18.9s9.96 9.12 16.63 10.14c6.96 1.06 14.17-.9 19.76-5.37 5.02-4.03 8.31-9.7 9.27-15.98 2.12-13.89-7.46-26.91-21.34-29.03-1.27-.19-2.55-.29-3.82-.29Zm-34.18 20.27Z" class="cls-1"/>
            <path d="M372.28 207.43s6.04-5.63 13.57-13.02c13.23-13 30.97-31.17 30.97-31.17l-5.82-6.82s-20.71 14.71-35.63 25.73c-8.46 6.3-14.97 11.39-14.97 11.39l11.87 13.88Z" class="cls-2"/>
            <g>
                <path d="M335.4 387.04H204.67v-29.82h129.04V229.27H142.65v75.93h-29.82v-77.62c0-15.51 12.62-28.13 28.13-28.13h194.43c15.51 0 28.13 12.62 28.13 28.13v131.33c0 15.51-12.62 28.13-28.13 28.13Z" class="cls-3"/>
                <path d="M301.29 229.27c-8.23 0-14.91-6.68-14.91-14.91v-63.11c0-12.76-5.05-24.83-14.21-33.99s-21.23-14.21-33.99-14.21-24.83 5.05-33.99 14.21-14.21 21.23-14.21 33.99v63.11c0 8.23-6.68 14.91-14.91 14.91s-14.91-6.68-14.91-14.91v-63.11c0-43.02 35-78.02 78.02-78.02s78.02 35 78.02 78.02v63.11c0 8.23-6.68 14.91-14.91 14.91Z" class="cls-3"/>
            </g>
            <path d="M110.87 454.81c-2.93 0-5.87-.19-8.82-.58-17.79-2.34-33.67-11.54-44.7-25.9-11.03-14.37-15.82-32.08-13.48-49.87s11.54-33.67 25.9-44.7c14.37-11.03 32.08-15.82 49.87-13.48 24.57 3.23 45.37 19.71 54.3 43.02 3.99 10.39 5.33 21.72 3.88 32.75-2.34 17.79-11.54 33.67-25.9 44.7-11.99 9.2-26.3 14.06-41.05 14.06Zm0-108.52c-8.93 0-17.62 2.96-24.91 8.56-8.74 6.71-14.32 16.32-15.74 27.07-2.94 22.4 12.89 43.01 35.28 45.95 10.75 1.41 21.48-1.5 30.22-8.21 8.73-6.71 14.32-16.32 15.73-27.07.87-6.66.06-13.49-2.35-19.77-5.44-14.2-18.06-24.23-32.94-26.18-1.77-.23-3.54-.35-5.31-.35Z" class="cls-1"/>
            <path d="M223.7 286.9s-33.3 19.85-57.22 35.3c-13.54 8.74-23.79 16.08-23.79 16.08l21.23 27.14s9.55-8.21 21.31-19.24c20.74-19.51 48.06-47.04 48.06-47.04l-9.59-12.23Z" class="cls-2"/>
        </g>
        <g>
            <path id="y" d="m1655.89 453.29 41.15-74.78c-58.23 6.01-75.53-11.73-88.31-21.52-12.78-9.79-22.71-22.15-29.77-37.09-7.06-14.93-10.59-31.39-10.59-49.38V130.29h52.41v139.86c0 12.2 2.69 23 8.08 32.41 5.39 9.41 12.56 16.73 21.5 21.98 8.95 5.24 18.69 7.87 29.22 7.87s20.47-2.64 29.45-7.91 16.18-12.6 21.59-21.97c5.42-9.38 8.13-20.16 8.13-32.36V130.29h52.22v140.23c0 18.05-4.58 66.25-33.25 107.99-9.21 13.4-40.23 74.78-40.23 74.78h-61.6Z" class="cls-4"/>
            <path id="add" d="M886.88 379.11c-23.36 0-42.9-5.72-60.06-17.16-16.68-11.44-29.55-26.69-38.61-45.76-9.06-19.54-13.82-40.52-13.82-63.87s5.24-45.76 15.25-64.83c10.49-19.54 25.26-34.8 44.33-46.24 19.07-10.96 42.42-16.68 69.12-16.68s49.1 5.72 67.69 17.16c18.59 10.96 32.89 26.22 42.9 45.76 9.53 19.07 14.78 40.52 14.78 63.87v122.03h-54.82v-45.28h-.95c-4.77 9.06-10.96 17.64-18.59 25.26-7.63 7.63-17.16 13.82-28.12 18.59s-24.31 7.15-39.09 7.15Zm14.78-46.71c14.3 0 26.69-3.34 37.66-10.49 10.49-7.15 19.07-17.16 24.79-29.55 5.72-11.92 8.58-25.74 8.58-40.99s-2.86-29.08-8.58-40.99-13.82-21.45-24.31-28.6c-10.49-7.15-23.36-10.49-37.66-10.49-15.25 0-28.12 3.34-39.09 10.49-10.49 7.15-19.07 17.16-24.79 29.08-5.72 12.39-8.58 25.74-8.58 40.99s2.86 28.6 8.58 40.99c5.72 11.92 13.82 21.93 24.79 29.08 10.49 7.15 23.36 10.49 38.61 10.49Zm265.02 46.71c-19.54 0-36.7-2.86-52.43-9.53-15.73-6.2-29.08-14.78-40.04-26.69-10.96-11.44-19.54-25.26-25.26-41.47-6.2-16.21-9.06-33.84-9.06-53.39 0-24.79 5.24-46.24 15.25-64.83 10.01-18.11 23.83-32.89 41.47-42.9 17.64-10.49 38.13-15.73 61.01-15.73 11.44 0 21.93 1.91 32.41 5.24 10.49 3.34 19.54 8.58 27.65 14.78 8.58 6.67 15.25 13.82 20.02 22.4h.48V25.42H1293v223.56c0 26.69-5.24 50.05-16.21 69.59-10.49 19.54-25.26 34.32-44.33 44.81-18.59 10.49-40.99 15.73-65.78 15.73Zm0-46.71c13.82 0 26.22-3.34 37.18-10.01 10.49-7.15 18.59-16.21 24.79-28.6 5.72-11.92 9.06-25.74 9.06-41.95s-3.34-29.55-9.06-41.95c-6.2-11.92-14.3-21.45-25.26-28.12-10.49-7.15-22.88-10.49-37.18-10.49s-25.74 3.34-36.7 10.49c-10.49 7.15-19.07 16.21-25.26 28.6-5.72 11.92-9.06 25.74-9.06 41.47s3.34 29.55 9.06 41.95c6.2 11.92 14.78 21.45 25.74 28.12 10.49 7.15 22.88 10.49 36.7 10.49Zm261.21 46.71c-19.54 0-36.7-2.86-52.43-9.53-15.73-6.2-29.08-14.78-40.04-26.69-10.96-11.44-19.54-25.26-25.26-41.47-6.2-16.21-9.06-33.84-9.06-53.39 0-24.79 5.24-46.24 15.25-64.83 10.01-18.11 23.83-32.89 41.47-42.9 17.64-10.49 38.13-15.73 61.01-15.73 11.44 0 21.93 1.91 32.41 5.24 10.49 3.34 19.54 8.58 27.65 14.78 8.58 6.67 15.25 13.82 20.02 22.4h.48V25.42h54.82v223.56c0 26.69-5.24 50.05-16.21 69.59-10.49 19.54-25.26 34.32-44.33 44.81-18.59 10.49-40.99 15.73-65.78 15.73Zm0-46.71c13.82 0 26.22-3.34 37.18-10.01 10.49-7.15 18.59-16.21 24.79-28.6 5.72-11.92 9.06-25.74 9.06-41.95s-3.34-29.55-9.06-41.95c-6.2-11.92-14.3-21.45-25.26-28.12-10.49-7.15-22.88-10.49-37.18-10.49s-25.74 3.34-36.7 10.49c-10.49 7.15-19.07 16.21-25.26 28.6-5.72 11.92-9.06 25.74-9.06 41.47s3.34 29.55 9.06 41.95c6.2 11.92 14.78 21.45 25.74 28.12 10.49 7.15 22.88 10.49 36.7 10.49Z" class="cls-4"/>
            <path id="c" d="M778.24 140.04c-14.3-7.86-29.96-12.88-46.14-14.87-70.66-8.67-135.08 41.67-143.75 112.33-8.67 70.65 41.65 135.09 112.32 143.76 30.34 3.72 61.01-3.48 86.55-20.24l-26.43-40.26c-16.01 10.53-35.13 13.92-54.25 12.68-30.37-1.92-59.79-31.4-64.21-75.16-1.38-62.03 39.62-90.73 83.91-85.3 10.14 1.24 19.96 4.39 28.92 9.29l23.09-42.23Z" class="cls-6"/>
        </g>
    </g>
    <g>
        <path d="M1825.79 84.29V62.92h9.46c1.37 0 2.63.31 3.75.92 1.13.58 2.01 1.43 2.69 2.5.67 1.07 1.01 2.32 1.01 3.75s-.37 2.69-1.07 3.75c-.7 1.1-1.62 1.92-2.78 2.53l2.11 4c.12.24.27.4.43.52.18.12.37.15.64.15h1.8v3.24h-2.35c-.82 0-1.59-.21-2.23-.61-.64-.43-1.16-.98-1.56-1.68l-2.5-4.79c-.18.03-.4.03-.61.03h-5.16v7.05h-3.63Zm3.63-10.26h5.37c.79 0 1.5-.15 2.14-.46.64-.31 1.16-.76 1.56-1.37.37-.58.55-1.28.55-2.11s-.18-1.56-.58-2.14c-.4-.58-.89-1.04-1.53-1.34-.64-.34-1.34-.49-2.11-.49h-5.4v7.91Z" class="cls-5"/>
        <path d="M1834.15 98.93c-13.78 0-24.98-11.21-24.98-24.98s11.21-24.98 24.98-24.98 24.98 11.21 24.98 24.98-11.21 24.98-24.98 24.98Zm0-44.93c-11 0-19.95 8.95-19.95 19.95s8.95 19.95 19.95 19.95 19.95-8.95 19.95-19.95S1845.15 54 1834.15 54Z" class="cls-5"/>
    </g>
</svg>
