<svg xmlns="http://www.w3.org/2000/svg" viewBox="0 0 290.19 409.6" width="290.19" height="409.6">
  <defs>
    <style>
      .cls-1{fill:#ebebeb}.cls-2{fill:#fff}.cls-3{fill:#2965f1}.cls-4{fill:#264de4}
    </style>
  </defs>
  <path id="polygon2989" d="m290.19 80.5-26.44 296.16-118.83 32.94-118.51-32.9L0 80.5h290.19z" class="cls-4"/>
  <path id="polygon2991" d="m241.12 357.8 22.59-253.08H145.09v279.7l96.03-26.62z" class="cls-3"/>
  <path id="polygon2993" d="m60.54 214.57 3.26 36.33h81.29v-36.33H60.54z" class="cls-1"/>
  <path id="polygon2995" d="M145.09 141.04H54l3.3 36.33h87.79v-36.33z" class="cls-1"/>
  <path id="polygon2997" d="M145.09 346.72v-37.8l-.16.04-40.45-10.92-2.59-28.97H65.42l5.09 57.04 74.42 20.66.16-.05z" class="cls-1"/>
  <path id="path2999" fill="#ffffff" d="M68.29 0h44v18.4h-25.6v18.4h25.6v18.4h-44V0Z"/>
  <path id="path3001" fill="#ffffff" d="M121.09 0h44v16h-25.6v3.2h25.6V56h-44V39.2h25.6V36h-25.6V0Z"/>
  <path id="path3003" fill="#ffffff" d="M173.89 0h44v16h-25.6v3.2h25.6V56h-44V39.2h25.6V36h-25.6V0Z"/>
  <path id="polygon3005" d="m189.7 250.9-4.21 47.12-40.52 10.93v37.8l74.47-20.64.55-6.14 8.54-95.64.88-9.76 6.56-73.53h-91v36.33h51.19l-3.31 37.2h-47.88v36.33h44.73z" class="cls-2"/>
</svg>
