<svg xmlns="http://www.w3.org/2000/svg" viewBox="0 0 176.65 170.75" width="176.65" height="170.75">
  <path fill="#326de6" d="M161.19 37.98c-1.01-3.23-3.43-5.86-6.46-7.47L93.12 1.01C91.5.2 89.69 0 88.07 0s-3.43 0-5.05.4L21.41 30.1c-3.03 1.41-5.25 4.04-6.06 7.47L.2 104.03c-.61 3.43.2 6.87 2.22 9.7l42.62 52.72c2.42 2.42 5.86 4.04 9.29 4.24h67.88c3.64.4 7.07-1.21 9.29-4.24l42.62-52.72c2.02-2.83 2.83-6.26 2.42-9.7l-15.35-66.06Z"/>
  <path fill="#fff" d="M151.7 101.41c-.2 0-.4 0-.4-.2s-.4-.2-.81-.2c-.81-.2-1.62-.2-2.42-.2-.4 0-.81 0-1.21-.2h-.2c-2.22-.2-4.65-.61-6.87-1.21-.61-.2-1.21-.81-1.41-1.41.2 0 0 0 0 0l-1.62-.4c.81-5.86.4-11.92-.81-17.78-1.41-5.86-3.84-11.51-7.07-16.56l1.21-1.21v-.2c0-.61.2-1.41.61-1.82 1.82-1.62 3.64-2.83 5.66-4.04.4-.2.81-.4 1.21-.61.81-.4 1.41-.81 2.22-1.21.2-.2.4-.2.61-.4.2-.2 0-.2 0-.4 1.82-1.41 2.22-3.84.81-5.66-.61-.81-1.82-1.41-2.83-1.41s-2.02.4-2.83 1.01l-.2.2c-.2.2-.4.4-.61.4-.61.61-1.21 1.21-1.62 1.82-.2.4-.61.61-.81.81-1.41 1.62-3.23 3.23-5.05 4.44-.4.2-.81.4-1.21.4-.2 0-.61 0-.81-.2h-.2l-1.62 1.01c-1.62-1.62-3.43-3.23-5.05-4.85-7.47-5.86-16.77-9.49-26.26-10.5l-.2-1.62v.2c-.61-.4-.81-1.01-1.01-1.62 0-2.22 0-4.44.4-6.87v-.2c0-.4.2-.81.2-1.21.2-.81.2-1.62.4-2.42v-1.21c.2-2.02-1.41-4.04-3.43-4.24-1.21-.2-2.42.4-3.43 1.41-.81.81-1.21 1.82-1.21 2.83v1.01c0 .81.2 1.62.4 2.42.2.4.2.81.2 1.21v.2c.4 2.22.4 4.44.4 6.87-.2.61-.4 1.21-1.01 1.62v.4l-.2 1.62c-2.22.2-4.44.61-6.87 1.01-9.49 2.02-18.18 7.07-24.85 14.14l-1.21-.81h-.2c-.2 0-.4.2-.81.2s-.81-.2-1.21-.4c-1.82-1.41-3.64-3.03-5.05-4.65-.2-.4-.61-.61-.81-.81-.61-.61-1.01-1.21-1.62-1.82-.2-.2-.4-.2-.61-.4l-.2-.2c-.81-.61-1.82-1.01-2.83-1.01-1.21 0-2.22.4-2.83 1.41-1.21 1.82-.81 4.24.81 5.66.2 0 .2.2.2.2s.4.4.61.4c.61.4 1.41.81 2.22 1.21.4.2.81.4 1.21.61 2.02 1.21 4.04 2.42 5.66 4.04.4.4.81 1.21.61 1.82v-.2l1.21 1.21c-.2.4-.4.61-.61 1.01-6.26 9.9-8.89 21.61-7.07 33.13l-1.62.4c0 .2-.2.2-.2.2-.2.61-.81 1.01-1.41 1.41-2.22.61-4.44 1.01-6.87 1.21-.4 0-.81 0-1.21.2-.81 0-1.62.2-2.42.2-.2 0-.4.2-.81.2q-.2 0-.4.2c-2.22.4-3.64 2.42-3.23 4.65.4 1.82 2.22 3.03 4.04 2.83.4 0 .61 0 1.01-.2q.2 0 .2-.2c0-.2.61 0 .81 0 .81-.2 1.62-.61 2.22-.81.4-.2.81-.4 1.21-.4h.2c2.22-.81 4.24-1.41 6.67-1.82h.2c.61 0 1.21.2 1.62.61.2 0 .2.2.2.2l1.82-.2c3.03 9.29 8.69 17.57 16.56 23.63 1.82 1.41 3.43 2.63 5.45 3.64l-1.01 1.41c0 .2.2.2.2.2.4.61.4 1.41.2 2.02-.81 2.02-2.02 4.04-3.23 5.86v.2c-.2.4-.4.61-.81 1.01-.4.4-.81 1.21-1.41 2.02-.2.2-.2.4-.4.61 0 0 0 .2-.2.2-1.01 2.02-.2 4.44 1.62 5.45.4.2 1.01.4 1.41.4 1.62 0 3.03-1.01 3.84-2.42s0-.2.2-.2c0-.2.2-.4.4-.61.2-.81.61-1.41.81-2.22l.4-1.21c.61-2.22 1.62-4.24 2.63-6.26.4-.61 1.01-1.01 1.62-1.21q.2 0 .2-.2l.81-1.62c5.66 2.22 11.51 3.23 17.57 3.23 3.64 0 7.27-.4 10.91-1.41 2.22-.4 4.44-1.21 6.46-1.82l.81 1.41q.2 0 .2.2c.61.2 1.21.61 1.62 1.21 1.01 2.02 2.02 4.04 2.63 6.26v.2l.4 1.21c.2.81.4 1.62.81 2.22.2.2.2.4.4.61 0 0 0 .2.2.2.81 1.41 2.22 2.42 3.84 2.42.61 0 1.01-.2 1.62-.4.81-.4 1.62-1.21 1.82-2.22s.2-2.02-.2-3.03c0-.2-.2-.2-.2-.2 0-.2-.2-.4-.4-.61-.4-.81-.81-1.41-1.41-2.02-.2-.4-.4-.61-.81-1.01v-.4c-1.41-1.82-2.42-3.84-3.23-5.86-.2-.61-.2-1.41.2-2.02 0-.2.2-.2.2-.2l-.61-1.62c10.3-6.26 18.18-15.96 21.82-27.47l1.62.2c.2 0 .2-.2.2-.2.4-.4 1.01-.61 1.62-.61h.2c2.22.4 4.44 1.01 6.46 1.82h.2c.4.2.81.4 1.21.4.81.4 1.41.81 2.22 1.01.2 0 .4.2.81.2q.2 0 .4.2c.4.2.61.2 1.01.2 1.82 0 3.43-1.21 4.04-2.83-.2-2.22-1.82-3.84-3.64-4.24Zm-58.38-6.26-5.45 2.63-5.45-2.63-1.41-5.86 3.84-4.85h6.06l3.84 4.85-1.41 5.86Zm32.93-13.13c1.01 4.24 1.21 8.48.81 12.73l-19.19-5.45c-1.82-.4-2.83-2.22-2.42-4.04.2-.61.4-1.01.81-1.41l15.15-13.74c2.22 3.64 3.84 7.68 4.85 11.92Zm-10.91-19.39L98.78 74.35c-1.41.81-3.43.61-4.44-.81-.4-.4-.61-.81-.61-1.41l-1.21-20.4c8.89 1.01 16.77 4.85 22.83 10.91Zm-36.56-10.3 4.04-.81-1.01 20.2c0 1.82-1.62 3.23-3.43 3.23-.61 0-1.01-.2-1.62-.4L59.99 62.63c5.25-5.05 11.72-8.69 18.79-10.3M54.14 70.11l14.95 13.33c1.41 1.21 1.62 3.23.4 4.65-.4.61-.81.81-1.62 1.01l-19.59 5.66c-.61-8.48 1.41-17.17 5.86-24.64Zm-3.43 34.14 20-3.43c1.62 0 3.23 1.01 3.43 2.63.2.61.2 1.41-.2 2.02l-7.68 18.58c-7.07-4.65-12.73-11.72-15.55-19.8m45.85 25.05c-2.83.61-5.66 1.01-8.69 1.01-4.24 0-8.69-.81-12.73-2.02l9.9-17.98c1.01-1.21 2.63-1.62 4.04-.81.61.4 1.01.81 1.62 1.41l9.7 17.57c-1.21.2-2.42.4-3.84.81Zm24.64-17.57c-3.03 4.85-7.27 9.09-12.12 12.12l-7.88-18.99c-.4-1.62.4-3.23 1.82-3.84.61-.2 1.21-.4 1.82-.4l20.2 3.43c-1.01 2.83-2.22 5.45-3.84 7.68"/>
</svg>
