<svg xmlns="http://www.w3.org/2000/svg" viewBox="0 0 389.8 201.3" width="389.8" height="201.3">
  <defs>
    <style>
      .cls-1,.cls-2{fill:#006088}.cls-3,.cls-4{fill:#e48e00}.cls-5{fill:#a2a3a3}
    </style>
  </defs>
  <path d="M0 183.35h12.84v-50.71l19.88 44.21c2.35 5.35 5.56 7.24 11.85 7.24s9.38-1.89 11.73-7.24l19.88-44.21v50.71h12.84v-50.63c0-4.94-1.98-7.33-6.05-8.56-9.75-3.05-16.3-.41-19.26 6.17L44.2 173.96l-18.89-43.63c-2.84-6.59-9.51-9.22-19.26-6.17-4.07 1.23-6.05 3.62-6.05 8.56v50.63Zm99.71-41.27h12.84v27.94c-.12 1.52.49 5.08 7.52 5.19 3.59.06 27.7 0 27.93 0v-33.26h12.87c.06 0-.01 45.36-.01 45.56.07 11.19-13.88 13.62-20.31 13.81H100v-8.64h40.62c8.27-.87 7.29-4.98 7.29-6.36v-3.37h-27.3c-12.7-.12-20.79-5.66-20.89-12.04 0-.59.27-28.54 0-28.82Z" class="cls-1"/>
  <path d="M170.76 183.35h36.92c4.32 0 8.52-.91 11.85-2.47 5.56-2.55 8.27-6.01 8.27-10.54v-9.38c0-3.7-3.09-7.16-9.14-9.47-3.21-1.23-7.16-1.89-10.99-1.89h-15.56c-5.19 0-7.66-1.56-8.27-5.02-.12-.41-.12-.74-.12-1.15v-5.84c0-.33 0-.66.12-1.07.62-2.63 1.98-3.38 6.54-3.79.37 0 .86-.08 1.23-.08h36.67v-8.56h-36.06c-5.19 0-7.9.33-10.37 1.07-7.66 2.39-10.99 6.17-10.99 12.76v7.49c0 5.76 6.54 10.7 17.53 11.85 1.23.08 2.47.16 3.7.16h13.34c.49 0 .99 0 1.36.08 4.07.33 5.8 1.07 7.04 2.55.74.74.99 1.48.99 2.31v7.49c0 .91-.62 2.06-1.85 3.05-1.11.99-2.96 1.65-5.43 1.81-.49 0-.86.08-1.36.08h-35.44v8.56Zm137.16-14.9c0 8.81 6.54 13.75 19.76 14.74 1.23.08 2.47.16 3.7.16h33.46v-8.56h-33.71c-7.53 0-10.37-1.89-10.37-6.42v-44.29h-12.84v44.37Zm-71.92.45v-30.52c0-7.75 5.44-12.46 16.21-13.94 1.11-.16 2.35-.25 3.46-.25h24.38c1.24 0 2.35.08 3.59.25 10.77 1.49 16.21 6.19 16.21 13.94v30.52c0 6.29-2.31 9.66-7.64 11.85l12.65 11.42h-14.91l-10.23-9.24-10.3.65h-13.73c-2.35 0-4.83-.33-7.55-1.07-8.17-2.23-12.13-6.52-12.13-13.61Zm13.86-.74c0 .41.12.83.25 1.32.74 3.55 4.08 5.53 9.16 5.53h11.67l-10.72-9.68h14.91l9.35 8.44c1.72-.92 2.86-2.32 3.25-4.13.12-.41.12-.82.12-1.24v-29.29c0-.33 0-.74-.12-1.15-.74-3.3-4.08-5.2-9.03-5.2h-19.43c-5.69 0-9.4 2.47-9.4 6.35v29.04Z" class="cls-3"/>
  <path d="M376.14 109.88c-7.89-.22-13.92.52-19.08 2.69-1.47.62-3.8.63-4.04 2.47.81.84.93 2.1 1.57 3.14 1.23 1.99 3.31 4.66 5.16 6.06 2.03 1.53 4.11 3.17 6.29 4.49 3.86 2.36 8.18 3.7 11.9 6.06 2.19 1.39 4.37 3.14 6.51 4.71 1.06.78 1.77 1.98 3.14 2.47v-.22c-.72-.92-.91-2.18-1.57-3.14l-2.92-2.92c-2.85-3.79-6.48-7.11-10.33-9.88-3.07-2.2-9.94-5.18-11.22-8.75-.08-.07-.15-.15-.22-.22 2.18-.25 4.73-1.03 6.73-1.57 3.38-.91 6.39-.67 9.88-1.57l4.71-1.35v-.9c-1.76-1.81-3.02-4.2-4.94-5.84-5.03-4.28-10.51-8.56-16.16-12.12-3.13-1.98-7.01-3.26-10.33-4.94-1.12-.56-3.08-.86-3.82-1.8-1.75-2.22-2.7-5.04-4.04-7.63-2.82-5.43-5.58-11.35-8.08-17.06-1.7-3.89-2.82-7.73-4.94-11.22-10.19-16.76-21.16-26.87-38.16-36.81-3.61-2.11-7.97-2.95-12.57-4.04l-7.41-.45c-1.51-.63-3.08-2.47-4.49-3.37-5.63-3.56-20.07-11.29-24.24-1.12-2.63 6.42 3.94 12.68 6.29 15.94 1.65 2.28 3.76 4.84 4.94 7.41.77 1.69.91 3.38 1.57 5.16 1.63 4.4 3.05 9.18 5.16 13.24 1.07 2.06 2.24 4.22 3.59 6.06.83 1.13 2.24 1.62 2.47 3.37-1.39 1.94-1.47 4.95-2.24 7.41-3.51 11.06-2.19 24.81 2.92 33 1.57 2.51 5.25 7.9 10.33 5.84 4.44-1.81 3.44-7.41 4.71-12.35.29-1.12.11-1.94.67-2.69v.22c1.35 2.69 2.69 5.39 4.04 8.08 2.99 4.81 8.3 9.85 12.79 13.24 2.33 1.76 4.17 4.81 7.18 5.84v-.22h-.22c-.58-.91-1.5-1.29-2.24-2.02-1.76-1.72-3.71-3.86-5.16-5.84-4.09-5.55-7.71-11.63-11-17.96-1.57-3.02-2.94-6.35-4.26-9.43-.51-1.19-.51-2.98-1.57-3.59-1.45 2.25-3.59 4.07-4.71 6.73-1.8 4.25-2.03 9.44-2.69 14.81-.39.14-.22.04-.45.22-3.13-.75-4.23-3.97-5.39-6.73-2.94-6.98-3.48-18.23-.9-26.26.67-2.08 3.69-8.63 2.47-10.55-.58-1.92-2.51-3.02-3.59-4.49-1.33-1.81-2.67-4.19-3.59-6.29-2.41-5.45-3.53-11.56-6.06-17.06-1.21-2.63-3.26-5.29-4.94-7.63-1.86-2.59-3.94-4.5-5.39-7.63-.51-1.11-1.21-2.9-.45-4.04.24-.77.58-1.1 1.35-1.35 1.3-1 4.93.33 6.29.9 3.6 1.49 6.6 2.92 9.65 4.94 1.46.97 2.94 2.85 4.71 3.37h2.02c3.16.73 6.7.23 9.65 1.12 5.22 1.59 9.89 4.05 14.14 6.73 12.94 8.17 23.51 19.8 30.75 33.67 1.16 2.23 1.67 4.37 2.69 6.73 2.07 4.78 4.68 9.69 6.73 14.37 2.05 4.66 4.06 9.36 6.96 13.24 1.53 2.04 7.42 3.13 10.1 4.26 1.88.79 4.96 1.62 6.73 2.69 3.4 2.05 6.69 4.49 9.88 6.73 1.59 1.12 6.49 3.58 6.73 5.61Z" class="cls-1"/>
  <path d="M275.81 24.36c-1.64-.03-2.81.18-4.04.45v.22h.22c.78 1.61 2.17 2.65 3.14 4.04.75 1.57 1.5 3.14 2.24 4.71l.22-.22c1.39-.98 2.03-2.55 2.02-4.94-.56-.59-.64-1.32-1.12-2.02-.64-.93-1.88-1.46-2.69-2.24Z" class="cls-2"/>
  <path d="M370.87 174.55c0 5.65 4.47 9.46 9.46 9.46s9.46-3.81 9.46-9.46-4.47-9.46-9.46-9.46-9.46 3.81-9.46 9.46Zm16.81 0c0 4.29-3.28 7.5-7.34 7.5s-7.34-3.21-7.34-7.5 3.23-7.5 7.34-7.5 7.34 3.21 7.34 7.5Zm-4.79 5.4h2.12l-3.1-4.74c1.67-.18 2.93-.98 2.93-2.95 0-2.19-1.39-3.1-4.06-3.1h-4.21v10.8h1.82v-4.67h1.69l2.83 4.67Zm-4.52-6.18v-3.11h2.09c1.09 0 2.4.2 2.4 1.46 0 1.51-1.19 1.64-2.55 1.64h-1.94Z" class="cls-4"/>
  <path d="M.58 88.52h9.26c1.49 0 2.7.22 3.64.65s1.66.97 2.17 1.62c.51.65.86 1.35 1.04 2.12.19.76.28 1.47.28 2.12s-.09 1.35-.28 2.1c-.19.75-.53 1.45-1.04 2.1-.51.65-1.23 1.18-2.17 1.6-.94.42-2.16.63-3.64.63H4.25v8.05H.58V88.53Zm3.67 9.93h5.38c.41 0 .83-.06 1.26-.18.43-.12.83-.31 1.19-.57.36-.26.66-.62.88-1.06.22-.44.34-.99.34-1.66s-.1-1.25-.29-1.7-.46-.81-.79-1.07-.72-.45-1.15-.54c-.43-.1-.89-.15-1.38-.15H4.25v6.93Zm22.42 11.46c-1.21 0-2.3-.2-3.25-.6-.95-.4-1.75-.95-2.41-1.66-.66-.71-1.16-1.55-1.5-2.53-.34-.98-.51-2.06-.51-3.23s.17-2.22.51-3.2c.34-.98.84-1.82 1.5-2.53.66-.71 1.46-1.26 2.41-1.66.95-.4 2.03-.6 3.25-.6s2.3.2 3.25.6c.95.4 1.75.96 2.41 1.66s1.16 1.55 1.5 2.53c.34.98.51 2.05.51 3.2s-.17 2.25-.51 3.23-.84 1.82-1.5 2.53c-.66.71-1.46 1.26-2.41 1.66-.95.4-2.03.6-3.25.6Zm0-2.64c.74 0 1.39-.16 1.94-.47.55-.31 1-.72 1.35-1.23.35-.51.61-1.08.78-1.72.17-.64.25-1.29.25-1.95s-.08-1.29-.25-1.94c-.17-.65-.43-1.22-.78-1.72s-.8-.91-1.35-1.22c-.55-.31-1.2-.47-1.94-.47s-1.39.16-1.94.47c-.55.31-1 .72-1.35 1.22s-.61 1.07-.78 1.72c-.17.65-.25 1.29-.25 1.94s.08 1.32.25 1.95.43 1.21.78 1.72c.35.51.8.92 1.35 1.23s1.19.47 1.94.47Zm9.08-12.96h3.56l2.97 11.34h.06l2.85-11.34h3.38l2.73 11.34h.06l3.09-11.34h3.41L53.1 109.5h-3.44l-2.82-11.28h-.06l-2.79 11.28h-3.53l-4.7-15.19Zm26.86 8.46c0 .59.08 1.16.25 1.7.17.55.42 1.03.75 1.44.33.41.75.74 1.26.98.51.25 1.12.37 1.82.37.98 0 1.77-.21 2.37-.63.6-.42 1.04-1.05 1.34-1.89h3.17c-.18.82-.48 1.56-.91 2.2-.43.65-.95 1.19-1.56 1.63-.61.44-1.29.77-2.04 1-.75.23-1.54.34-2.37.34-1.19 0-2.25-.2-3.17-.59-.92-.39-1.7-.94-2.34-1.65-.64-.71-1.12-1.55-1.44-2.53s-.48-2.06-.48-3.23c0-1.08.17-2.1.51-3.07s.83-1.82 1.47-2.56c.64-.73 1.41-1.32 2.31-1.75.9-.43 1.92-.65 3.06-.65 1.19 0 2.27.25 3.22.75s1.74 1.16 2.37 1.98c.63.82 1.08 1.77 1.37 2.84.28 1.07.36 2.17.22 3.31H62.62Zm7.82-2.2c-.04-.53-.15-1.04-.34-1.53-.19-.49-.44-.92-.76-1.28s-.72-.66-1.18-.88c-.46-.22-.97-.34-1.54-.34s-1.12.1-1.6.31-.89.49-1.23.85c-.34.36-.62.79-.82 1.28-.21.49-.32 1.02-.34 1.59h7.82Zm5.9-6.26h3.14v2.94h.06c.1-.41.29-.81.57-1.21.28-.39.63-.75 1.03-1.07.4-.32.85-.58 1.34-.78.49-.2.99-.29 1.5-.29.39 0 .66.01.81.03.15.02.3.04.46.06v3.23c-.24-.04-.48-.07-.72-.1s-.48-.04-.72-.04c-.57 0-1.1.11-1.6.34s-.94.56-1.31 1c-.37.44-.67.98-.88 1.63-.22.65-.32 1.39-.32 2.23v7.23h-3.35V94.32Zm12.96 8.46c0 .59.08 1.16.25 1.7.17.55.42 1.03.75 1.44.33.41.75.74 1.26.98.51.25 1.12.37 1.82.37.98 0 1.77-.21 2.37-.63.6-.42 1.04-1.05 1.34-1.89h3.17c-.18.82-.48 1.56-.91 2.2-.43.65-.95 1.19-1.56 1.63-.61.44-1.29.77-2.04 1-.75.23-1.54.34-2.37.34-1.19 0-2.25-.2-3.17-.59-.92-.39-1.7-.94-2.34-1.65-.64-.71-1.12-1.55-1.44-2.53s-.48-2.06-.48-3.23c0-1.08.17-2.1.51-3.07s.83-1.82 1.47-2.56c.64-.73 1.41-1.32 2.31-1.75.9-.43 1.92-.65 3.06-.65 1.19 0 2.27.25 3.22.75s1.74 1.16 2.37 1.98c.63.82 1.08 1.77 1.37 2.84.28 1.07.36 2.17.22 3.31H89.3Zm7.82-2.2c-.04-.53-.15-1.04-.34-1.53-.19-.49-.44-.92-.76-1.28s-.72-.66-1.18-.88c-.46-.22-.97-.34-1.54-.34s-1.12.1-1.6.31-.89.49-1.23.85c-.34.36-.62.79-.82 1.28-.21.49-.32 1.02-.34 1.59h7.82Zm20.21 8.93h-3.17v-2.06h-.06c-.45.88-1.11 1.51-1.97 1.9-.86.38-1.77.57-2.73.57-1.19 0-2.24-.21-3.13-.63s-1.63-.99-2.22-1.72-1.03-1.58-1.32-2.57c-.29-.99-.44-2.05-.44-3.19 0-1.37.19-2.56.56-3.56.37-1 .87-1.82 1.48-2.47.62-.65 1.32-1.12 2.12-1.43.79-.3 1.6-.46 2.42-.46.47 0 .95.04 1.44.13s.96.23 1.41.43c.45.2.87.45 1.25.75s.7.66.96 1.07h.06V88.5h3.35v20.98Zm-11.69-7.43c0 .65.08 1.28.25 1.91.17.63.42 1.19.76 1.67.34.49.78.88 1.31 1.18.53.29 1.16.44 1.88.44s1.39-.16 1.92-.47c.54-.31.98-.72 1.32-1.23.34-.51.6-1.08.76-1.72s.25-1.29.25-1.95c0-1.68-.38-3-1.13-3.94-.75-.94-1.78-1.41-3.07-1.41-.78 0-1.44.16-1.98.48s-.98.74-1.32 1.26-.59 1.11-.73 1.76-.22 1.33-.22 2.01Zm23.59-13.55h3.35v7.76h.06c.23-.37.52-.71.85-1 .33-.29.7-.54 1.1-.75.4-.21.82-.36 1.26-.47.44-.11.88-.16 1.31-.16 1.19 0 2.24.21 3.13.63.89.42 1.63 1 2.22 1.73.59.73 1.03 1.59 1.32 2.57.29.98.44 2.03.44 3.14 0 1.02-.13 2.01-.4 2.97-.26.96-.67 1.81-1.2 2.54-.54.73-1.22 1.32-2.04 1.76-.82.44-1.79.66-2.91.66-.51 0-1.02-.03-1.54-.1s-1.01-.2-1.48-.4-.9-.45-1.28-.76-.7-.72-.96-1.23h-.06v2.09h-3.17V88.52Zm11.69 13.4c0-.69-.09-1.35-.26-2-.18-.65-.44-1.22-.79-1.72s-.79-.9-1.32-1.2c-.53-.3-1.14-.46-1.82-.46-1.41 0-2.47.49-3.19 1.47-.72.98-1.07 2.28-1.07 3.91 0 .76.09 1.47.28 2.13.19.66.46 1.22.84 1.69.37.47.82.84 1.34 1.12.52.27 1.12.41 1.81.41.76 0 1.41-.16 1.94-.47.53-.31.96-.72 1.31-1.22.34-.5.59-1.07.73-1.7s.22-1.29.22-1.95Zm4.5-7.61h3.67l3.97 11.34h.06l3.85-11.34h3.5l-5.91 16.01c-.27.69-.54 1.34-.81 1.97-.26.63-.59 1.18-.97 1.66s-.86.86-1.42 1.15c-.57.28-1.29.43-2.17.43-.78 0-1.56-.06-2.32-.18v-2.82c.27.04.54.08.79.13s.52.07.79.07c.39 0 .71-.05.97-.15.25-.1.46-.24.63-.43.17-.19.31-.41.43-.66.12-.25.23-.55.32-.88l.38-1.17-5.76-15.13Z" class="cls-5"/>
</svg>
