<svg xmlns="http://www.w3.org/2000/svg" viewBox="0 0 939.45 196.91" width="939.45" height="196.91">
  <defs>
    <style>
      .cls-1{fill:#090}
    </style>
  </defs>
  <path d="M176.04 196.51c-5.31 0-10.53-2.07-14.44-5.98L40.82 69.74V176.1c0 11.27-9.14 20.41-20.41 20.41S0 187.38 0 176.1V20.47c0-8.26 4.97-15.7 12.6-18.86C20.22-1.55 29 .19 34.84 6.04l120.78 120.79V20.47c0-11.28 9.14-20.41 20.41-20.41s20.41 9.14 20.41 20.41V176.1c0 8.26-4.97 15.7-12.6 18.85-2.52 1.05-5.17 1.55-7.81 1.55ZM270.54.26l-5.61 10.46-43.37 78.83-5.61 9.95 5.61 9.95 43.37 76.28 5.87 10.46h113.53l5.61-11.48 32.4-65.31 14.54-29.59h-32.91l-82.91.26c-10.78-.15-20.7 9.63-20.7 20.41s9.92 20.56 20.7 20.41l50-.26-12.25 24.75h-64.29l-31.89-56.13 32.15-58.17h68.39l15.94 32.72h41.07l-25.89-62.06L388.68.26H270.54Zm272.19 196.65c-2.63 0-5.28-.51-7.81-1.55-7.63-3.16-12.6-10.6-12.6-18.85V20.86c0-11.27 9.14-20.41 20.41-20.41s20.41 9.14 20.41 20.41v106.37L683.92 6.43c5.84-5.84 14.63-7.59 22.24-4.42 7.63 3.16 12.6 10.6 12.6 18.85V176.5c0 11.27-9.14 20.41-20.41 20.41s-20.41-9.14-20.41-20.41V70.14l-120.78 120.8c-3.91 3.91-9.13 5.98-14.44 5.98Zm327.23-98.39 63.48-63.26c7.98-7.96 8.01-20.88.05-28.86s-20.88-8-28.86-.05l-63.59 63.36-63.59-63.36c-7.98-7.96-20.91-7.94-28.86.05-7.96 7.98-7.93 20.91.05 28.86l63.48 63.26-63.3 63.08c-7.98 7.96-8.01 20.88-.05 28.86 3.99 4 9.22 6 14.46 6s10.42-1.99 14.41-5.95l63.41-63.18 63.4 63.18c3.98 3.97 9.19 5.95 14.41 5.95s10.47-2 14.46-6c7.96-7.98 7.93-20.91-.05-28.86l-63.3-63.08ZM477.3 0c-10.69.13-20.29 9.98-20.15 20.66v53.18h40.82V20.67C498.1 9.81 488.16-.13 477.3 0Zm-20.15 175.66c-.13 10.69 9.47 20.53 20.15 20.66 10.86.14 20.8-9.81 20.66-20.66V90.23h-40.82v85.43Z" class="cls-1"/>
</svg>
