<svg xmlns="http://www.w3.org/2000/svg" width="267" height="80" fill="none" viewBox="0 0 267 80">
  <mask id="a" width="267" height="80" x="0" y="0" maskUnits="userSpaceOnUse" style="mask-type:luminance">
    <path fill="#fff" d="M267 0H0v79.3784h267V0Z"/>
  </mask>
  <g mask="url(#a)">
    <path fill="#5FA04E" d="M234.983 78.7547c-.691 0-1.335-.1852-1.933-.5095l-6.121-3.6581c-.921-.5095-.46-.6947-.184-.7873 1.242-.4169 1.472-.5095 2.761-1.2503.138-.0926.322-.0462.46.0464l4.694 2.8247c.184.0926.414.0926.552 0l18.363-10.6971c.183-.0926.277-.2778.277-.5092V42.8665c0-.2314-.094-.4166-.277-.5092l-18.363-10.6506c-.184-.0927-.414-.0927-.552 0l-18.362 10.6506c-.184.0926-.276.324-.276.5092v21.3478c0 .1852.092.4166.276.5092l5.016 2.9175c2.715 1.3891 4.418-.2316 4.418-1.8524V44.7189c0-.2778.23-.5556.553-.5556h2.347c.276 0 .552.2314.552.5556v21.0697c0 3.6584-1.979 5.7884-5.431 5.7884-1.058 0-1.886 0-4.234-1.1575l-4.832-2.7785c-1.196-.6947-1.933-1.9912-1.933-3.3806V42.913c0-1.3894.737-2.6859 1.933-3.3806l18.363-10.6968c1.15-.6483 2.715-.6483 3.865 0l18.363 10.6968c1.196.6947 1.932 1.9912 1.932 3.3806v21.3474c0 1.3894-.736 2.6859-1.932 3.3806l-18.363 10.6968c-.552.2317-1.242.4169-1.932.4169Z"/>
    <path fill="#5FA04E" d="M240.69 64.075c-8.055 0-9.712-3.7046-9.712-6.8535 0-.2778.23-.5557.552-.5557h2.393c.277 0 .507.1853.507.4631.368 2.4542 1.426 3.6584 6.305 3.6584 3.866 0 5.523-.8799 5.523-2.9637 0-1.2039-.462-2.0838-6.49-2.6859-5.016-.5095-8.146-1.6208-8.146-5.6496 0-3.7507 3.13-5.9736 8.376-5.9736 5.892 0 8.791 2.0376 9.159 6.4831 0 .139-.046.2778-.137.4168-.094.0926-.231.1853-.371.1853h-2.439c-.228 0-.459-.1853-.505-.4169-.553-2.5469-1.98-3.3803-5.753-3.3803-4.234 0-4.74 1.4817-4.74 2.593 0 1.3429.598 1.7598 6.305 2.5007 5.66.7408 8.33 1.8059 8.33 5.7883 0 4.075-3.36 6.3905-9.157 6.3905Zm26.51-22.4129c0 1.945-1.612 3.5658-3.546 3.5658-1.932 0-3.543-1.5746-3.543-3.5658 0-2.0374 1.657-3.5655 3.543-3.5655 1.888 0 3.546 1.5743 3.546 3.5655Zm-6.536 0c0 1.6672 1.335 3.0101 2.944 3.0101 1.658 0 2.993-1.3893 2.993-3.0101 0-1.667-1.335-2.9635-2.993-2.9635-1.563 0-2.944 1.2965-2.944 2.9635Zm1.657-1.9912h1.381c.46 0 1.381 0 1.381 1.0651 0 .7409-.462.8799-.739.9725.554.0462.599.4169.645.9261.046.3242.094.8799.185 1.0651h-.83c0-.1852-.137-1.2039-.137-1.2503-.045-.2314-.137-.324-.413-.324h-.691v1.6205h-.782v-4.075Zm.736 1.7598h.597c.508 0 .599-.3704.599-.5557 0-.5556-.368-.5556-.599-.5556h-.642v1.1113h.045Z"/>
    <path fill="#fff" fill-rule="evenodd" d="M43.6737 41.9539c0-.8335-.4601-1.6205-1.1964-2.0374L23.0104 28.5712c-.3221-.1852-.6903-.2778-1.0585-.324h-.184c-.3682 0-.7364.1388-1.0585.324L1.19654 39.8701C.460209 40.287 0 41.0743 0 41.9539l.0460209 30.3776c0 .4169.2301051.8335.5982721 1.0187.368167.2317.828377.2317 1.150527 0L13.3921 66.682c.7363-.4167 1.1965-1.2039 1.1965-2.0374V50.4282c0-.8335.4602-1.6208 1.1966-2.0374l4.9242-2.8711c.3682-.2317.7823-.3243 1.1965-.3243.4142 0 .8284.0926 1.1506.3243l4.9241 2.8711c.7363.4166 1.1967 1.2039 1.1967 2.0374v14.2164c0 .8335.4602 1.6207 1.1965 2.0374l11.5053 6.6682c.368.2317.8282.2317 1.1964 0 .3683-.1852.5982-.6018.5982-1.0187V41.9539ZM137.465.138922c-.369-.1852292-.829-.1852292-1.151 0-.368.231534-.598.601993-.598 1.018758V31.2573c0 .2778-.138.5556-.415.7411-.276.1388-.552.1388-.828 0l-4.878-2.8249c-.736-.4166-1.611-.4166-2.347 0l-19.513 11.3453c-.736.4169-1.196 1.2039-1.196 2.0374v22.6442c0 .8338.46 1.6208 1.196 2.0377l19.513 11.3453c.736.4166 1.611.4166 2.347 0l19.513-11.3453c.736-.4169 1.196-1.2039 1.196-2.0377V8.75207c0-.87985-.46-1.66707-1.196-2.08383L137.465.138922ZM135.67 57.7451c0 .2314-.092.4166-.276.5093l-6.674 3.89c-.184.0926-.414.0926-.598 0l-6.673-3.89c-.184-.0927-.276-.3241-.276-.5093v-7.7795c0-.2317.092-.4169.276-.5095l6.673-3.8898c.184-.0926.414-.0926.598 0l6.674 3.8898c.184.0926.276.3242.276.5095v7.7795Zm66.728-7.965c.737-.4169 1.151-1.2039 1.151-2.0376v-5.5106c0-.8334-.46-1.6207-1.151-2.0373l-19.375-11.2989c-.736-.4169-1.61-.4169-2.347 0l-19.512 11.345c-.737.4169-1.197 1.2042-1.197 2.0377v22.6442c0 .8335.46 1.6208 1.197 2.0374l19.374 11.1137c.737.4168 1.611.4168 2.301 0l11.736-6.5754c.368-.1852.598-.6021.598-1.019 0-.4166-.23-.8334-.598-1.0187L174.97 58.1153c-.368-.2314-.598-.6018-.598-1.0187v-7.0849c0-.4168.23-.8337.598-1.0189l6.121-3.5193c.368-.2314.828-.2314 1.196 0l6.121 3.5193c.368.2317.598.6021.598 1.0189v5.5568c0 .4168.23.8334.599 1.0187.368.2316.828.2316 1.196 0l11.597-6.8071Z" clip-rule="evenodd"/>
    <path fill="#5FA04E" fill-rule="evenodd" d="M181.551 48.7155c.138-.0927.323-.0927.461 0l3.727 2.1764c.138.0926.23.2316.23.4168v4.3528c0 .1853-.092.3243-.23.4169l-3.727 2.1764c-.138.0926-.323.0926-.461 0l-3.727-2.1764c-.138-.0926-.23-.2316-.23-.4169v-4.3528c0-.1852.092-.3242.23-.4168l3.727-2.1764Z" clip-rule="evenodd"/>
    <path fill="url(#b)" d="M76.3012 28.9882c-.7365-.4166-1.6109-.4166-2.3472 0L54.5792 40.241c-.7363.4168-1.1505 1.2039-1.1505 2.0376V64.83c0 .8337.4602 1.6207 1.1505 2.0376L73.954 78.1203c.7363.4166 1.6107.4166 2.3472 0l19.3746-11.2527c.7365-.4169 1.1505-1.2039 1.1505-2.0376V42.2786c0-.8337-.4601-1.6208-1.1505-2.0376L76.3012 28.9882Z"/>
    <path fill="url(#c)" d="M95.7221 40.241 76.2554 28.9882c-.184-.0926-.4142-.1852-.5982-.2314L53.8433 66.3119c.184.2314.4142.4167.6441.5557l19.467 11.2527c.5523.324 1.1964.4166 1.7946.2314l20.4794-37.6939c-.138-.1852-.3221-.3242-.5063-.4168Z"/>
    <path fill="url(#d)" d="M95.7224 66.8669c.5523-.3242.9665-.8798 1.1505-1.4819L75.5651 28.7098c-.5521-.0926-1.1505-.0465-1.6566.2778L54.5796 40.1939 75.427 78.4437c.2761-.0464.5985-.1391.8746-.2778l19.4208-11.299Z"/>
  </g>
  <defs>
    <linearGradient id="b" x1="83.0183" x2="65.3246" y1="37.3689" y2="73.2407" gradientUnits="userSpaceOnUse">
      <stop stop-color="#3F873F"/>
      <stop offset=".3296" stop-color="#3F8B3D"/>
      <stop offset=".6367" stop-color="#3E9638"/>
      <stop offset=".9341" stop-color="#3DA92E"/>
      <stop offset="1" stop-color="#3DAE2B"/>
    </linearGradient>
    <linearGradient id="c" x1="72.1833" x2="121.552" y1="56.1876" y2="19.937" gradientUnits="userSpaceOnUse">
      <stop offset=".1376" stop-color="#3F873F"/>
      <stop offset=".4016" stop-color="#52A044"/>
      <stop offset=".7129" stop-color="#64B749"/>
      <stop offset=".9081" stop-color="#6ABF4B"/>
    </linearGradient>
    <linearGradient id="d" x1="52.7188" x2="97.551" y1="53.5463" y2="53.5463" gradientUnits="userSpaceOnUse">
      <stop offset=".0919165" stop-color="#6ABF4B"/>
      <stop offset=".2871" stop-color="#64B749"/>
      <stop offset=".5984" stop-color="#52A044"/>
      <stop offset=".8624" stop-color="#3F873F"/>
    </linearGradient>
  </defs>
</svg>
