<svg xmlns="http://www.w3.org/2000/svg" viewBox="0 0 431.96 445.34" width="431.96" height="445.34">
  <defs>
    <style>
      .cls-1{fill:#fff}.cls-2{fill:#336791}
    </style>
  </defs>
  <path d="M256.4 445.34c-11.1 0-23.22-2.9-33.25-12.36-9.68-9.13-13.48-20.79-15.76-27.76-.36-1.09-.69-2.12-.94-2.8-4.56-12.3-6.1-29.89-7-52.52-.13-3.35-.23-6.92-.34-10.58-.06-2.25-.13-4.85-.23-7.57-15.33 6.72-33.3 7.92-52.48 3.12-5.32-1.33-10.65-3.58-15.01-6.33-3.43-2.17-6.02-4.5-7.96-6.84-15.29 12.74-29.83 10.87-37.83 8.2-14.28-4.76-26.99-18.02-38.88-40.55-8.38-15.88-16.48-36.56-24.08-61.45C9.42 184.6 1.03 138.94.28 123.93c-2.37-47.28 10.42-81.13 38-100.61C61.06 7.23 92.2 2.29 130.83 8.63c16.43 2.7 30.65 6.92 39.52 9.92 16.01-9.5 34.75-14.12 55.95-13.78 11.31.18 22.09 1.17 32.12 2.94 10.76-3.34 31.4-7.98 54.92-7.7 44.08.53 80.62 17.72 105.67 49.72 9.46 12.09 17.56 38.82 2.41 97.49-9.37 36.29-25.65 74.83-45.67 108.64 5.3-.15 12.57-.92 22.37-2.94 5.62-1.16 10.37-1.42 14.52-.8 8.8 1.31 15.6 6.79 18.19 14.65 7.57 22.93-24.6 39.91-34.63 44.57-12.7 5.9-33.39 9.49-50.31 8.72l-.79-.05-3.04-.27c-.09.77-.18 1.55-.27 2.3-.13 1.12-.27 2.3-.41 3.53-1.13 43.59-7.41 71.26-20.31 89.63-13.65 19.43-32.51 24.85-49.12 28.41-4.66 1-9.97 1.73-15.54 1.73ZM224.09 285.1c10.67 8.54 11.59 24.11 12.4 53.18.1 3.49.19 6.92.32 10.12.38 9.51 1.27 31.76 4.71 41.03.51 1.37.95 2.74 1.43 4.19 3.87 11.87 5.47 16.79 21.16 13.43 13.83-2.96 20.91-5.59 26.35-13.34 8.14-11.6 12.7-35.13 13.55-69.94l18.68.45-18.55-2.23c.18-1.51.35-2.93.5-4.28 1.62-13.94 2.9-24.94 12.85-32.05 6.28-4.48 13.34-5.08 19.46-4.53-5.05-5.15-6.65-10.43-7.14-12.84l-1.56-7.68 4.38-6.49c23.17-34.38 42.31-76.65 52.5-115.97 11.43-44.09 6.4-62.79 4.42-65.38C348 19.67 275.68 41.35 267.71 43.96l-1.4.76-7 1.29-3.58-.74c-9.09-1.89-19.21-2.93-30.06-3.11-16.84-.29-30.43 3.68-41.53 12.11l-8.53 6.47-9.89-4.08c-19.35-7.91-76.16-23.84-105.92-2.75-16.4 11.62-23.86 34.55-22.18 68.16.58 11.63 8.48 55.3 21.51 97.31 17.91 57.71 33.71 73.74 38.2 75.05.56-.24 2.55-1.27 5.71-5.07 19.43-23.37 37.92-42.85 38.69-43.67l10.82-11.38 13.08 8.69c4.5 2.99 9.45 4.73 14.53 5.15l31.05-26.47-4.51 46.1c-.09.87-.12 2.07.23 4.34l1.35 8.74-5.9 6.59c-.05.06-.11.12-.16.18l14.5 6.69 7.35-9.19Z"/>
  <path d="M401.89 271.23c-50.3 10.38-53.76-6.65-53.76-6.65 53.11-78.81 75.31-178.84 56.15-203.33-52.26-66.79-142.75-35.2-144.26-34.38l-.49.09c-9.94-2.06-21.06-3.29-33.56-3.5-22.76-.37-40.03 5.97-53.13 15.9 0 0-161.41-66.5-153.9 83.63 1.6 31.94 45.78 241.66 98.47 178.31 19.26-23.16 37.87-42.75 37.87-42.75 9.24 6.14 20.31 9.27 31.91 8.15l.9-.77c-.28 2.88-.15 5.69.36 9.02-13.57 15.17-9.59 17.83-36.72 23.42-27.46 5.66-11.33 15.73-.8 18.37 12.77 3.19 42.31 7.72 62.27-20.22l-.8 3.19c5.32 4.26 9.05 27.71 8.43 48.97-.63 21.26-1.04 35.85 3.15 47.25 4.19 11.4 8.37 37.05 44.04 29.41 29.81-6.39 45.26-22.94 47.4-50.55 1.52-19.63 4.98-16.73 5.19-34.28l2.77-8.31c3.19-26.61.51-35.2 18.87-31.2l4.46.39c13.52.61 31.21-2.17 41.59-7 22.36-10.38 35.62-27.7 13.57-23.15Z" class="cls-2"/>
  <path d="M418.63 270.05c-1.92-5.8-8.09-7.67-18.35-5.55-30.45 6.29-41.36 1.93-44.94-.7 23.67-36.06 43.15-79.65 53.65-120.32 5.05-19.55 15.15-67.14-.15-86.69-22.67-28.97-55.94-44.5-96.21-44.93-27.69-.31-51.08 6.77-55.61 8.77-9.55-2.38-19.96-3.83-31.3-4.02-20.8-.33-38.75 4.64-53.62 14.78-15.08-5.65-84.19-28.92-126.96 1.38-23.88 16.92-34.91 47.17-32.78 89.91.72 14.38 8.91 58.61 21.84 100.98 17.02 55.76 35.52 87.32 54.98 93.81 2.28.76 4.91 1.29 7.8 1.29 7.1 0 15.81-3.2 24.86-14.09 15.05-18.1 29.09-33.27 34.27-38.78 7.65 4.11 16.06 6.4 24.66 6.63.01.22.05.44.07.66-1.73 2.05-3.15 3.85-4.36 5.38-5.96 7.56-7.2 9.14-26.37 13.09-5.45 1.12-19.94 4.11-20.15 14.27-.23 11.09 17.12 15.75 19.1 16.25 6.89 1.72 13.53 2.58 19.86 2.58 15.4 0 28.95-5.06 39.77-14.85-.33 39.56 1.32 78.53 6.07 90.41 3.89 9.72 13.39 33.48 43.41 33.48 4.4 0 9.25-.51 14.59-1.65 31.33-6.72 44.93-20.56 50.19-51.08 2.82-16.31 7.65-55.27 9.92-76.17 4.8 1.5 10.97 2.18 17.65 2.18 13.92 0 29.99-2.96 40.07-7.63 11.32-5.26 31.74-18.16 28.04-29.36Zm-74.6-141.2c-.1 6.17-.95 11.77-1.85 17.61-.97 6.29-1.97 12.79-2.22 20.68-.25 7.68.71 15.66 1.64 23.38 1.87 15.59 3.8 31.65-3.65 47.49-1.16-2.05-2.27-4.3-3.3-6.78-.93-2.24-2.93-5.85-5.72-10.83-10.82-19.41-36.17-64.86-23.19-83.41 3.86-5.52 13.66-11.2 38.29-8.14ZM314.19 24.34c36.08.8 64.63 14.3 84.84 40.12 15.5 19.81-1.57 109.94-50.98 187.69-.49-.62-.98-1.25-1.5-1.89-.21-.26-.41-.52-.63-.78 12.77-21.09 10.27-41.95 8.05-60.45-.91-7.59-1.77-14.76-1.55-21.5.23-7.14 1.17-13.26 2.08-19.18 1.12-7.3 2.26-14.84 1.95-23.74.23-.93.33-2.04.21-3.34-.8-8.53-10.55-34.07-30.4-57.19-10.86-12.64-26.7-26.79-48.32-36.33 9.3-1.93 22.03-3.72 36.26-3.41ZM112.27 296.7c-9.98 12-16.88 9.7-19.14 8.94-14.77-4.92-31.9-36.13-47.01-85.63-13.07-42.82-20.71-85.88-21.31-97.96-1.91-38.19 7.35-64.8 27.51-79.1 32.82-23.27 86.78-9.34 108.46-2.28-.31.31-.64.59-.94.91-35.58 35.93-34.74 97.31-34.65 101.08 0 1.45.12 3.5.28 6.32.61 10.32 1.75 29.54-1.29 51.31-2.83 20.22 3.41 40.02 17.1 54.31 1.42 1.48 2.9 2.87 4.43 4.18-6.1 6.53-19.35 20.97-33.45 37.93Zm38.02-50.73c-11.04-11.52-16.05-27.54-13.75-43.96 3.21-22.99 2.03-43.01 1.39-53.77-.09-1.51-.17-2.82-.21-3.87 5.2-4.61 29.29-17.51 46.46-13.58 7.84 1.8 12.62 7.13 14.6 16.31 10.28 47.53 1.36 67.35-5.8 83.26-1.48 3.28-2.87 6.38-4.06 9.59l-.92 2.48c-2.34 6.27-4.51 12.09-5.86 17.63-11.73-.04-23.15-5.05-31.83-14.11Zm1.8 64.11c-3.43-.86-6.51-2.34-8.32-3.58 1.51-.71 4.2-1.68 8.86-2.64 22.56-4.65 26.04-7.92 33.65-17.58 1.74-2.22 3.72-4.73 6.46-7.78 4.08-4.56 5.94-3.79 9.33-2.39 2.74 1.14 5.41 4.57 6.5 8.35.51 1.79 1.09 5.18-.8 7.81-15.89 22.26-39.05 21.97-55.68 17.8Zm118.06 109.86c-27.61 5.92-37.37-8.17-43.81-24.26-4.16-10.39-6.2-57.25-4.75-109.01.02-.69-.08-1.35-.27-1.97-.17-1.21-.42-2.43-.77-3.66-2.16-7.53-7.41-13.83-13.71-16.44-2.5-1.04-7.1-2.94-12.62-1.53 1.18-4.85 3.22-10.33 5.43-16.26l.93-2.5c1.05-2.81 2.36-5.73 3.75-8.81 7.5-16.66 17.77-39.47 6.62-91.02-4.18-19.3-18.12-28.73-39.25-26.54-12.67 1.31-24.26 6.42-30.04 9.35-1.24.63-2.38 1.24-3.44 1.83 1.61-19.45 7.71-55.8 30.51-78.8 14.36-14.48 33.49-21.62 56.78-21.25 45.9.75 75.34 24.31 91.95 43.94 14.32 16.92 22.07 33.96 25.16 43.15-23.26-2.37-39.09 2.23-47.11 13.69-17.45 24.94 9.55 73.36 22.52 96.63 2.38 4.27 4.43 7.95 5.08 9.52 4.22 10.24 9.7 17.08 13.69 22.07 1.22 1.53 2.41 3.01 3.31 4.31-7.05 2.03-19.7 6.73-18.55 30.19-.93 11.77-7.55 66.89-10.91 86.36-4.44 25.73-13.9 35.31-40.52 41.02Zm115.19-131.82c-7.21 3.34-19.26 5.85-30.72 6.39-12.66.59-19.09-1.42-20.61-2.65-.71-14.62 4.73-16.15 10.49-17.76.9-.25 1.79-.5 2.64-.8.53.43 1.11.86 1.74 1.28 10.17 6.71 28.31 7.44 53.91 2.15.1-.02.19-.04.28-.06-3.45 3.23-9.36 7.56-17.74 11.46Z" class="cls-1"/>
  <path d="M193.05 144.64c.15-1.1-.09-3.22-3.46-5.1-1.92-1.07-4.5-1.87-7.29-2.26-4.53-.63-8.64-.05-10.72 1.52-1.17.89-1.53 1.91-1.63 2.62-.26 1.87 1.05 3.94 1.85 5 2.28 3.02 5.6 5.09 8.89 5.55.48.07.95.1 1.42.1 5.49 0 10.48-4.27 10.92-7.43Zm128.24-10.49c-5.22.73-10.29 3.08-9.86 6.19.34 2.41 4.7 6.53 9.86 6.53.43 0 .88-.03 1.32-.09 3.44-.48 5.97-2.66 7.17-3.92 1.83-1.92 2.89-4.06 2.69-5.46-.43-3.1-5.95-3.98-11.17-3.25Z" class="cls-1"/>
</svg>
