<svg xmlns="http://www.w3.org/2000/svg" viewBox="0 0 146.41 125.6" width="146.41" height="125.6">
  <path fill="#a32422" d="M140.67,96.76c-7.8,4.08-48.28,20.73-57,25.3s-13.39,4.44-20.21,1.18S13.71,102.52,5.93,98.8C2.01,96.96,0,95.39,0,93.92v-14.81s56.08-12.17,65.13-15.45,12.18-3.36,19.87-.54,53.79,11.14,61.4,13.9v14.6c0,1.52-1.75,3-5.74,5.13h0Z"/>
  <path fill="#dc382c" d="M140.67,82.02c-7.8,4.06-48.28,20.71-57,25.2s-13.39,4.45-20.21,1.2S13.71,87.71,5.93,84.02s-7.93-6.27-.3-9.25c7.63-2.98,50.46-19.75,59.51-23.05s12.18-3.37,19.87-.54,48,18.84,55.57,21.63,7.92,5.08,.09,9.13v.08Z"/>
  <path fill="#a32422" d="M140.67,72.64c-7.8,4.07-48.28,20.71-57,25.2s-13.35,4.45-20.17,1.18S13.71,78.39,5.93,74.68C2.01,72.82,0,71.26,0,69.78v-14.76s56.08-12.21,65.13-15.49,12.18-3.37,19.87-.51,53.79,11.1,61.4,13.88v14.6c0,1.52-1.75,3.04-5.74,5.14Z"/>
  <path fill="#dc382c" d="M140.67,57.83c-7.8,4.08-48.28,20.72-57,25.21s-13.39,4.46-20.21,1.2S13.71,63.59,5.93,59.87s-7.92-6.25-.3-9.23,50.46-19.79,59.51-23c9.05-3.21,12.18-3.41,19.87-.62s48,18.94,55.57,21.65,7.92,5.09,.09,9.13v.03Z"/>
  <path fill="#a32422" d="M140.67,47.61c-7.8,4.08-48.28,20.73-57,25.21s-13.35,4.45-20.17,1.2S13.71,53.36,5.93,49.65C2.01,47.81,0,46.24,0,44.76v-14.81s56.08-12.17,65.13-15.44,12.18-3.37,19.87-.55c7.69,2.82,53.77,11.14,61.38,13.92v14.6c.02,1.54-1.73,3.04-5.72,5.13Z"/>
  <path fill="#dc382c" d="M140.67,32.82c-7.8,4-48.28,20.75-57,25.2s-13.39,4.44-20.21,1.2S13.71,38.55,5.93,34.85s-7.93-6.27-.3-9.25C13.26,22.62,56.09,5.82,65.14,2.56s12.18-3.36,19.87-.54c7.69,2.82,48,18.85,55.57,21.63s7.92,5.09,.09,9.14v.03Z"/>
  <polygon fill="#fff" points="75.51 11.79 85.17 8.62 82.55 14.88 92.38 18.56 79.71 19.88 76.86 26.72 72.28 19.09 57.63 17.77 68.57 13.83 65.28 7.77 75.51 11.79 75.51 11.79 75.51 11.79"/>
  <polygon fill="#fff" points="76.12 51.72 52.44 41.89 86.36 36.68 76.12 51.72 76.12 51.72 76.12 51.72"/>
  <path fill="#fff" d="M43.29,22.36c10,0,18.13,3.15,18.13,7s-8.15,7-18.13,7-18.14-3.15-18.14-7,8.13-7,18.14-7Z"/>
  <polygon fill="#741113" points="107.39 20.43 127.46 28.36 107.41 36.29 107.39 20.43 107.39 20.43 107.39 20.43"/>
  <polygon fill="#ac2724" points="107.39 20.43 107.41 36.29 105.23 37.14 85.17 29.21 107.39 20.43 107.39 20.43 107.39 20.43"/>
</svg>
