<svg xmlns="http://www.w3.org/2000/svg" viewBox="0 0 361.84 160.59" width="361.84" height="160.59">
  <defs>
    <linearGradient id="Unbenannter_Verlauf_2" x1="-1258.68" x2="-1249.81" y1="1144.55" y2="1144.55" data-name="Unbenannter Verlauf 2" gradientTransform="matrix(0 11.49 11.49 0 -13090.95 14470.51)" gradientUnits="userSpaceOnUse">
      <stop offset="0" stop-color="#97d9f6"/>
      <stop offset=".92" stop-color="#0f80cc"/>
      <stop offset="1" stop-color="#0f80cc"/>
    </linearGradient>
    <style>
      .cls-1{fill:#003b57}.cls-2{fill:#0f80cc}.cls-3{fill:url(#Unbenannter_Verlauf_2)}
    </style>
  </defs>
  <path id="SQLite" fill="#ffffff" d="M137.53 79.22c-4.82 0-8.74 1.43-11.75 4.28-3.01 2.86-4.53 6.6-4.53 11.19 0 2.38.38 4.54 1.12 6.53.75 1.99 1.91 3.83 3.47 5.5 1.56 1.67 4.69 3.93 9.34 6.81 5.71 3.49 9.46 6.32 11.25 8.53 1.8 2.21 2.69 4.52 2.69 6.94 0 3.23-1.06 5.81-3.25 7.75-2.19 1.94-5.12 2.91-8.75 2.91-3.83 0-7.17-1.35-10.03-4.03-2.87-2.68-4.31-6.24-4.34-10.69h-1.78v16.16h1.78c.54-1.53 1.3-2.31 2.28-2.31.47 0 1.58.33 3.31.94 4.21 1.5 7.66 2.22 10.38 2.22 4.68 0 8.67-1.64 12-4.97 3.32-3.33 5-7.34 5-12.03 0-3.63-1.11-6.87-3.28-9.69-2.17-2.82-6.4-6.11-12.72-9.88-5.44-3.27-8.96-5.93-10.59-8-1.63-2.07-2.47-4.36-2.47-6.88 0-2.72 1-4.9 2.97-6.53 1.97-1.63 4.55-2.44 7.78-2.44 3.63 0 6.66 1.08 9.06 3.25 2.4 2.18 3.78 5.19 4.19 9.06h1.78v-14h-1.66c-.2.71-.39 1.17-.56 1.38-.17.2-.49.31-.97.31-.58 0-1.6-.24-3.06-.72-3.12-1.05-6.01-1.59-8.66-1.59Zm58.22 0c-5.88 0-11.21 1.39-16.03 4.16-4.83 2.77-8.65 6.61-11.47 11.5-2.82 4.89-4.22 10.09-4.22 15.62 0 7.44 2.43 14.07 7.34 19.87 4.91 5.81 10.8 9.42 17.62 10.81 1.56.81 3.79 2.91 6.72 6.31 3.29 3.84 6.08 6.6 8.38 8.25 2.29 1.65 4.76 2.86 7.38 3.66 2.62.8 5.44 1.19 8.5 1.19 3.7 0 7.02-.64 9.94-1.97l-.66-1.62c-1.7.61-3.5.91-5.41.91-2.58 0-5.2-.85-7.81-2.56-2.61-1.71-5.88-4.99-9.78-9.81-1.83-2.31-3.1-3.77-3.81-4.34 7.47-1.46 13.62-5.08 18.41-10.88 4.79-5.79 7.19-12.4 7.19-19.81 0-8.8-3.13-16.19-9.34-22.22-6.22-6.03-13.87-9.06-22.94-9.06Zm36.34 0 .09 1.91c3.91 0 6.1 1.15 6.59 3.47.18.83.27 2.36.28 4.56l-.03 42.16c-.03 3.15-.48 5.16-1.34 6.03-.86.87-2.32 1.41-4.44 1.62l-.09 1.91h39l1-9.56h-1.78c-.51 2.6-1.67 4.47-3.53 5.53-1.86 1.07-5.15 1.59-9.91 1.59h-3.69c-4.28 0-6.75-1.55-7.41-4.66-.14-.62-.18-1.27-.19-2l.16-42.62c0-3.14.4-5.25 1.22-6.28.83-1.03 2.33-1.6 4.5-1.75l-.09-1.91h-20.34Zm-35.72 2.31c6.63 0 12.04 2.61 16.22 7.88s6.25 12.48 6.25 21.63c0 8.66-2.1 15.6-6.31 20.81-4.21 5.21-9.82 7.81-16.78 7.81s-12.12-2.68-16.28-8.06c-4.16-5.38-6.22-12.37-6.22-20.97s2.08-15.9 6.28-21.19c4.2-5.28 9.81-7.91 16.84-7.91Zm89.69 9.06c-.95 0-1.68.32-2.22.97-.55.64-.73 1.43-.53 2.38.19.92.71 1.73 1.53 2.41.82.68 1.7 1.03 2.66 1.03s1.62-.35 2.12-1.03.66-1.49.47-2.41c-.19-.95-.7-1.73-1.47-2.38-.78-.65-1.64-.97-2.56-.97Zm25.72 6.47c-1.62 6.22-5.12 9.58-10.5 10.12l.06 1.78h6.28l-.12 21.06c.01 3.6.12 6 .38 7.22.62 2.92 2.53 4.41 5.72 4.41 4.62 0 9.46-2.81 14.53-8.44l-1.53-1.31c-3.66 3.7-6.89 5.56-9.72 5.56-1.74 0-2.81-1-3.22-2.97-.11-.48-.16-1.04-.16-1.69l.06-23.84h9.59l-.09-2.84h-9.47v-9.06h-1.81Zm37.09 7.94c-5.37 0-9.73 2.61-13.12 7.78-3.38 5.18-4.42 10.93-3.09 17.25.78 3.7 2.34 6.57 4.72 8.59 2.38 2.02 5.39 3.03 9 3.03 3.36 0 8.03-.85 10-2.56 1.97-1.71 3.79-4.48 5.47-8.28l-1.34-1.41c-2.68 4.93-8.08 7.41-12.16 7.41-5.6 0-9.03-3.07-10.31-9.19-.17-.78-.29-1.62-.38-2.5 6.67-1.06 11.72-2.92 15.12-5.62 3.41-2.7 6.83-5.57 6.19-8.59-.38-1.8-1.31-3.21-2.75-4.28-1.45-1.07-5.23-1.62-7.34-1.62Zm-58.66.22-11.56 2.66v2.06l4-.5c1.94 0 3.08.88 3.44 2.62.12.58.2 1.41.22 2.44l-.12 18.91c-.03 2.62-.32 4.14-.91 4.59-.59.46-2.14.69-4.66.69l-.06 1.78h18.34l-.03-1.78c-2.55 0-4.2-.2-4.94-.59-.72-.39-1.22-1.1-1.44-2.19-.17-.78-.24-2.13-.25-4l.06-26.69h-2.09Zm55.72 3.5c1.12 0 2.2.43 3.28 1.28 1.07.85 1.72 1.79 1.94 2.81 1.05 5.03-3.41 8.5-13.44 10.44-.29-3.67.35-6.99 1.97-10 1.61-3 3.7-4.53 6.25-4.53Z" />
  <path id="solid-background" d="M111.63 7.04h-99.5C5.46 7.04 0 12.49 0 19.16V128.9c0 6.67 5.46 12.12 12.13 12.12h65.53c-.74-32.61 10.39-95.89 33.97-133.99Z" class="cls-2"/>
  <path id="gradient-background" d="M108.02 10.57H12.13c-4.74 0-8.59 3.85-8.59 8.59v101.73c21.72-8.33 54.31-15.53 76.85-15.2 4.53-23.68 17.84-70.09 27.63-95.12Z" class="cls-3"/>
  <path id="feather" d="M134.84 3.44c-6.82-6.08-15.07-3.64-23.21 3.59-1.21 1.07-2.42 2.26-3.61 3.54-13.93 14.78-26.86 42.15-30.88 63.06 1.57 3.17 2.79 7.22 3.59 10.32.21.79.39 1.54.54 2.17.35 1.5.54 2.47.54 2.47s-.12-.47-.64-1.96c-.1-.29-.21-.6-.33-.96-.06-.15-.13-.33-.21-.53-.91-2.11-3.42-6.57-4.53-8.51-.95 2.79-1.78 5.4-2.48 7.76 3.19 5.84 5.14 15.86 5.14 15.86s-.17-.65-.97-2.91c-.71-2-4.26-8.22-5.1-9.67-1.44 5.31-2.01 8.89-1.49 9.77 1 1.69 1.95 4.61 2.79 7.83 1.89 7.27 3.2 16.12 3.2 16.12s.04.59.11 1.49c-.26 6.1-.11 12.43.37 18.15.63 7.57 1.81 14.08 3.31 17.56l1.02-.56c-2.21-6.86-3.1-15.85-2.71-26.21.59-15.85 4.24-34.95 10.98-54.87 11.38-30.07 27.18-54.19 41.63-65.71-13.17 11.9-31 50.41-36.34 64.67-5.98 15.97-10.21 30.96-12.76 45.31 4.4-13.46 18.64-19.25 18.64-19.25s6.98-8.61 15.15-20.92c-4.89 1.11-12.92 3.02-15.6 4.15-3.97 1.66-5.04 2.23-5.04 2.23s12.85-7.82 23.87-11.37c15.16-23.88 31.67-57.79 15.04-72.63" class="cls-1"/>
</svg>
