<svg xmlns="http://www.w3.org/2000/svg" viewBox="0 0 295 208" width="295" height="208">
  <defs>
    <linearGradient id="logoGradient" gradientTransform="rotate(45)">
      <stop offset="0%" stop-color="#df7600" />
      <stop offset="100%" stop-color="#fca310" />
      <animateTransform
        attributeName="gradientTransform"
        type="rotate"
        from="0 0.5 0.5"
        to="360 0.5 0.5"
        dur="10s"
        repeatCount="indefinite"/>
    </linearGradient>
  </defs>
  <path fill="url(#logoGradient)" d="M276.31 170.34c-4.95 0-9.45 1.94-12.79 5.09 1.98-5.37 3.02-11.32 3.02-17.8 0-23.77-13.3-36.22-48.11-45.28-35.66-9.06-40.75-11.6-40.75-19.53 0-8.77 9.34-13.87 23.49-13.02 14.43 1.13 23.2 7.92 24.62 19.24l39.33-7.08c-3.96-27.73-28.86-45.28-64.8-45.28s-57.11 15.94-60.41 41.55c-5.55-19.96-19.76-41.83-56.15-41.83-21.93 0-38.48 7.92-49.52 20.23V0H0v203.76h39.05v-77.54c0-37.92 19.24-43.58 32.54-43.58 32.83 0 32.83 35.09 32.83 48.96v72.16h39.05V181.9c11.29 16.88 31.68 26.1 59.12 26.1 25.82 0 44.99-7.95 55.31-22.06-.17 1.01-.28 2.04-.28 3.09 0 10.32 8.37 18.69 18.69 18.69S295 199.35 295 189.03s-8.37-18.69-18.69-18.69Zm-70.89 4.55c-16.98 0-28.58-8.49-31.69-22.92l-30.26 4.57v-38.53c0-1.25 0-2.96-.06-5.01 6.33 12.19 20.82 20.05 47.01 26.8 33.11 8.77 36.79 10.75 36.79 19.81 0 9.62-7.92 15.28-21.79 15.28Z"/>
</svg>
