<svg xmlns="http://www.w3.org/2000/svg" viewBox="0 0 234.49 275.53" width="234.49" height="275.53">
  <path fill="currentColor" d="M21.35 54.41c-2.39 0-4.41.84-5.42 2.48-1.05 1.7-.89 3.88.23 6.1l26.87 46.51c.05.09.05.14 0 .23L.81 184.24c-1.1 2.19-1.05 4.4 0 6.1 1.01 1.63 2.8 2.71 5.19 2.71h39.74c5.94 0 8.81-4.01 10.84-7.68 0 0 41.29-73.03 42.9-75.86-.16-.26-27.32-47.64-27.32-47.64-1.98-3.52-4.97-7.45-11.06-7.45H21.35ZM188.29 0c-5.93 0-8.51 3.74-10.64 7.57 0 0-85.61 151.82-88.43 156.8.14.27 56.46 103.59 56.46 103.59 1.97 3.52 5.01 7.57 11.1 7.57h39.69c2.39 0 4.26-.9 5.27-2.54 1.06-1.7 1.03-3.94-.08-6.14L145.64 164.5c-.05-.08-.05-.18 0-.26l88-155.57c1.1-2.19 1.13-4.43.08-6.13C232.71.91 230.83 0 228.44 0H188.3Z"/>
</svg>
